<mxfile host="app.diagrams.net" agent="Mozilla/5.0 (Windows NT 10.0; Win64; x64) AppleWebKit/537.36 (KHTML, like Gecko) Chrome/133.0.0.0 Safari/537.36 Edg/133.0.0.0" version="24.7.7">
  <diagram name="第 1 页" id="cqqPodx_gIHTt5UWhKDk">
    <mxGraphModel dx="2524" dy="1386" grid="1" gridSize="10" guides="1" tooltips="1" connect="1" arrows="1" fold="1" page="1" pageScale="1" pageWidth="827" pageHeight="1169" math="0" shadow="0">
      <root>
        <mxCell id="0" />
        <mxCell id="1" parent="0" />
        <mxCell id="ST7Q-PoKFSPQThEERPkX-3" style="edgeStyle=orthogonalEdgeStyle;rounded=0;orthogonalLoop=1;jettySize=auto;html=1;" parent="1" source="E8Qx4PALKQgT2wIL797c-1" target="E8Qx4PALKQgT2wIL797c-2" edge="1">
          <mxGeometry relative="1" as="geometry" />
        </mxCell>
        <mxCell id="E8Qx4PALKQgT2wIL797c-1" value="" style="verticalLabelPosition=bottom;sketch=0;aspect=fixed;html=1;verticalAlign=top;strokeColor=none;align=center;outlineConnect=0;shape=mxgraph.citrix.users;" parent="1" vertex="1">
          <mxGeometry x="60" y="388" width="64.5" height="55" as="geometry" />
        </mxCell>
        <mxCell id="ST7Q-PoKFSPQThEERPkX-5" value="" style="edgeStyle=orthogonalEdgeStyle;rounded=0;orthogonalLoop=1;jettySize=auto;html=1;" parent="1" source="E8Qx4PALKQgT2wIL797c-2" target="ST7Q-PoKFSPQThEERPkX-4" edge="1">
          <mxGeometry relative="1" as="geometry" />
        </mxCell>
        <mxCell id="E8Qx4PALKQgT2wIL797c-2" value="" style="verticalLabelPosition=bottom;sketch=0;aspect=fixed;html=1;verticalAlign=top;strokeColor=none;align=center;outlineConnect=0;shape=mxgraph.citrix.calendar;" parent="1" vertex="1">
          <mxGeometry x="280" y="365.5" width="75" height="100" as="geometry" />
        </mxCell>
        <mxCell id="rkvHEvfjf1KEYPUZyGFZ-4" value="&lt;font style=&quot;font-size: 18px;&quot;&gt;使用人&lt;/font&gt;" style="text;strokeColor=none;align=center;fillColor=none;html=1;verticalAlign=middle;whiteSpace=wrap;rounded=0;" parent="1" vertex="1">
          <mxGeometry x="37.25" y="471.63" width="110" height="40" as="geometry" />
        </mxCell>
        <mxCell id="rkvHEvfjf1KEYPUZyGFZ-9" value="&lt;font style=&quot;font-size: 18px;&quot;&gt;发起申请&lt;/font&gt;" style="text;strokeColor=none;align=center;fillColor=none;html=1;verticalAlign=middle;whiteSpace=wrap;rounded=0;" parent="1" vertex="1">
          <mxGeometry x="140" y="365.5" width="110" height="40" as="geometry" />
        </mxCell>
        <mxCell id="ST7Q-PoKFSPQThEERPkX-13" value="" style="edgeStyle=orthogonalEdgeStyle;rounded=0;orthogonalLoop=1;jettySize=auto;html=1;" parent="1" source="y1A_n7PDeES1u6oTT7AH-4" target="ST7Q-PoKFSPQThEERPkX-12" edge="1">
          <mxGeometry relative="1" as="geometry" />
        </mxCell>
        <mxCell id="y1A_n7PDeES1u6oTT7AH-4" value="" style="verticalLabelPosition=bottom;sketch=0;aspect=fixed;html=1;verticalAlign=top;strokeColor=none;align=center;outlineConnect=0;shape=mxgraph.citrix.thin_client;" parent="1" vertex="1">
          <mxGeometry x="650" y="380" width="71" height="71" as="geometry" />
        </mxCell>
        <mxCell id="y1A_n7PDeES1u6oTT7AH-16" value="&lt;font style=&quot;font-size: 18px;&quot;&gt;申请维修&lt;/font&gt;" style="text;strokeColor=none;align=center;fillColor=none;html=1;verticalAlign=middle;whiteSpace=wrap;rounded=0;" parent="1" vertex="1">
          <mxGeometry x="262.5" y="475.5" width="110" height="32.25" as="geometry" />
        </mxCell>
        <mxCell id="ST7Q-PoKFSPQThEERPkX-8" value="" style="edgeStyle=orthogonalEdgeStyle;rounded=0;orthogonalLoop=1;jettySize=auto;html=1;" parent="1" source="ST7Q-PoKFSPQThEERPkX-4" target="ST7Q-PoKFSPQThEERPkX-7" edge="1">
          <mxGeometry relative="1" as="geometry" />
        </mxCell>
        <mxCell id="0zrECa5kf7nCr0N9lgGi-1" value="&lt;font style=&quot;font-size: 17px;&quot;&gt;抄送领导&lt;/font&gt;" style="edgeLabel;html=1;align=center;verticalAlign=middle;resizable=0;points=[];" vertex="1" connectable="0" parent="ST7Q-PoKFSPQThEERPkX-8">
          <mxGeometry x="0.0079" y="2" relative="1" as="geometry">
            <mxPoint y="-1" as="offset" />
          </mxGeometry>
        </mxCell>
        <mxCell id="0zrECa5kf7nCr0N9lgGi-2" value="" style="edgeStyle=orthogonalEdgeStyle;rounded=0;orthogonalLoop=1;jettySize=auto;html=1;" edge="1" parent="1" source="ST7Q-PoKFSPQThEERPkX-4" target="y1A_n7PDeES1u6oTT7AH-4">
          <mxGeometry relative="1" as="geometry" />
        </mxCell>
        <mxCell id="ST7Q-PoKFSPQThEERPkX-4" value="" style="verticalLabelPosition=bottom;sketch=0;aspect=fixed;html=1;verticalAlign=top;strokeColor=none;align=center;outlineConnect=0;shape=mxgraph.citrix.users;" parent="1" vertex="1">
          <mxGeometry x="470" y="388" width="64.5" height="55" as="geometry" />
        </mxCell>
        <mxCell id="ST7Q-PoKFSPQThEERPkX-6" value="&lt;font style=&quot;font-size: 18px;&quot;&gt;管理员审批&lt;/font&gt;" style="text;strokeColor=none;align=center;fillColor=none;html=1;verticalAlign=middle;whiteSpace=wrap;rounded=0;" parent="1" vertex="1">
          <mxGeometry x="447.25" y="471.62" width="110" height="40" as="geometry" />
        </mxCell>
        <mxCell id="ST7Q-PoKFSPQThEERPkX-7" value="" style="verticalLabelPosition=bottom;sketch=0;aspect=fixed;html=1;verticalAlign=top;strokeColor=none;align=center;outlineConnect=0;shape=mxgraph.citrix.users;" parent="1" vertex="1">
          <mxGeometry x="470" y="270" width="64.5" height="55" as="geometry" />
        </mxCell>
        <mxCell id="ST7Q-PoKFSPQThEERPkX-9" value="&lt;font style=&quot;font-size: 18px;&quot;&gt;领导审核&lt;/font&gt;" style="text;strokeColor=none;align=center;fillColor=none;html=1;verticalAlign=middle;whiteSpace=wrap;rounded=0;" parent="1" vertex="1">
          <mxGeometry x="447.25" y="220" width="110" height="40" as="geometry" />
        </mxCell>
        <mxCell id="ST7Q-PoKFSPQThEERPkX-10" value="&lt;font style=&quot;font-size: 18px;&quot;&gt;平台信息更新&lt;/font&gt;" style="text;strokeColor=none;align=center;fillColor=none;html=1;verticalAlign=middle;whiteSpace=wrap;rounded=0;" parent="1" vertex="1">
          <mxGeometry x="630.5" y="455.5" width="110" height="40" as="geometry" />
        </mxCell>
        <mxCell id="ST7Q-PoKFSPQThEERPkX-15" style="edgeStyle=orthogonalEdgeStyle;rounded=0;orthogonalLoop=1;jettySize=auto;html=1;" parent="1" source="ST7Q-PoKFSPQThEERPkX-12" edge="1">
          <mxGeometry relative="1" as="geometry">
            <mxPoint x="680" y="380" as="targetPoint" />
            <Array as="points">
              <mxPoint x="900" y="270" />
              <mxPoint x="680" y="270" />
            </Array>
          </mxGeometry>
        </mxCell>
        <mxCell id="ST7Q-PoKFSPQThEERPkX-17" style="edgeStyle=orthogonalEdgeStyle;rounded=0;orthogonalLoop=1;jettySize=auto;html=1;" parent="1" source="ST7Q-PoKFSPQThEERPkX-12" edge="1">
          <mxGeometry relative="1" as="geometry">
            <mxPoint x="1070" y="415" as="targetPoint" />
          </mxGeometry>
        </mxCell>
        <mxCell id="ST7Q-PoKFSPQThEERPkX-12" value="" style="shape=image;verticalLabelPosition=bottom;verticalAlign=top;imageAspect=0;image=data:image/png,iVBORw0KGgoAAAANSUhEUgAAAYIAAAI9CAIAAAC47OjjAAAACXBIWXMAACHVAAAh1QEEnLSdAAAgAElEQVR4nOx9WY8kx3XuiYzcaullpnuGw6FIaihSIi1rgXgFQTBwZQkw4BcDNmy/+8GA4Uf/A78a/geG4Vdb0IPgC0GCZeFSlkQDliBey7IscecMZzgz3dPd1bXlGhH34XQeRkcuXVVdS1Z1fhgMqqOyIiMjI744W5xgSilo0KBBg9XBWnUDGjRocNXR0FCDBg1WjIaGGjRosGI0NNSgQYMVo6GhBg0arBgNDTVo0GDFaGioQYMGK0ZDQw0aNFgxGhpq0KDBitHQUIMGDVaMhoYaNGiwYjQ01KBBgxWjoaEGDRqsGA0NNWjQYMVoaKhBgwYrRkNDDRo0WDEaGmrQoMGK0dBQgwYNVoyGhho0aLBiNDTUoEGDFaOhoQYNGqwYDQ01aNBgxWhoqEGDBitGQ0MNGjRYMRoaatCgwYrR0FCDBg1WjIaGGjRosGI0NNSgQYMVo6GhBg0arBgNDTVo0GDFaGioQYMGK0ZDQzNCKSUzKKWoXEpZeH2apsZlSZLEcayEVEKCVKDg7J9UaZwoIT8uUQAKlJAyFXqdQgghBFaL943jeDQa4bdxHOO3aZrST6Io0v+UUoZhKMTH1dJz4WchRJqm+gUNGswdTJ8bDWYGkpFSyrZtABBCYIllWViCSNM0SRLGmOM4nHMAAOp+paSUjDHGGDCGZSJNsZBzziwLAIQUWDkA2LbNOUem8H0fAD744IO333776Ojo3Xff/dWvftXr9VzXDYJgd3f31Vdf/epXv/riiy92u13OueM4jDFqWxzHaZoyxjzPs6yPFyelFMsa06DBgtDQ0DKglIrjGFmDCuM4TpLE4TZjzLIs/J8IKI4iZB9L+4lIU+7Yx8fHDx8+PDw8PD4+fvTo0YcffvjkyZO7d+/u7e0lSRIEQavVCoLg/v37w+EQRRuUmxzHuXPnzje+8Y2vfvWrt2/ffvrpp/f29gAAL3AcB++SpmkcxwBg27Zt2ygf0bcNGswdDQ3NCBRSAMAQFlBO0QUKJAKUOwqEC6P7lQrDMI7j7Z2dJI5PT09PTk4ODw8/+uijBw8eHB8f3/3w3ng8jqIIbz0ej09OTobDYbvdvnXrFmMsSZKtra0wDD/66KPhcDgajRzHcV0XAMbjcRiGrutubW397u/+7q1bt27evHnjxo1Pf/rTr7zyiud5g8Fga2tLb7n+IA0aLAgNDV0KaD1BckF+QXkHLUGcc5rGKsOZ1JNZdlzHjcJwMBiMRqPxeNzr9Q4PD3u93n//93+PRqPT09PxeJymKQosaZq6voeWGsZYFEX9fn80GgkhdnZ2bty4ge1pt9vD4fDhw4dRFHW73V6v1+/3LcvqdDqe5zHG0CT0xS9+8XOf+5zrusfHxwDw3HPPffKTn/zkJz/57LPPPvXUU9jsNE0ty2rIqMFC0dDQnEEcgVNXKRVFURzHnU4HqQStyEdHRwcHB6enp3ff/6Df7x8fHw8GgyiKgiAYDAbj8fjatWtowxZCcM4550hziUgBgHMupRwMBqenpwDQbrdv377d6XSSJEEF6vDw8OHDh4yxwWDg+77v+0g9cRxzzj3PS5IkiqKnnnrq85///I0bN8bjMWPs2rVrSqnbt2+/9NJLL7zwwvPPP48mp/F43G63V9mtDTYaDQ3NiI/NyQCgOa08z0O6kVJGUTQYDI6Pj4fD4Xvvvdfr9R49enR4eNjv95ER0jTd6nSRbpIkIVkJ6YNzTuYkKSV6rCybo5wlhBgOh2EYohwUBIFt20mSeJ7nuu5HH310cHDQ7XaHwyEadwAAa06SJEmSnZ0dVOXu3Lmzt7cXRVEURbZtt1ot27a3trY+9alPffWrX3311VcbAmqwaNgXX9KgCKSnJEkShiFaYaIoevfdd9GE/PjxY1SpwjBMksRxHBSLpJQo3SA7HBwcINegCx+/tW0bxRDkMqQ827Ydx4nTRAiBVDIej4UQlmW1Wi10zJEP7iwaQCn01lmWhSyGolCr1YqiyHGcIAjefvvt8Xh8+/ZtKeXDhw+feuopxtjR0dH777//zjvv3Lt372tf+9onPvGJlXZ2gw3HlZOGUCvRPVaIQiNImqboKsIZTgLOeDx+++23h8Ph8fHxwcHB0dHR6elpGIZpmo7HY6WBooosyyIpiWxJjDEMBcJr8Cd4a/psfCVBdTqd8Xj86NEjzvmzzz67vb09Ho8dxxFCoI+s1Wq98847URSh/aiwH5Cq8Ols2/7EJz6xvb19eHgYhmG32/U8LwgC13V3dna+8pWv/MVf/MXu7q5lWcin1DP0Z4MGl8GVk4bQZwQAcRxjUA8aTdrtthAiDEN0D1F44TvvvNPv9w8PD5Fujo6Oer3eaDTa3d1FqQR1Kwr5I9oyaEgvpD8ZYxQZaKwHpPEZ/rhUiuFwiMaabrfr+z4FK9EPy+rUgbQLmbo3Go08z9va2kJ6Qp89dshrr702HA7/6q/+an9/HzL3GT5sw0EN5oIrR0NIHLZte54HmUW53W5/9NFHT548uX///sOHD4+Ojp48efLkyZN+v++6LlqOhRCoGaGF5d69e5ZloWCFJShhJUkC50mHNCODg84+iHNR10Q3GLljFAIAd+x+vx/H8f7+/t7eHhqJUMWDLCAgiiIS38r6ASMekYM456enp47j3Lp1C03XrutiHKNS6vHjxz/84Q93d3f/8i//stvtYp1ksWqcaA0ujytHQ0qpTqcDAKPRCDnljTfe+MEPfvCf//mfURSFYaiUwkAbnIRofwEA/DNJErRGt1otEljQTU6B1FAi++htIDiZIGNILmgYJnmKMBqN0jR1XbfVajmOk6Yp6keQsRXnnPZzVNAQPhEGFmD80enp6Y0bN9B61Wq1UNZrtVqu69q2/c1vfvPll1/+gz/4A/wV0lCFtNWgweS4cjTkum4YhpzzTqfz85///J/+6Z9+8Ytf4HyGbCajkoW23vF4DJmPCZkIRQBd6gFtQhrSAWNMaf4vLNTJBeuk8o9tQNmuLv1iAMBQoK2tLd/3UW/StTasMAgCvZJCIHPhs9i2HUXRaDQ6OTnBb1EmoiBJAPA87wc/+MFnP/vZF154IQzDVqtlKIMNGsyMKzeMTk5Orl27NhwO/+7v/u673/1uEARojiXvOOop5LQiGxCZgcgxr7MGsoyhBxEHQabF6NfjB6S5vNyENEeWbNDoYHd3d3t7G+3lSikKKcKfc86JhtCPVtgPqM1RfJNlWUKIJ0+ePPXUU3EcB0EQx7HjOEqpwWBg2/bTTz/94x//+OWXX/7zP//zbrcLABgisJi31OBq4coNo2vXrv3P//zPt771rR//+Mfj8Xh7e5tCaZCJcFriB8uyDg8PQRN2aPMnSgo6EyFc19WlGypH9UeXa0jyIhIhUoBMKdO3m+FlQknXdWnfrKEWYSF6A5EEy/qBMYaXoWSHZi8MyEaGAoBWqwUAGKJ9eHh4enr6b//2b1//+tdffvllVEvjOCaTf4MGM+PK0dAbb7zxrW996yc/+YnneTdv3uz1emmaXr9+HW0iNL0BAAUf13WRBVBKStMUA3lQusErccLr2lmeHVC8Qp89FiKztNttlHeQ9YhxdKrSTdSdlj8ej9FDzzmnLBwkmDDGyAtWQUNKKdzOijTkuq7jOHEcU80o+mGY5c7OzjvvvHPnzp2HDx/+4he/ePrpp9M03dvbazbfN5gLNjxuCJdriiG+e/fuX//1X+MeK8i2RKCSRb5nY+brNhqda0iuoQvwegyGVlnQINYjpfR9H+kGBRD6lpQ4477Tvpc0TXd2duI4Pjo6Gg6HqFWRZ31y7O/fvH379ltvvbW9ve37/pMnT5577rmDgwPG2PXr109PT7/0pS/9zd/8ze7u9lTVNmhQgU2Whh4/foxbNFFPOTk5+eY3v3l0dDQej1EFI1kmv6qTTcdwtFN8kJHGjCq5du0aXqNrUirLJaRfaWhzxn1ng9IilWZDFEW4/8PzvDRNHcfBPbfb29uDwSBN06Ojow8++OBzn/ucZeHjzHyrBg3OsMk0tLOzgx8wsPif//mff/jDH6IDvlD3QRAR4Af9At1fhmZaMiGTdINaEm27p7vopKMrbrr4o9932oclL14+IeRUuHHjBqYZAoDj42MMnt7d3d3b2zs6Oup2u4PB4K233vrsZz/LGE/T1HU3eQg1WA42dgwlSeL7/nA4xFDjt95663vf+14YhqCZn/PUYBAB6VxEKLrrimCUqCyMSL9el4yI3XTLt3HfaZ8X68RkILohfFo8evQIkwGg4x8VMQwgOjg4uH37dr/ff++99zjnlgUNBzWYCzZ2GOF87nQ6vV5vd3f37//+74+Pj1ERQy8SWoUMWqkQSXQ2YdmGCZWF5xh0gxynV66nc6aa5yUKUVWUOnpmaci27evXr6PVDBNX49ZZvEWr1RqPxwcHBygHKdUoZQ3mgI2lIdu2cePV7u7uj370o5/97Gee5+n7PHGuomSEskOhSKLbqnWLcrvdLpRo6AIyPNHP9cugSAIqvO+EIKWM4rlhJqkqTdMXXnhhOBwOBoNer4d1BkGAX4VhGIbho0ePjo+Pb926KaXivOGhBpfFxtIQZBsv0zT9zne+Y9s2LuwkxZDtBnUZkl+gXCTRZzXFDdH1OuOQKqdbhQzZR9cHLykKgUaCOg3NAM75N77xjRs3bkgpe73e/fv3T05O7t69+8EHH1C+tDiOB4PBrVs3Gw5qMBdsLA0lSYLyyGuvvfbw4UOlVBRF6DXHjaDkU8cgadzpmicCYhBdI4PzEdK68kXZy+A879Du03zNhfedDZexCiHiON7d3e10OkEQPP/887u7u/v7+ycnJ0KI09PTo6Ojt956C1k7TTGjQLO1tcFlsbE0hMF4nPM33njj4OAAJRRMMEimHJWd4UWxRToXGFQCWhp80KiHeAShnwKm62v5+KC87QnOM1d1uQGllOM4p6enQgjf93HH/Ax8tLW19frrr7/44ovPPffc6ekpGoNwr6/rujdv3nz55ZfH4/FgMICGg7TXoS8kJGvTWjXVGoOjiCwGeuU4inAw4xFPc36eFWFjaQgAbNvu9/tPnjyhpBmU7axCD6oWTIxvDYlm8rZV6H1TlRMYYxTKNG3Ioo6jo6PXX3/9Bz/4QafTcRznxRdfvHPnzs2bN7vdbrfb3dnZwThyVHilhKuZ5yP/rvUoEKZtyikTro1lz1j/9EROdLYdRr1j7ocFPNMqsbE0hDrX/fv3Hzx4QDvCKaqYaQFB+pAy1jSDcXTmKiSgSZiojAGnLTfAGCO2RXf7bIqeZVknJyePHz/GLWNvv/02bsG/cePG3t7es88+2+l0bt26dfv27aspCuWlZoSRAY6kYyPPJ/3QoBJaOXTvLW1vNLYQIzFhUuA5PFINsLE0JISwbfvevXuHh4ekTJG0XMhBUG5FLvRqFZJONRPl6ykrL7QcVVTOGMP8s3BeeZwWnU4HBSv8MwzDKIo4571e75133vnNb37TarW+8pWvfP3rXweAKEo8b0NmwoTIq+0IzIgAABTIyrKty6SXGYdlQhaPpkexIbOgI0XPIIxvAb+lYyyX8LzLwcbSEC4vDx48CIJAD/YppI8yPUsvrGCEyZWyBYlC2AYjv8dsZIRH2odhiDn5HcfxPA8DGjHjGibeZh8HQ11dGtJRKJjI7JhMHUop3DKdrxkHLTIaVYh7qvF1hGHIGEN3CmNsY3KBbywNId08fvwYsvTM6BSjFSkvEzHN+QUThDgXamTVAkt1PXp5GfGVTQM92xlKgrNZiPC0xXa77fs+ikJ4sBru5r9+/TrlOQKAdtuf4RabBP11015CW8uoSfETqNuCls6l3+8/fvz4wYMHaDp4+PBhv9+/d++elLLb7d65c+czn/nMpz71qeeff/7mzZuWZXU6HSQjlW1RzJ/ssKbYWBqybTsMw+PjY0xaitvNyYs/CQflP5eR1IS2ocWJQpDZhljmT5nZium6LmbFx4zXrVar3W5jjjc0seGu4Nkq3yToyXkBAP2S+TeFJ+vikQoIPKju7t276HAMggAzC1M+39FolCTJz372Mwy+/cQnPnH79u3d3d3PfOYzX/ziF59//vnt7e0NewUbS0Moso7HYxSCMNWGzhcVMzxfOAkRTKWUXbK8EJSU+jJWAzyiw7Is9Mi4rpskyWAw2NvbOz097ff7mC4SdYE4vopbW4l99F3E9+7dGwwGT548OTw8pP8Hg8HJyQm5uiiPFQIPB0c9CzN/4qB1XbfdbmMWzbt37x4cHNy9e/fLX/7yw4cPX3/99Tt37vzO7/zOq6++ipurNwMbO4YoxxgmM4USu3KZp8zwaOiF+D+JG7SHnjKQzQXUAKM9eYUOSzDGB602vu+jfYHyKE6OdruNAj8GXmHouW3bw+EQZSL8rJ/PUUMgTZCBDEVFMsfg2NCT51LgO71W3ayDB+TiWbsoxeD5dI8fPz46Our3+5jJG3uDdjWjTcd13bPjdi0L44CQg3q9HloqHcdBLkMZloxuaEDA4xtOTk6++93vfuELX3jppZd+/etf//znP/+93/u9P/mTP8EjmwaDwdbWFgBEUYRmo7XDxtKQgTIBYXIxJG+amUpUmfm+Rnnhg+Cgv0x7NgloX2eM0fzs9/vb22d52lQWPY+GG9TTkbCGw+GTJ0/wuN0HDx4Mh0M8KqrX6wVBgD4vPJYSBRxkHKyWQvPxMsrPK7XTMZVScRzT4b2kxBEqHsp13V/+8pdBELzyyiu2bb/22mtpmv7RH/3RM888g88I2Rl8JBSvEdasuZPDECLymNAiU2aQposvtEzPdt8L2wPnI7kxv4fRkstoZ+sL3PjmOA7OzzRNkYNGo9HBwcHx8fHp6enJycnR0dFgMKD/e70e7hPEs+cw6xsmKSd7MMoylLGT3j5oWTr19YCcX5RpM0mSIAgw4QwtbCSCVbwvDJF/7733dnZ29vf3oyj6j//4jziO/+zP/uz69esoB+FN8Ri+BfbvArBmzZ0KeXGGxs1UTiuDjAwiIBrSB2V1kya8b2E5hc/pahoqHbQy55s9OfIPcuFCXTcMh0MkIEzbliTJt7/97X/9138dj8fD4RDPIFBK4QlIeAQ29h7awlCmuH//vm3b+CcG6aAQROcRwHkGQct9XsfX/ZVSyjiO8VBcyG3rqX5ZSZJcu3YtiqJ3333Xtm1MhvmjH/3o+eef/8M//EPjfc2vL5eEjaWh6pcxlUiSHx+FZEQy9rzuW10O5wU0oqFLSkPGTy4UKmuIra0tlIZardZ3v/vd733ve48ePdKPeMI3hfYgSqiEhhsSWG7duiWzQxAoBBEAMEZUBwAopTCsmcQfFJfoXnRH4iD9DRIqxk8QBGi3DsPw4OAA7XTb29vf//73f+u3fuuVV16BTB1bx0iijaUhOL+M66NhWpEEigQilnP5XygNXV4UyldFhag7wEzUYyDPRJevc5kYjUau6/Z6vW9961vf/va3j4+P0feHmhEdtYLOKdTFBoMBhnRguKZt2ycnJ/qAwWx5SFjk/TAS/mI5CVbq/Fm+ZIcuWyeqOxltT0KI0Wh0dHS0v7+P5+u9+eabP/3pT5GGsIa108hgs2moDLOJQpe3Dc1FFLLOn02mr8ZUrrIzji6UziZp7Xrh6Ohob2/vww8//Nu//dtf//rXANButzudDgZVEbOgjAMASinOeavVarVaSFVYj+7bAgAMPUOTNtN2YFAyTwzvHI/HYRiS2RuJQ18z6B0Zx2deCDzKCXd1jEajGzduMMYePnzYbrd/8pOf/PEf/3G329XdfOu1/fVq0ZA+UQvnWMXcy0vReda4cOpOe9/Ccl3+osLL7Ko37gg5Vl0jPtrb27t79+4//MM//PznP/d9H1NuhmFIE57EIhReOp1OFEXj8TiKIkqeyxjD/Su6gRnFKCNah8iFc47GJhSI8OhNEpyRFOT5wzLzXV3Rz0qp0WjU7XY7nU6/33///fevX7+Oxqxf/epXR0dHnudh6t71IiDEJtMQvnISjA2zrnFxPh+QcWXeHoRQ589inaQe/c9p9R28Ha2lnucJITDNNoYI6Q2bqmaqn86tRgsL5xxTDqVp2u12caZhduoVZl+kfTmj0QiDa+hF/OM//uO///u/d7tdKSUeykLH2OJvabcder4sy8LNK6CRVNlk1q3LBMaYEMLzvJOTkyRJtra28MRtNDbhIATt1VAbrPPnMlTQEB6Te3Jy0ul0dnZ2kFsZY+gX++lPf/qnf/qndPF6KdGw2TSkI69MFepB+QvKSgpFoUnqmW855NwxlwRqGZRYC2PQ89bxlQ90WvmRjNA6yzn//ve//+6776JBl6SbPKdQf5KSS8sDxRAWIr9+0AcKqtad92VVYbN1TR8ZSk+bp8PzPEx/HgQBJVkPw7DdbluWNRgMTk9Pt7a28ElrG1ZahqtCQ5Bz2Bsf9MsKLUT5z/mBWHbZzJagC9ujsjT4hulhZjDG0D+NYcQoHBkWce0DrFBdQ/c5Tjmc+WEYfuc733nvvff0jOPV/Zkno2pZkuW2EOL/qJSRGEUskx9d+MFYOS6UXofDIYlpnU7na1/72u///u/btn10dDQaje7cuYPiMMpfa6eXbTIN6ZNWRwUHGRM+Ly3rP9ehT9EL69HLp72e5SJT0G5aSIUzAIcyjmZc2ykqV2/bPBjvssDJhv/jztJf/vKXb775ZhAEaCjBECGkaX1TTr6foVIh0qG/GqZth1ZKGfmeDFHIeGu6OsY023kZg2B8E9aJEpPv+5zzF154IYqinZ0dFIsAII5jVDDXCJtMQzp0YSE/gS4UYeA8v4DGCPoYyv98EtFmqnJDjAcAoiF6wMJnnBAoRyDv4IBGqxBGo5D4kDVjldKQ7plmjAVB8Nprr+HeMdu28UGs7Nwkw3VIHwqjHCqoXO953daDW1Xx2+zIgBRy7nP6OWm+JECpSuW63W5jhCSGU7/++uuHh4e9Xu/GjRv7+/tf/vKXX3nlFTTYwRru51ints4GY3Lqq5khE1WIJPq4NJZQQ9SqridfXshcFdfTU1ChQUPGPJm2u8hqi1ah7e1t27YfPHjAtAOys8qnrXue0HkZWWY0Gv30pz/FdmLkIQksGHRT1v/5mmEy84rShFOUVtBBhvmelJZ0mO5Ft6NTLZFZsIUV+hTuLFFKbW1ttdvt8Xj84Ycfjkaj995779atW7u7u7SHeR2TVW84DRlTV5+lhR+qRZL8Z+ODcc3cRaHCB5TZ8bMzS0A6cEe4ytJ0Pf30077vP3jwQOegOjARYwydZcibjLEwDB8/fow7wuhkC3zjuB+1oj/LtKfC+0JuOCGbDIdD9MdhezB6iPRl43oKN3Vdt9Vq4Q6Silujx2A0Go1GI+r/ra2t3d1dfDpMjQBF9vj6Y8NpCFG44l3IOIX1FPIR5KyhZfXMq9y4Rlc6qi++EI7jjMdjyvWxv7/fbrdZES55o8uDIgkxVAc3nZKOgx8wXMPSjsnMt5ykKsVAKSUZV0oAswAkgAUgLWUBk6DQFMUFKCmlVFIqJQTGaoh0PDo6OUZJJEkS33fH45AxpmQxbSmllJScc9uGLE7AVkqU6WVRFO3u7uK3KHAhzQkhxuPxaDSi0KSyx6wzNpmGdEMGwghBhnnsVJAZCuufpJH6h0LVzwAu7+SsPTo6cl0Xd4dffiVEEQPdLlJKz/M8z6O9V+gMCoIgn0p5yVBK+b5PAoXjOB988IHrukpL3IMfrCzrJipNSZKgcXc0Gm1vb4tERkmcpqnFOXArZQoYWJyLM7KQjCmmFAiRxHGapuMoUgwwNLHXO3nqqaceP368vd09OX4SM5WkoRSCWZZlceVa4XDs+dtSMgUKGHCGqanOuIYplabJcDi+cfNWkkRSKcdxpIwKnxdz8uJwRaUPsh0emCYNL7NmPZFltdhkGpoEk4shhVdeSDpzF4vUecvRHBOtGbfT/zQ0kUXccVrk3w4tBkY5y0zRSvPQp2mKZyUM+yPL5q7nAYM4SkZxKNTZ6WtIx0wpJaQSkgNTlmVxhzs2nhZ5fW+/PxjeuXOn3++PxqGKo/butWeeefr+/ftf/OIX737w4aA16p2MIGUgJQCkFuecW5yBxZkCYMC5klJxztOUq7OzNlEKu1rYZBoqs91Q4eQWmfznQiPRzPVPXq4ywycKPmScnrJvpgBOXXUei7vdVKCWkExadiKmniAFTTOoe1r8bNcYblXlnG91tzE/EedcSQiDYDgcxmEECmxmhXHImeVy686dO5///Of/5V/+5aVPvfjmm29ev3YtjoIvf+nVZ5999u57dz3uyURe277WaV2PoiQIgiiKRBKJNBKxBADL5roVnHp4zcSYOWGTaQg034RBScaEN0SMsnLQuMD4TBdfpn69vKwemlQsS5ozd17I0w3dnbZZZVeu2F+WNeMMxM5l/Yyg/fFJkrRaLuD+MgUAYFvcc1zf9/E0JJGIMAyjIIzjmEnFOfccRySJZzt3nnv+k88+ZykIR2MOzOPe0/u3RCJ7x6fRMHj7zfcePni0s3Pt5MkJQKYp25br+2hWH/VPGWMgJZzb6gFQG4pfJjachnTQHIaZnFM6LxiFk9dz+XL0mOA5wkopfdPmfKFzEOkyOWKqBQ3lke83fXsXCbOc83EQ4AZR7jqMsXEQDEbDhw8fAjApJUgFADazbW7bDrcsy3XtMAxFKu6+/8HgtN/vnb7z1jvj8fj9d993uPXum++02m3G7CePn8hEnhwetbZ3UglKCaWUBSClTJJICeH5PudcJLFIE/LiMTYHJ8M6YpNpqFCPKGQi/KqiXGcHfaDoV5JwdHlRqKKduOBTgnc6MHq+0DuNrPtkh6redbV8EFHqBlqj38iTSA+FMT6dbjtM4lQIKVLFuG3bIBkAtFrtNE1lKpRktmXRz3v9QavbshJ4/+4Hdz+81+52xmFwctoLRwHf7gLwYBzsP/X00dFhu7sThmEwGIBlcxpb8EoAACAASURBVM9ptVqdVst1XTQ39XunnPMogCgMaSRIKdnVMwzBZtNQHmVMoX9bUZ7/Cs6zUhmDTFj/JOX0COSoXpA0pEMXiGjCL/SOE4K6xcpQKPOCJszqkp1Qcuf6DhsOhsNxkiRgKdu2O52u67qpUNKRIkmTRCRJksYx1hAr4dm2AgaMea0WBkNHx8fO9rbd9ve6O2E4jqVSUlnc8dssES6qsUEQxOFYZSkftrod6+P8BJgmTUopeS36ddm4QjRk8EXhel5WfuG3Fcw1SQ2Tl+tMqrTN3GVtvjx09tE/w0rDF42eYVmQd1l8ENEQiXJoIcLTCpG8kjgOgmA4HHHH5pbjOI5tu9yxFQPb9RzH4Z4rLBmlSW/c67Y7rWvX7n/4YbvdjhmzfPf08Anf2hJJAuEptFqhSNIw5I4thDizAbGPT+wYjUZCCJmk1P6skTUSM5eGjeVeKSWpLfjiMbIWs3ZKDWpigKatsMxfLrO0nqpyT9Dkd6H6C+H7PuZ5UEr1+/15RS3q/UYNZoxhgAwaL6SUnU6HEhsJoVZIQyw7EBz/jON4b28PcyEVgpIQ6OeIRVG0tbPt+N7Dg8d+p40s5rV8hUFJoMI4EhLAdhKl+kFw0DvpxdFxGETcGoG8f3IkPPdoOOz1+6ljw862SBKQClwPhEzTFDxXggIQAAJFLcuylBSQJjJJWq1WGIzIPS9kwqyqYDF6I8RluL8Mg6HwpeRDFtYCV0gaMlAmgJR9S8upUUIMNdVdLl+us94caagCOh1DzZbuCaXU/LdPnjzpbG9hDkaMclRKSaWG49HRyen+zaeG46FtO+1u5+ToqLu310sCxTnjXLiu57guMMmH0G6JwRCUgk6r0+54nmcBA6k4U/vb2/3Tk8PDw7DfT5MUGLMcm7uuSFPPc2zHIfqobiqcH2+1Uo0vj6tCQ8ZEVTlrS/4rdd4fr9s7ITcnC++4CAsR/YkrvDyfYn2hUOfzTK4ceaVM/7awP89zKADAwcHB524/3W77QRAIgXHMkjHGbL5/88YgGO/sXpOcHw4G3f29xLKeefbF9u7OVqdjc+7ZXApx7933+8Ho8//7d0UUqiQRaRqOhqcnvUG/H4SRLWUYjJVS4DggBGQH/HIr03YtBQyjBcCyLJBVfUuvAPO9reMhHIW4EjREC4jBKVDONTrpGBeo89oZTUvjJ/l65lWOKyFu0V7yHiJ9KV7C7SYBtocsPtX9D5r0qpRiAFEUZcp76DptsFiSpn6n+5mXf+ut997/ypdePR6cArc/e+PGB/c+/PRv//a7Hz10Otu85Q0HwyQVSorHR8eD497rr/1fCENIUrAYKAVSggKwYPT4I1AAnDPbdmxbSpnGMUiZMhVFUZpGuoHNsiwpLwiLpyGHe4/n36GrwIY8RgX0sZhfGAsNwFCyhBJYFpVrKCl5CWu+opD+Afd5LU0aMjqqDjSUl4aq+z/fUUopz3MAZBiGUkrHw/Pmpd9q9Qb9Vqf963fe8tqdcZz811tvue3O4Je/hPZWbI+jJB31Brf2927euBm+ML65e/2X/++NBABEAEkCaQIiAQnAGTguSAFSqjiKUYdlEizFLE4tR3ebUkKpC5QslgVbQ5EAuL7YWBoyJjMtgFAeB1SxhJYJRMbPlyAKQSYNYRwwhVMvmhdokjPteJyF3rEaBtFQewqJGwpSRyqUhlzXxZMUMbhZKCmAWZbl+e1fv/fe5179X73hwNmxX/rCb9978NHv/O433r//2G+3W55/4D1qt1pBEL3/zvujk+OkP4A4BimZY9sOZ9KxhOKcx2ksLCbRWSYVKAUMgLEbN2602+3jJ1yPMxBCWFCc54geU5fB67AYzAUbS0MGPpbDcxw04RJaKN7D+VFeUc+8ynVpCJWy5eQ/z9PQaqdAfhJO+B4NmUikqUrPQtIxB5BlOVGacMfe3bt+8ORJzOTpSfDW/Q8TIe2fv/H+vY+2uteeunEzGg3Z9d00GH/4zrswHAIApBKEZAKUFCKOFIYOMAUWA9tmtm0pNEWnoNRTT92Aj2O7BfrLGGNQLtoaurAuia87rgQNlb2t/FCuWGEMujFEoQtrnle5Pp3yiuHiwDJonxd9zyoUasr6t/n2FfZSFCZKMdd1k0QkUQwMHJulYRSOhieHT17cvxGKxL9+7cVr10/7/f/9v1595ZMvgbR8x3n08EHX94bhmAPwli+iUDKmlASlmJIO55ZtW5xHMpUgpFBKREIysMC2bdu2u91uguEFQuD+kjOxqNI0RGHi1cNv7bCxNGSI4iTT6t/mr6QP9Cf9JE9AeWmoYnbOa9YmSbKzsxPHcb/fl1mC9DkKRHr2LCnl1tbWaDTinGOeecpbiomW5VlKjBWATmqjBlP6oUJIKfEEIZR6aBuXZXPuesEw2NnZ6Z30fd93mLXdau21/M8+91xw3Ou0/TSMDx88Uhb76f/5P6fHp1GUMAW2bSdxeHz8hPV7cZwwJUAKAKEAhJIpKJAKZMykAiYtZTELwGLMUiDTNE7f+s1vlJAtzx+NRpzZSZIwsJiyVPlmDiklHiEHcMZl+DiYkES/cu30tY2loQkxL7Fl0fVTOdMOaJy8GZOD6JXEn7UQ/vXW6uXUb5SgWimFDiac1YrbcRxjQkWllJIyieNwOHzzv/9nOBymUrm+L0EFUWhZlur3He5DnDDGbJCQRHYcW3FkpSkweXY/pTDJGTAJChiTTAFjChQASJZl8hgNhuoswdDZSobSUAWTbjA2xNI+A8qMBROWG1JxXki+ZP1l5VZ2MvqCxisRnC7Z1ZCGjCax3DGHZf0G2YTHr5jNgzBUAAKUZVkyS0U0Ho8BgHMmVWoBa3l+y/MtYCJJM6+WQC+BEEJmIdqFTTUEbQQedU+7hfOWxyuFKycNGcrahc6p6uuNCmeof9pyWtUXREN5aWgRd7k8VC58CWmoov+pV3F7h23btu8JzoMoZNwSUgK3LMsCFDYlYH57qRQoyTkHBUkUc+4oJQE4klqaxkQlSikABXgX9IhpVmeDjHCXDMsS+y9uXVkLXFFpaC6iir4AGovhgkQhyA5N1mlovoYAvQGGmaxWyPe2fkp9vt9kdmoFy2IdbNve2trijjUMhmhiUyCAnaWvlmkCUjClRJKKJFYikWmaRBGTylLAgTElZBrLNGVKWUwxmf1TwBSAApAWy9qYF4gwDJoOd2XaRuUriKsoDU0lkpRdXyg/L1oUgszGocvz8wUZg3SxqIZhcga/kFJW8b5IgCLtzHEclkbjMGA2l0oJPN8VuFJn21Aty/IchzHGOLeU5XBbggAGCoQUCgOOlEwt2y7b38eAM3b2lU5GtH9Nb1sN+3k5uHI0BEXMMnM5aNRTOAEuWX++nGWnIS/IjkA0RPleaz49qHP0/RyF/YlPRKpcHMdBEAC30jhqtTyZpDLlSikFQqUCJIuTlJ350blMEgsY4xYwphhIqYQQcRwmSQRnEaQXCDKFFiJ8iUae7Pn2z1qgvsNroSh72dOWL7r+fLkurUzVpAmh6zWGXFYr5JWyaps60Tdk6huaojF4utVqeZ7nOA7xl+d5nHOLMce2GWNKSApYR4pO0zRNU5WmMM27oBbiSa1G5uzLdMhaY5NpCEcbGgLwHVPSmcmh5yQCbcRT0iL9jhX1lDWy4r50R5o/aFCI4xjjfTGKxNY0gssDw7Kx6/B2aDexLAsDlPDBHccRQq1QSKLN5dQndII7FPFmmqae52EafN/3sQM/85nP7F/fjaLg6OjQdiyLQ5JE2O1RHCiZKqXiOE6TmIFioESSWKCkSNIk9j23d3Jsuw5wS8QRCAFCgJQMgFsWtyxQSqWpkWUNPWtCCDzfMU1TPGPOdV1ipULgY+KowGdP0xQ/4Fd65qkaLhvVuEJKWSEXqIvidFTJFvxp67lkOUHnxEWsonm9oLA9NR/oKqeXoa0HKRWPlmy329vb28OToNNqO46ztbXFBFNxagkGoDizwAIAS2milgJgTDHGhEjjWCkhUinxDDLLcSDbp4qMYFkWWFykCW3UoL14jDE8hDIIArRS09acmnfsgrD5NKRLMfokz4/U6nK9NqNkcZagwsfRnbsLWv1UTh0zuFjXgOoAbA8ZfZnmuddfGR67TCHUSZJ4jnt9d9d13W67w2KRBGMRC6ZYEp0FFiqlFJypToqBrSylUiXSKA4ZKIsx4BZjLI3P4pulZXFuow4opbDYueYRDaFog++R8kYppZazQ7Bu2HwagvO+EizJ2zLLysn2bBCQIY9cWM+015dNchLsoUhymQtIMTTohgpXvr1eB/UV007myHMQucZQ/QGA0Wh0/969XjCI08Rz3JE/iMfBeDBkysLTqLFyCQqUpc7YRHGbKeVIKfHYeEkno2VWHs450pBSSkoriUNK88o0xHEssyO581191XAlaAhBswhmdYoVfl6mKAQAIoPeGJIC5gXKSZrfUgeaMVjV5pwydj7XR+G3mLsan8u27TRNHz9+PAxHzGGRxQNuc+AWMM/3d7a2UXGTkBEZY5IBY4wpoZRIkmg8HgqZgFJnr0JZAKDAkkIILrOMHGjgK7YGnAUEeJ7jOCgiNTS0aTDWcDi/yMPEcToVZDRVPZe5rw49drFM9bgkDLHRaAnTEn2sloZ0yjaUMsh1jud5QRCgIIk05HmelGm71fI8J0kSmaSMn4UlKqUGg4FSSjFLYQ0WA4sBSFDC5XaSJEEQOI6TxDGghiVAKQUKWEYojDGloOV3GPs4/IqQmfkF59x1XZUdOXs1mWhjaagCU4kkFdN7+aIQFNky5ysH6VpkPhKHrtEYc5XTRmdM0KTCPEHrq1Ecx8hETKk4jDybyySNwlA5IIUYx4M0DhOhAEAxUAzAsgGYBRZjigFwzlzXtm1rZ2cnDEPX9W3b5pYjpUTtyrJ41j8SlAA4e1nYn/h/kiSu65IPFM1Vc5dq1wUbTkP0UkkUoj8LJ/wkRDDJ9fMqL7wSV050pS9i1Bp15uXB8wxYi9WbZeYh/DPP7GiLQYsParUYxhElUbfbdrhr+Xxne1spFYah7/uO7SkGjDGwmGLcsizGLQuUTGPfd8MwPj7u7ezscM4dx7MsSwqivDMFCwCUsmzOAc4dQoXiGO4moUhUXFfQeb+yTlwdNpaGjDeNuT5nSCFOckehhlV438LyMr6oYB+0ZeAj4JF+vu+jsuA4DqpmaA3BkT3lkxXDskCIxHE4gARgrmunacyYsixgTAmRAEjXtQFkkqSYTH4loFfAst2hSZK0Wq08h6rMfOa6bpqmLDt87fbt23D2XiTAx7klPb8NhouQAWMKpAAA323FYTjsj1pee9gfOY7LFKRxYlmWxYiT5dl2VgAhCkK68A1SLCX9X8FBQgjaXxKG4d7enhAC4y31fEOTi9W1Ql38HatCGTtMK2VMW8+E5SqLY9TMDebW0ysOvRPy/rt8fxaVW2XXn91CAWR7VpVSSlULofL8v/lj84zZV5eGSkZkQXneuDBbPTOUqyyMm2VOK0O7XBrojjQH6jMTqCU6DVW8PuND4fUV9ZCnUpeY5v5QZaAFKd/U9cWVoyHDQqQXlpWXVTJtPTPcFwc9SUNK21yCVy5tYdTbWavVWOcC27Yv7E/9w2zvhWhomcFT5S6CTcCVoyHEhEsffS4jpqnqmaGcSsgGpG9kWyYX0MysDwHlQba/iveYZ5+y6wvLMWCCaGhBXoI8dKMPhWI3NLSumEEkKftzqnpmKNfVHxxzuCFT/9XSSEF/9lpJQ6C5yVAawsJ8f1K/5T8UXl9WvlqlDLTUKw0NrTEmX/ros/FVYeFs9VeUs/OQUqLX2SDE5YBuWjcO0mFMzsJVpPBD/vqKenQaWlpXNErZBqLs/U37XqetZ/JypXnHqEScT72+TFNxPUe8IaORsebCfi5jnIr6qUQXV2dr9mVQ52VgZmwsDSmlcN8QvjbMuYnnsZRdX4gZ7juXemQGii5RSoVhmHeUzF04YlmmITJIYTdCRoWdTgeDVlaYO5lEM/ofoxP1/FB6z+RfB34ou17PE0SkY1lWkiRxHFOg1jIPzlVKxXGslPJ9HwAwDg7F5FarxbJA7XXMFrKxNDQhai4W6ZMt/5NFjLY8qa3R8qu3s/oNFoo5F16gik6IW763fmm3WxquLg2pi+Rz44O+is5Wz1TlTNsVBZpwVPjbOQ5NXTrAQV+rtB6EPDWjiRo/6+WT9H/+c5mMiQK17rfK32IRoMFgGIkWfd/loHbDa9EwBHW9sKy8rJJp65mq3Lg7bT4qa9K8YNzCsE/VDUZXGHFDcL4nL+x//Xr6VrfNKaUKT4hbGg2Rq37Rt1syrhwNIaYSVYwRXLiKTlLPVOUsS31PbrLCE/XmThNGw5ZpBZ8KRpNUlkVIL8mzQ1n/568vNHvR5j5DCFoODeXfdQ3fy2y4cjQ0raii/7CagGYQearvq84rZXqq0MI5tggs5y4zQ+80xpjjOHrX0VcX9n/h9fklAQAMGkJeWA4NgSYNLW0ALAdXjoZgelEo/1Vh4Wz1l5Ub0pAqMo7SlXNcFfO1rcWIxxaix6pwtYAJ+j//lXGZ0vbWlNWwINCa1EhDm4OycTPteJq2npnvuzQuYIwDWIyhB/rjY0WXcOsZYBC3YUrPN7v6QfIyUf4CXVlbfrdsDO8Y2Nh8Q3Q+J4a9oDSrlDKSK9N7LQuBYVr6vku2B84Po+ohZWgEZBnVtxEsgJssBlxJJlJl2wyUZVk2Y5wxjqfgoCzgeR5Fqcz17lMAcwxhaJht25hvqMJTVtbbZblByCSHJifLsqIowuMV8xcvoR8wlzYmVHJddzQaqSxbI41tpSXMXC9ssjQ0ibayfLFoqgWZPixXM2IAgDnez/6vHwrf7IX5hmYrp3VoheGaOvRG6ubCFTbpkqjpILs8Loxkm9aCU4YZLE2TXK+v4UrDJE26UqAXzRjTRZXLW+j0F2HEba0EuqRjRJOt+/DYWKXMgDGT8+FnZeXV1ZZdX11OX1VcbxBWmX36yoJl58fpJeQpm/y9VFyvvyzI5vzSHjAPlh09Qs2QGlS9c7BUY5OlofxbKVvxKi6oxgz1FK5aZQ3LL3qTtOoqwJALIKMh/DwXUYjeFM58/Xi4lSDvqq+Jknh5bLg0pJMRDanCpa+svLrywusrytX5qNzq6wmNNFQB6jQ8PqDiPU773g2NmLYZrwQs21WDXgIsxDMRNiC0+qpIQ4aOky+sKC/DzEvuJO0pVMoaJspDf8voKbu8KJSHyvbiz6PJMyIfKqkyNxnLsMLmXQYbS0OFuHDATTvPZ6unQikzQEJ4w0F55Fl78nxDk5TnFbSV0xC1hz5sAAfB1aEhihIytJsLh5f+7g1xfaFgGtI0xRw3S8hro5QSQniehx3l+77StmsppTjneOb6oltSDTzEDbJAKsjyDZVdX5ZXqKwcI87oLlEUJUmynLxChcD0T1EUOY4TxzHmFWq325Zljcdj/BPTIbE1zFF9VWho0Zh8mZ1QUDKW4ks3cDrUXwQzTNQqS0tmXDZ5/1eU16ErWBFW2J75oqGhC6C04JH8n/mvqsvLPhder7vJ1HkH/+KgSkAXkFy56JZMCzZB3NC0nxF1cFPqyhdxUG0XiWnR0NCkMGaj/qchuVxYDhqdlV1PH5bsJ84v+2VMtFoUurcwbmjm/jfKqaQONEQ5eaFJiX81YQzKmUWhwhrKrqcJpp8DscJhh7eujzqQV8oA4MK4IShXcgvLWZbbQHeTrwS6vkmPvDFxQw0NXYALh+xUopBBYRXX02VIQ0ubA3mWMdbeQpv9yqFLQ3oJTNb/1e+lDtIQeev1Njc0dIVgCOqFAz1/fUV52WfjeqadFg3LUoUKTaGGIFYHaQiK+tDINzRt/xufDcJdOeeq81h5HNMc0dDQpVA2NKuHbP7bipJCiWnRuNAdUxMmMnBh3FD1t4XlNeEgEkgNMW2ljZobNpyGbNvGSArbtoMgoJh3WkzyYSP5Ncd497O9/vyU1u+SvxKbKqWM4zhNU7ym4py1RUBpe6k451EU+b4fhiEemqZWupcSXys2IE1Tz/OEEBjlVIiy/i+rnzaRUg8opWaIG6oYWoWAjA1pBxljzHVdpRSeDRfHMb4Lx3Fs28YgL/wANfZjVmPDaWhpKBvQk5cXlqgSfWE50GWiukXrFrqKLpNvyCghRqhmq7mj8LnyfU4vZWkNWyg25DFWCFWiMU1Vnv/MivJPL9k8pH/Wt1DWhIkMsEvkG8p/phJ6BUt7aqMBunHaeBcNDV116Iuk/uEy5aANQRx5RgL2Jc9/XcLXBaLlt6SsbUbJhHFDk/S/TkPkIliaWJRnIvrKeB3Lac+i0dDQpTAXUYhK9ELcJaS76tVSbDGFakgNh3shDeVzUc/c/0g9anX5PQxpaPkNWCYaGpoR8xWFjAUZGWcl6zDZ7EkZoXbq1vqltacMug2FZumFcUNl5fn+p8enUyqXLA1R2wwaogavPJRpjmhoaHbMSxTKKwWwOtuQPgl1H6LhVVx0My5E3u0Fl843lL/GoIO5PsEUIAud8S4ah30DgHk4yCq+XcmEVxr0Jsl1yLs+c76him8LJaklQF+Qylq1MTS04Ulg85h2JBmjgcZEWT2GOfnCJVTlco+SQ0q3DeH/nPPljDyWy/KXJEmr1RoOh2i0wuYtoSXVsCwrTVPOOWMsSZJOp0Mt10PPK8wr+XL8OSUzwhPiyOpUhnkxlBACW4u8TztaqVV0KlkURaPRKE3Tk5MTlR3AhyFda2dLaqShxWLm0akrBZevbS6og3pSjckbNom4VP/n3Rg0NLQoXFKSr5vmX1tdTBc/J4lyntByZLgI5tjgSaC0ECHQCNHQlDcGDQ3NGYWmhBnGDTpo6sNEumhQK+lAb0+F6lT2Xirel1LKOKp7CQ+u30Lfe5T/v+Z2uqnQ0NBCcHmjZq3cUqAFE0OdNi7pnaPHDV14fbUoBJo0lDfeLRS6cEcxijUZA4tDQ0NzRtmSO209KA2VzZblo9pxsxLkDTcVStlUopDK4rZ0aWj50KUhvbX1WZzmhYaG5o/Li0JQS6m7Vkxk2I+ROKptQ5OLQghjN9kypSGyDeVvfcnlrZ5oaGghuPz40IOY59Giy6ImzTBgtGqS8IjZylfy+HUzwy0OGxs3hClySLpOksRxHAzKqP7htJPfuL6s/oqBjms4yv+O45A6gKYBtFAULoyLAGNMCOE4tpTScRzHccbjMUavCCE87+xPKMqqsUwYU5Q6x/f98XiMkhGmZ8KcU2Q2mtCwlSQJ6sX4mBiqA0vpf8MkhH+q86ArMbIJz5XDMb+c8+zmi0YaWg0uHM2FF6xcJFFF+cNqBT3YDzFVT1aIV8vp/Hq+90WjoaFlo1DON2wQhT6y1Y5FpqW8qXOaG4yoruirCS1EKzEMGagz3c8XG6uU1Q15eyqcH/okaKjze0rhcmvyvIYy6QU1pyHbtnUaojZX93++XHdT6i9i0XykjwS9cLMpqb7jaSORX4r1kU1zIO+tX+GabDTAsqw6mx7QuGawBs3hyZ1llHAu/9vloObK73zRSENLgr7S6pxifNaj5vJ6GaxOGloXpYxyfZBFmT5MLgrB+XBNWCIHGWuP3u3LacBKUN/xtHkoW4qNElV+Pt8KpaF1UcrytqFCFVj/SWE57SbLrxnLwWbzjoH6jqeNxIQ8Qgs4/lm3EblyDbECeU+ZjsnLC0XRJaDwpvXs6jliY2kIpwpF3FAkjqHs6LGq1cBfXZj1TpWg+nr6rOcepXJ9c9O0KGtPWT/kOwQvw3PBfN/HE7IwrKZW0wPFNNd1MUYM2+y6LgAkSVLxQ8rupJTCz5T4VWV2OipfzlPk0wzhU+AYSJJESolhcY7jpGn60Ucf3bt3j1IOLbqRc8fG0tD6YlXrsAGDmombytiqJphQYazu4Tr0/4QgbbGG72JyNDS0YtRHHai4uzpvImXZUVnLbdpE0G1D1GZDuDM+EEjZXCMaQqkNpSd68DVqP6KOI+kKgmle4ZpMA2OBzdNQPZdf3WEP5+OG8gSU72pSvZfZ5ssAzQ6cc+M4gPVCQ0MrBs0EnYlWOA30caxbl/SG1ZOAELZt0/6vvDRUKArl+3+NJjPas/A8e5h+R2RN0NBQvVATaajQSq0yC/0KG3YhUBrCz/qHMlGokINq/owGkIYcx6GSOq8ThWhoqHZYuTSku8/yX+XliFrB2MwBE8QNGajDMjAVLMuybRulIXIjrLpR06GhoRWjtiO+kIOMPbc1bLxhw8qbfi6soYYPVQnLsmzLsuvpMZgQa9z0aqgs4AKnDcZiGIukKooDKis3MK9TTCmjEP4phJgkKdIcYTwvusDiOI7jGNuWJAmej4aHgrmui5mbYNUphwrR6XTCMGy1WhjohNZ0TDxUCNu2VZb6HrL+p3Cz5bsOaNwihwoNcH5LDQAIobjlxFE66I/u3/8IFOCMXjMi3WAaqjnKBIqaLMVGZFBerKgtjBzyFza78IIVKjXTRgAppcIwOj4+Pjk+BQAlAQCEWCfbFjQ0tHwUzhAj4nlFTfu4JdUxinUOlsMY4kLbUCF0E3VN+n/CQoRlWUmS9Hq94+PjJFF4YW3fThkaGloSCk0qJGDTNCjc0bpkFNIQTdfCUMD6oDDRRwUMwlq5j4z6fEJCRGtDmqaohKKWzHlDQw3KUa0s1IGGaPTn50OZB61WIE+Z3tXV0pDuStP/XAmM8HRdWCsEpgzHp17DzWRnaGhoSSgThQqVghUyUd5WZTTJMNwuu30XoSz7Ytn1hjS08ifKK8LVnJgkCZnDGAMpIUkWvv927mhoaHmoEIXqY5tQ51PQ1qFJU0G3DU2ulOm658ptQ9OaqJVSSZJgFgHG6rg2XIiGhpaK/BAxNJ2VjyFD/6JCY7rWpLV5THgyRyFWzkFQsgu32kQNAGmaYlACY3WMorgQ69fiCUGzxbZt2oU8SZ4g+jli5vggvN74eR60B4pytU0imgAAIABJREFU3EA9jC/UeAxawSDd8XiMR2Jhz9QwtU232w3D0HVdznkURbZt04FlZVBZeE6huIrDwMowr3ZSnUwLBcLQNiO9lMrCmmzbxmAuzKZk23YURZxzzK908+bN0SgSoqGhBpsC3U1W25wehTDihuAiaWhaB/nKYSyHuCTYtu26ruu69VsXJkKTEn/1ID2oDkoBQRcBiIbyBtS6AU3U+Dn/oQK6iLqEByQl9zI/pwGDNOQ4qAGAUlDjV1SAtVnlNh414SCjDSQQ6X/Wn4byT1H9q9WuAbrsWXZNRdt0a92aopGGagF9KV51Wy5AzWmIwhfJsAITuMyW3/8z3MiwKmIh+QqEECQE1fj9FKORhlaM+kQM6e0hYJP0k5TXhYYgdwBZNVbe/zNIQypLLJk5ExbZvkWioaE6og7zXGluPiPpYh2aVwbMRT3VT1ayBkyrNhb+CjQbE8t2cqwj1rbhG4c6iEIZzgn/eh6SmotCcN5TNglvrtxTNvlLLxOIABRjjNvMsgAYFs6xgcvAxtIQY0wI4bouTiQMHpnB8WyoIWpWlNWPTdK1HlhlWKBklpIqtR1LgXBc7rgcw3CEEJZlCaGSRGxt7aSprKcXH8OaAIAxlqapUgrTJ9EFOrdSfiX8imWp/iv6n5Vg2nbqpnS6b0U9tm3T46RpikmphEgUiFTEjsvjOAQGQggcQdO2Z7Wo40hqUBPk7UTrJQ0RqttcGyH0AuhGd/g4H4BkTAGsWYIhAw0NrRgrMUxMgjwHlX1VK2C0N2JCyzSsAxMVEiuKqAY9Qb1fUCEah/2KoY+eOpCR3gaSfcqGeA3D5HBzTGHK1ELMaxkou8UcX6h+C3y0NE3rL59OgkYaWjEKp8EKB5bOQVSSb15th75xXCLiQhoyCmv4dAaZ4j5EyvKxwobNBY00tGLUViPLc03eNlRDacgIX8TCCqtz3pMw26xegjQE2YOQFkanJ6w7EzU0tHrUyjxR2IypLL6rRf4Me5XF+JX9pCY9Xw1DGtJtQ6tr1NywCc+w1qgVB02COnMQlJxZVK2UwVr1vw7cXr/qVswBGysNMcY453Ecc84xJwueujWv1aPCkaRfoFtY4Lxegx/Inkq/QkfsoocXSQqGMQhbiMmP8Awv7ENMPIQRWI7jWFZNR3+73cZzyuI4tm0b5YUKtZdpiatpbMzAShX1l11PN6XYpWprOmjKMqpjtm07jvPkyZNr165h9sUaZoCaBBsuDdXE7nshVmIeyndOnbtoQmyGklINWtLQWZY3b60dNv+dQb1nV32GzuS9RMbfGvZroeeoJj18edCD0AcUnGfYSVcrbKxSVogavip9ZVtm8wptIoyxsn0ATMMy2jcriIYMt1fNmz051PnjjJCDXNfV872tHTaWhvITrJ4vSZell8lEGyMgGOCc5/WyDXtYXQVD4xcGba66XbNjY2kIYag8tWUiOM9BS27neUnn4szNWjuX0bypQOqJ4bMvm6XryFA6DaFtCB+T9vRWPG89sbE0VOa6qhtWaFk01JZq6A6+xTbrcijc2rqOXHMhcNig89eIllq7591YGloXrGrErN1InRAUYbzqhiwJjHHL4rbtYmAKFq6XKAQb7CnTj82jlVxlYTt6OE+hv3Nmc2y+Qt30Q+2hNEN0KBX9HJbCEY7jgKYJYuyS53lKixvCcKEoikgOwnLXdQFAiDpO9Xa7jSeOOY4jpUySBI24xklzJErgxca7rg53LHu/U0Fl1mXdtVdx38LxLITqtLekgChMtrZ2RsPownrqiY2loQbVyGtkhWN37cSKtdAcZ0D+RWBJFEXD4UgpNeiPfN9LEwCAMIzzNdQZDQ1dUegWcV0cKBzua0RG5CmbyvK1RjDeBWMMz6QdjUacAx1QvJrGzYrGNnRFobTwE8i2FBiTli6Y4yaYRQNpiPINlXHrhaghf+lPoX/GFL1SSipznDWjofUYWw3mDsOrQuaqvDVNnSUbXQ/k44lrSCgzQDca6qbGIAg8z0vTtNvtCgGua8VxuuK2To9GGrqiUFpoCX7WdTTjynVUymC50tASuojYR3cFSik9z2eM+b6P+W+FEErZ68W9jTR0daH7tsvcgjN7glYFlIY2bw9HIZRSvu+naRoEwcHBARa6rrt2D93Q0BVF3tJZITisEQ3VdtfOJZFXyhCe541Go+Pj47fffjuOZRzL2uZgqcDGKmUou+obHfXwnOofgvamy8Y0mXj12VtRv3HioPr4wF+Rv8sSJpIhB2FfYTyuUopzHkURfjsej33fz5+YqJQ6O52vTojj+ObNmx988AFGOQFAkiSu6+Lbx/3oLNv6MEeb17SvjDoczgeUVdevR5zhn71e7/r160KI0WjkOBbUcofNhdhYGqonjHG2QinDiBia2YZSN7iu63leu91GihdCJElCJ2Xqx+kg1l10wqRu+KSrbsvsaGhoSWC13OhU6BcrvExfses8dRljjuN4ngcAQgg8Qkd39lH76/wUk8O2bQwWF0IoBZZVx3MKLkRDQ8tD3hVVB2mIaTAaprOS3tQ6T2MUCkjqcRwHJ2oQBPp+DtLZV93eywL3qaRpKqWs5QuZCA0NLQn1lIYQupECcnYupQHqyj4EEnaQjxzHQbUFj35HBQ33ka1XWGYZLMtKU5GZigCgkYYaVCI/gWsiDemG/DKPjG7NrTMTZRn7LUrSDABKqU6nkyRJFEVxHKdpiuJDhW2oPovEJGCM0QaOeroOqtHQ0JJgSEM1GeVKSzmQl9egyFpUc9sQ5DamoAUXBSLHcTjnaDNCyWiNAsQLobK9OLZtA0A9htXUaGhoZagJEyHyYQe1VSEnAYp4qHMhk2K6Epyu6MtHsWg4HK66sZcC0VAjDdURZEbVPSOFVlj9+slh2ErKrLaGZdfwFq/QYYz7PzFECGOFpJQAlkgVtxyRKs9txVFqMTtJEnwKznkUBVEUdLttIUQ9t3EnSbK/v/+b3/ym2+0i1yil9HTxaDPCQjznK01TVNbw8C8UpgyLGJ0mhtvZJ0cZfaPwgqgI46Axg23D18Q59zyPMQYQJbHwff/4+Ljb7aYpSCldb/2sXRtLQw0mhD4HsglQvLksf30NYeiMZa2lBQnVNJSSSE2jOCO9NlTuFv8ExYsZCnd0XCWeAErt8X3/mWeesW2Qcv04CBoauuIoE9/KzFi6XLmUBk4NQ5yBogh1KldaCkSUjJIkwemNAUcGDS3zKeimCKJF27Y9z7MsKwxDFGABoNPpfPrTnwaANfX7NTR0RaHP0oqZlmelOnMQnHf8QRZkrM4nV9KZCJUdnN6cc9u2cefHYDCAnIW+0Ip/YXtmeIS8iIrqs2VZeCQZZGZpKQAAfN9/9tlnp71RfdDQ0BVFnll0qxnTTnbXobvVltfWaWBIQ3o8FOREIcgxLxqM8LfkUEMjGlW+6PYXlqAxy/M8NMnh8WSe58VRivbpdrudJMpxWBM31GD9YCy8hUoZCRRrQUN6HlhsKu5ozYtCAICkAzle7na7aZrGccw5R58ammampaHZOop2ruq97bouHkaAEU8oGaWJxNwmcRzbtr12PjJEQ0NXFHk3n/5VhZpWWwIi6MKdYa42mEi/WJePcJJzzn3fRzUNbUaUEWGhjdftQcSquCsFio70QPloOBzu7V2HZod9g3VE3gwx1U9qCBIfCjnUKCQnPf0EZY0oitBU5Pu+UgolIyEE2owWCj1WAJ8F9S+VxWHiUdEk8WHjgyCgCAop18xWvbE0pLR8QyrbPZQfhTPPqLwEUV2h0k6/wEV1tfG7tN7SDCR/cJoKx3HiOMZvx+Ox67q4FQu1G7y4nqqZUmp7exs97o7jjMdjzjnlG8qbnKHEE48ihh4l5DiO4zitVitJkiAIgiCI4xht247jYOcgqZGoUnjHQpakcuxY3LCKX2HqEtoHBwBZAnzlum6a9jnng8HA932lAEMX14uDYINpqMGFyPNImWQ0L+5eAgzTVeEz5vW1yYGhnr7vo4SCjIDcUZbPu+yO+QbozgHGGBIfHTRS+KsK9XmN0NDQslHogVoJylZmA7qpiK6vOROhpwzO09CFTzohUM7CU2HjOA6CIIoiVJQgl5sp3zbDXIUfdC0MSQ39Yni4bj5mPf9Q2R2hFmNrSjQ0tCRUmIFXhTwN5RuZJ8166mI6dO0bW6vOn2ZhzOGpQNo0Wo4YYxTxSBquvnef7q5XQl/lxU+0HhAHoXamnzWi18mYSUOwnibqdVMi1xl5Y8Fq5zPTbGdlMoKxtuuAuioC+TOC8vYgmLXzZQYkArRht1otyMzbhq+97I4VghJaoDBUmijPqK1CGoI13GffSENLQg11+Lw5w1icqy2stQV5kSAnGUHuMad9FsPRgRYi27bRhG/kfiyUv/Q7lsUHkRxEno28uIqXG0n11xSNNLQC1EQagkrftg5Dglt5s6vBtBNodaWs8MrZKkfxRA8jbLfbruvSvdCUQ47FfCXU7XRgDGp57XbbcRyqh87h0Ls9T6ONUtZgItRt6hbKNdmfxblQjMvq9kQE47nm205dKqEk0EqpVquFXi2mnfxTHZOhy5vYZsuyWq0WykHkuWfZSUfVNQGTAGsaRL25SpluI1zyAl6oxeR1nIpVGhavu9FCTauulDJJYgUCmLQdKx6ErmfHSZimqe/7jLEkSYRQjuPZtgsAQijOazfq0zTd2trCiB6VHbi2tbUVhmHeQsRycWTGBRXl+qBSSuFxIJhnFhU0JJEyyxr5+Enz8jzP9339h7qgRPXQKLIsizHVantJGjFLKSXiJGFMpWnabrfn1qFLQSMNXVGUSTR07tXZBm4pAYDmcM3lINByUesWoiXkCUKfeqvVwpAi0tegSI1VmecOvWCe56FBepJ26twHAFEUKCU6nVa/3/c8x3VdDLBcwCMuEA0NXVEYizkVQqZr4F7zMAyJjPI/rCEYYxhrQ4aVGVImwnmNqdBab0AIgZaddrtNm7/Iha93NRG6ymIUfd/HzWvVInAhnbVaLcw99F//9V8AgGmS1i7BdkNDVxT6LiosIQ4imT9JksPDQ8dxcGO3rlOssOXVwJZTag7cnrIEaYi0J9TOKOM1nBchqeuwYbhRw3VdfatqNaj/8TWh8DUYDPr9fr/fRzkIT4tcIzQ0dEXBznvrqZCC5ZRSvV7v7bffRjuLfk2daQhtK7gNFSnVcZwlOLNREUNhxHVd3/fz9KcbKwHAtm2MDyITlZ6g2oBuYKISpRTmYLRt+wtf+ML29nar1ZpB9Fs5NtZE3aAaZRFDTHMSn5yc4GYFlIZgTeKGOOeUwhWn6AyVTPuMSDpoUyOPOwllBNLRUBSi+CBk/wmTGRlMhGapl156CQuTJJntkVeIRhq6ojB0BMOLRKrNycnJato3KzA9EJlyUPeZQRpiJbjwV5ClZ/U8r9Vq6UYlrAHpptVqIVlQBKNS6kJBJi8NoXMNb4pJSNZOI4OGhq4y8pOKaYEFaKIGAN/3cWLDmkhDruuSWKHO7yabHDPQEFEMyw5EwyRBqiiAg7Q2SngEF3n08nfHp8OIChJvLcsKgmDa510t1kx4uzzKRtK8zAd5awtpB8bCCDPFrUwLXdqnOBSWxcWp80FMOCXSNMUUFkIIx3GiKLK0gy6klK1WK45T17VrmPZYCNFut9FSE0WR53mj0ajdbidJQrMULrG3puy9sGxbv8rifTC62vd9TNvIMruy67rdbldlKe71UWE4JfPtJEM4YyyO49FohC62Xq8XhuGtW7eQmHCP2xqhkYauCubCs/WXhnTjC+qVyzlcrFDkYYx1u100QhMr5blmEhT2ORn11Nlpl+uKKycNXTXQMIUib8sMVdUcJPJgAkm0tizTXMLOG93QdoPZIFG9hTmlecG3SeGmDQ01WAPo+tfMc8CwktRQKYNM5bRtWwiBmYAqpui8uFXXtUHrbfTZoUcM09pX59WvaI++otBdiIb0GKW1Q0NDVwJkgNDtI7NBT19dT1jnAQBkGFomsMPH4zFjDPdqzGYsr6gcsldp6J5zkbaWicY2tPkwhv5s0pCx2tcZnHMMxmGModcsjuOyi2fwiBXCEFJQ5BFCYPAnykEUSVQt8lQgf1OW+Rb0GKUlhGvOFw0NXQnko1dmrqr+Vmo9OQaahKMoWmYDdBrCrNW0RZ4VBa9PBUOkIh8ouUGhoaEGm436cxBkzjK0ByEFLGF/g24VIre9EALzEDEtQfUlbXP0mRYVfY1ZU2ysbQidtbRhh3OeJAmeplB4/bymFtVvjMtCq+QSho5mTlYq2/OtR6zgBRTqQk3CGCLcrZ6mKaYTDMOQcuLUNt/Q/v7+aDTqdrtJkoxGI8bY/v7+ycmJnoWDnU9sCDmXomFsNnQuyGlPURQR5SVJgj2G8Tv46ilm+sIcIIXPxRhDdxu+NQwWj+MYX1AYhmmapmlKm5Dn26uLxsbSUINqTMuApFBkJmqoZ6a//MRm2T5Sis/EyTzDgfSQOcjpTyIpXOEw4RneDvnuMt6AQpBSpktASqmVmOHnhUYpu7owptOFxMSyNMyc8zoPeH2PKMk4nudJKTEPhqVlqp62cqbt2EBg16FRPAxDskmjPUgXtejDvPiC3hreWm/kXOpfGhoauuowFtWKywCAaCgrXEIDp4ZOQ/QZ89Vj6mhdS5228rylHz+gHKTLjMYP52JT001LuklICIHq5yXrXxUaGrqiyJs8JoQ2/ebfqsvDYAESWOjwMj3Sb4bHN3xSNPOjKFJKua6LIQJoIswbgC5vn87bwvGhhsPhbE9UBzQ0dHWhC0GTiwZ0ZW0HfCENoVmXTMhMO2B6Khg/IY8YRkvbtk3JhuB8Uicdc2cikobWdEtHQ0NXHXmDa/XFqt67KJkWmEN+QACQUmIID9EQWnOmrV8PIkebNFaINmkiILyvvptfV+Iu+YD4QV85yDbUSEMN1g+Tj1qa2OdVkkU17JIwTMIAgGkYkXowjGg2aUhPGo29gTREuhhaiBa05SVfISnXjaespmCMYbYX3E9YETRUAUNhYRfBuKYO4gO2gWUbPvUMWyjGU/Pws23bpLakaUq5nPH/0WjkeV5t5SGWxTqpLKt/FEXIHXEcc853d3c55wcHB71er9vtwvkNd4Y2pzvFIOMdTGmmlIqiCJMxdTodEoJIJqItrDQGKOfUDM8lpXRdN0kSbCf+iUeSBUGA+uBoNFq79K+ItWz05LDOH8/SYGao9dktWWgSpiWBnH1SSiPbf97uQ/xLLINLWhRFFN5ZnWS2rNMurz0RM6LjcjAYEAet0ctCbDIN6RJKg7ngvNC36taUAEUYY57rwwDz20opx+NxPlEhibFQFFTNGEuSBM+PRGNTtWG4LHxx2mRsxjDWuRX30J2cnKDcytbQX7axNKRbCkktWrtVom44r33WESTvpGmqm6jpW1JO4zgOwxC3+5BkATmfujq/EQwTGOlSFf2qrD2F5dP2oNE23cuJTDcajSivQENDdQFFqdGf+KG+E2hNQFOytkMdCYLIAnJRf2jcQS97kiTISsb01k17VDNjDLPNo0Ga4oOWM6jyApFeUvZ5LbCxNATnI9nWbn2oJ+ouCwFARkO6GkUfyBRNCaFxd6h+vaGCMc3PgBE6qIvRxjSonPbzkoYKlTLIjsZWSu3s7FD53DeyLRobS0NonEaxWU/E1+DyqD8N6WuPIdTQ9nqkksFgQJZm0IxBhkKHjnny+lsTp1IsG3WzrYt5pYzUz/39fZj3nrWlYWNpCN+EzkH4CusceldnFNpNagiDPkicgWxIkPyCsQuY/iVv3yG2Ypr3XQiBvnmqhEihrFumtRlVoLAqxhjS0Pb2NgYTrKMBdGMFBKVUHMee59m2jaEirVYLFXt9eJGIrkpgsNiF982rLfrSenlUPG8FsGGUZggHLjWY/qcJpgsUhrHfMJfUDaikdLtdjHgCLW+80jZY0JPevHlTKTUajZRSmKwHQ8xarRYtWmmajsdj5CAw3YWMZdFG+Q63tGPI8m8EgX/KDBWPlq9ESolHlSVJ8ujRI8uyMIxg7dbaTaYh13WHw+GNGzcGgwGOtu3tbQBA26TKNhlJKdfulMvZwNZTYp8BhkGwgjeRcIUQYRiiuRrVHCEE2q0xo5jv+3gSdMVNWc4aNTkmX+GMQhTl0OsHAJh1e+3sD2vW3MmBXoxOpzMcDnd2duI43t3dbbVa7XYbF0lKgsfW0ME5OQrnxmYz0VQbKUgWHo/HGI5MGz6whjiOMY2n7/uTt2FC2RkmJq/Cb3URFbfLTd7CWmFjaQiXCMdxxuOx4zhhGKKTdXt7mw7SRDGYc+77/rRK0KowgxJ3dQgIwbQ9GZCZqCv6B7NzCCGiKELzCmMM/0yShIzZk4hCxpip6G39ygmZqPAalOtd193b27NtGw+GXM5BtXPExpqohRC+75+enu7t7d2/f397e3s4HKI3BDNg4c6pCw9s2QzofMQ2WvoDzWGvsrihileMm7OQd9I0jeMYf46b0ZRSrVbLtm10k1UrO+y8LXwS6D+58KUY6wrdRSnFOUeDg5Ul2KbUdGuBjaUhfA2tVitJEt/3MWM5moFw0XAcJ4oizNqZpum67AmcgTH1uUGiwaYyEZKFHgcEF9EQY8xxHM/zSPzBwYOTGYVoXLGqt4/Bebmm+k3lCYid98RX1Ky7F9CsjuqYEAJFOTQ7rBE2ViljjMVx3O12h8MhikKe56HCr7LU6K7r4mkN+C43FRsv6+VhxA1VXMmyU0kcx3FdF7etorm31WqhWRqPxKheqArvcuGtJ7msGnTgB6YQWDsfGWJjaSiKItd1e73e7u7u0dERMhHmZCCRGwA8z+t2u1tbW6tu72JxdZhIFcU3VXvKUB0jotHVMd/3UVNDsWjuIuRU78UQtXTpiXPueZ6eJny9sB6ayAxARybG7ONaNx6PUfDGb/EyXD1s27527Vocx0EQYEoXCr/GsxzyNs4yK6ARbjP3KJtpa1Na6BNkz6sbTcjkgRF6uOcTTbZo44+iaHt7OwxDfHB0Q83xieYL3E3W6XQwbgj1FM/zKqy2+KLxAvKytdvt8XgspURhmY4eK+t/VRKHVUY0Rj26oafs+vxXjDFSP09OTlCasxZzMNFCsU5tnQqWZY3H452dnZOTk+vXr/f7/Xa7jW4FjHBDuyPyFMt2Xfu+j8MOr4miiOaevsBuqmEFAJIkwUQ8Usr9/f1r165h4arbNQV0YeFCUCoy9FqgNIGOC0pLRJv1J7n1ZVs/PdDOgEZ0lYVoLr8Zl8GaNXdyKKV83x+NRltbW4PBoNPpYBY+znkURd1udzAYbG1toc0I10zHcXzfb7fb6ByBzBsK54X8C6Nd1xpo4MRJ+KlPfeqZZ57xPG+9hnU+bqhi2WBZRDXSEIYsIhFzzukQRJggaexcbD3TAltOjVxTbKxShhMpjmPf9w8PD5GGSFNDvQP/p0A1lm13IHcv01L2GWNrg60tKNsDwK1btzCn33rREAAgmyhtf1nZ+2Laxg4rSyEkhAiCoNPpUD04MCqmep6DqkfIhR6xCa+nBJK4lK6pnL5mw2tyWJYVBP+fvTf/jSS7zgXvjdwzcmcuTDLJ5L4UWVurW0trgWzIaMljaezxgyXbgOfZ8zyG3w/z/gLD8DyMfjEMAxqM7QEMeyDABt4vFvT0jGfZ0xrYUrd6q64qFlnFncwkc2HuW0SuEXd++CpvR+XGpVjVJIsHDTYZFRkZy41zz/3Od75Tdbvd2Wx2aGioUCiIoggw0mq1FgqFoaGhbDbrcrlkWcbSjIc5giAYjUZRFKFVTE7ZQudSGy/aRM0nAKNLF/1xxARuaMCD41MO718GNBrJe6aRNzsJy+HlB0TADZim2lbbs+Cy2JWNhgghBoMB0VC9XufZer1eX6lUPB5POp32+Xy5XA5lkFRT6QqcCDE5IG2OIPRMxFwlAwoLVTCAnZeFUQXjT7DDIwx4XtxVcWAFwS+a//D002B4SPtPz+OMTvsRDF1FUTh+d+keGbnC0RDeJUmSHA5HNzYkiiKwIfSZ4LyvjsFEKbXZbBaLBdnQVwGiRnaJL04FQTCbzZfoerkrOdb7wHgEpI13KKXQqEZARNrl0KdCqV/aRAUcHSSDl/ON525X1g1RShuNhtPpzOVyPFOGQiG32x2Px8PhcCQSGRkZyefzKDHTJrYRpbdaLZBHuEDflV+aMcbAWuANbSilCAkvkWlnlMGLKWQhtK2TsLPVaqXtnvcYDB2ywseewHNfxImMKwSgGOCEGb2LZlfWDXHjIxIeBOXUkGixWCytVgsUanTmAukRPxljIIw0m02bzcarBw0GA95S2i6h5LAClzTWfjvHvE9lp71M1se0B+SeBafUaDQAioGAi+tijOENpJSazWZBELhuPI8UCCGqekG1qEH18ng82vKLAfefp0Q5mYOzqOx2O2Msn88TQsB6ZQNLZHtav+dyBh2rVqtlMpm02RXAWOVyGQMVw+/aDV0gQ8lisVj0eDy5XM7pdAKKppRWKhWbzZbNZp1OZ6FQMJlM6LrZarVAtrbZbKVSCQk1xhgqQnw+X6VS8fv9hBCn04nVOAJ1xEqKosiy/Glfd2+jXSsUSA6USiWXy5XP510ul6IoJ2GTX/xR3uEdzha9IsQAPogH/emmC0Gk5AQUm80GkKFjjiGX4QF125V1Q1yFr1QqORwOiNQhbDGZTB18ogEjDOEAsCSXy9VsNt1uN1iOWJNra/Qv4HqND9OO0anX68vlstfrPTo6Gh4extL1JG8ajnfBh/pz+iDSHj+ogm40Gogcz/UcT209n+O1G7rohgUX0mT1eh3LMUopAh9efI/MAsZZqVTi1bDa9ZpOp6tWqwiGAVc7nU6s1FRVxRpNr9d39947s/UL/k9r5FmgBIZ1Cny02+0ul8tDQ0O1Wu1YN6Q55nld6Pkb1XRkOcnOPQ3REOpdm80mp+cMuM8v1HQ6Xa1WA+2WT6uW6F+/AAAgAElEQVTc72gJB5fRrqwbAgCk5Qehn5xer5dl2eVyYf4vFAoo8uh3HEg4YnGXyWScTic/DijXkEzTdsW6UNbtkrCd04VRcgXfOngcv7RX7jmNaopvzpxSYO2W9rhRXDj43M/25NbvztNno6HLaBfutTkvwzvGoyEEO6wt2lCr1QwGA7SHAAD1w4YA4nJIG0AgYwz5UbPZbLPZQLdFWHSO539epj0m/50xJkmS2+2WJMnv99dqNbvdfpJxfFnckHCy/nT9bhrEhmhbnpEQgnThsTf5BRnHhkBA4diQNiC6gJjACe3KuiFCCPhBpVIJ/CBgQ6qqdmNDA+QRKKXAhqBpjTJ9Hj1RSo1Go9VqFUURBbEv6+JOav1elWq1Cgb55ORkJpNxuVyFQmEA/KFNk118017v2V5O9OcAOxkBL/rWn+tpnt1oO7btiQddurDowr0252WMMYvFUiqVPB5PPp/nmTIQo10uF/RhEfswxvphQwimuG4RPJogCBaLBXMRR4VEUTxHbOhFGyDY4eFh+KNMJgMZpmM/ePE90blEKIiG4IagRf3pygxoS7IRs2Na7ekZr93QxTKLxcIZMaAC8dwW/8mF8bXdOPnTRX0ZPg4+EYe08SYD/0ZDNIfD4XQ6TSYTV4fA6oC1Ww9rz40+q9zeYf34JgP4QdoP8q/AhMnxS9qGM81ms8/nS6VSfInqcDh4VAhaOfjTuHZKKXB6q9XaaqmtlnrxIr+npiiK0+lEApS2y5VPexA8YmBnyK5aLJZyuYzniFuK5nd6vR7fpdMY94MdPrH7wWE73421S68xrnjpNUr8sBwrlUqiKNZqNZC/8E/IMHA9qfO7nS/DLupQemGGGBvxDmIfPD9e5MET/CjyMBgM3TVoQIiwvuOZOHgl9PkQRRHcP7z/rF2jz0ckH8ov4Xp5WQbGPXoBOhyObDYbCoVKpRIix3w+3w0kdS9tXhoacmY7l9PruHDarjQEksiliHiS9LSH7WeYFTjRBFEPpkmtQA0HGUhbgQTDjF3rDV0i075jg0ctpRTOCLxVJO8xEOGGsB1uCDOkyWQSRVEURYPBQDUVz90L+JfghvhX84uFeEC1Wg0Gg6lUymQyORyOaDQ6MjJSLpf5VZP+PuhFn/NzmlZv6Mxn2xHCUEr1ej0YG/DsvIQCbqjj67q/veOfjv3engfseXAMSG0i79oNXXTrWGN30xoRJXHoGgwj8Gvy+bzD4UB+DcUcCH+gnco0DH2w7LnePq9H07qkl/NK81UYXh6j0WgwGHjSsFar+Xy+7e3tmzdv7u/vu1wu7Qd7nuHFj4aIRuiDtO8APaWRrsI0LkfNI1zaiyHZcXM6DqLd2NOwXu7OiHVvx6IMizjSrsLtdn+Xwl45N9TzCQ14bFjF1Ot1s9mM6ipUn/HEP7ZzGiReb6TSeDofNVlE08+eL5Re3JXCOtYOnB9ksVgSicTMzMza2trS0tLW1tbw8DBPBg32QRd5rsX5d8uene04WpfEZxeUs2MAwN/xdFWHo+FH6/ZE/azf+Ozp3WibWAAI79J5H26XTJfk+a17VqlWq1g9abGhSqVitVrRtQqiRbIsW61WlGLxBJk2GgJojbgDqzNetw13A18AT8RXDS8aTeRDUxAExEG03ZJ0bm7u8ePHc3NzR0dHmOd5MqgjLtAerf1avtCzPruxtt4Q7jlOmJ2eWdqRCOceDfJVeOcxbAZ03NQ+YnqyZordGTGw1TpY1OVyGTMfRhoCNPjKfidzke0Cz2svxrTzGznZ7HQqbIhoUmCtVos3RONK+91ZkhdqOFW0YMdrg6+2Wq0HBwehUKhYLDYajUAgkEqluNok6ZXiefa2vIRzP7s9f5jZEQ3hpvHkPWknGbhcJ+mCGrsjoJN7h44h2j1W+e9cKou72kuXrSevoBvql4nohw3hNUa3GSTI4Fn6ZcoIIQiCsHDj7YaMRqNW0YYP6xd9vbxcgztB0m5bAsyLMeZyuVKp1OjoaE9qDH1Wr0f7MlzAvHD3Yup5FmXaP3kYyyFwnp8aQH+Fnfwc+mVyteMTtFtgQ1wFqR9WdSnsyrqhjuU6B2UgHgRHgwUUPAta2tvtdlSc1Wo1dOzEsJBlmdd5gOgIJ4UBgZ9cvJmrhWkbzmhr0MDv6MjiP6epbeNXLbT7CNfr9UAggEZJ1WqVg1wYr2azGWygdDqtKExpMZ1gYCpVWsxhd1Xlp1LHbf/L9HqBl61cwJgIJEyHw4E1MiEErKh+9431McwZ3b4M7hvIcblcBj8DMxN20Ma59Nn4hWqk9fgJaD+FIcEVHXhiHnMJKv6BIaBUW1VV1NyCeYvB9qkrAZzBrqwbgtGueBj1rnA0tVoNRQwYSZzIB741qsYG84aAFOAngqZ+Z6LFLOgLqADSYt7cDyKam5qa2t7enpmZ2d/fhydCK6R8Pu/3+9G2BGBH+y4Noi9oX56LaS/iDPkBeUSJOQbpiOdfA2r9ERAATl/swJ67L+0lL/NfhF1xN0T6LK27DRkHMIZBvMYURwdiQ3xnzL2DF1ko19ZOs+dofJol7XEJSMjn82UymampqUQigfgOq0hZlsfHx7e2tsbGxvL5PPS9+NG08ULPr7vInkjLGyLPfaodx+HVpMg5ajVAzuX4eHDd47DnzrSdpCPXFfYX0/qNDG0EpI2MkHlFNSMqquEv+vGGEG5gtcVT9QMWWXyZxtNV53u9HWsBcO2w/goGg7FYzO1263Q6LM0ajYbdbo9EIjMzM/F4HAA24n/tDew+yQ73dDGnX55HJ8/mqnpav+elvXztL7p2/2g8R8B/A44z+Hu7j0/acB5SYKqmDXRPx8qrN7R9nC7mcxlgV9YNwfjDPnZYoHbRZDKBBITeiljd9OMN6fX6bt7Q4PNBQGQwGJBwOcfhwjEpJOaNRiNgaaPReHh46PP5arVavV4fHh5GWCTL8vDwcDKZtFqtVqs1lUqhzJU9yxvqvmkXnKHLNLwh8twLtH6egmgSEc8ThnQfFjMfH1S1Wo1zZUkv58UpIFrZs2s3dFFMO/i0v/fDhtR2+13E2MhwATDqyRs6bTTETwBZM1Crz3G4cHQAx8eSgRAiSRLak+h0OrfbfXh4GAwGAX6Vy2XwvJPJ5MzMTDQa5Qn7jjPvxlyf591+oYZT7WZR99u/3/Pq6YC6PTLAb46sDXju3d/b7/j9oqHuj9N2qRCPhi6dA4JdWTd0Wuu5JodbORdsiE+blFJEK+cbDfGqbkBCAHp4FwdKqc1mSyQS4XD48PAQWUIQLEul0sTExM7Ozvj4eKVSIX0YVeySFAqwU/YpG2A9fS6/D7w45oQCKSc/fj9sqN/+5FkSE7mOhi6adYxCSmk/bIhSCj0zkKd5WTMbyBs6eaaMtMcKacfz5+uGtOVsSOIgrY5z83q9kUhkdnZ2Y2MjFAph8cUYa7Vadrs9m80ODw9ns1mAYqSPJyInxvs/desZzpztOB1btK890QCI53j8npmyntET0Xic60zZRTQ8pEajQdqDBm1eAO6gdSIKO6rVKkKJWq1mtVrB14DKIqeQaGcn3q6XTz4912L4pw4eCmtXt3I9EAhHdAypAVFVR3aWfx2co8vlAqDAGGs0GqjddTgcuVzO6/VmMhm3212v18EGxk+UmGi1lhljsizDqcFBw7UxxnhztwvrhuB/HQ4HiIWYS8hxUHS3sT7GD8XhGKPR6HQ68/k8r3CGV6LtwsOehn/VRtn4LASGwBjCTy45xHX4tFE5rxZMp9O8gvpYOuVFsyvrhoimfAwvG9JAIHpoPQiS6PAUWigaz55SyjXPzGYzPBFr0xq7Wdf9TgZfqnU3KDRFAKI+qyg8GAamGq1lDg0QQtxud7VaJYQMDQ2h7Q+SX4CfQZgGdRM1KDabTZIkVVXdbncikQBE3fOd1H71hXVAWus+8+c/4IDtlFKEyVid6do97wc8xwGpD6FXyTQfzD3Fi7Ve8jLalXVDeCogyCBYMJlMA/bvyRvC244Zr2PWOu358HIz2kZMIR1rtVrxFQg6yHHDl7TXX0QTh+t0OrQesdvtZrM5kUgsLS3t7OyIoihJ0tjYWCQScblcBoMhk8n4/X5Zlo1GYz6ft1qtRqMxFostLi7u7u5C6KNfdEA0boj/edr78BKsp/d8nqP1PAj/Cvw0Go2QHyIndkM9MSCeFeGSoTygG3Aonic982V+unZl3RDmELyx9Xpd+/Lz2i7shviItjUTeMmytgIL8TZPXsBldOsWDV5McT4Lxg2mUGhaYx/tiB9gRDPyKKWgRPMuaYVCIRwOA3IuFApoXetwOBhjpVIJJaxYWCHLUywWx8bGtra2wuGwJEn8BDpIgOxZyZ4X8cjOy7pP/mwH6XZA9Nm1M9E8KW3HOr7b4BPAeAPzA+ONtFna2nHIR2ZHkQfUQflIuHZDF9cAOfPijAF7Cm1hac4bAgjN02E8SEbY3L1UGTzmtKAA0QQySN6DcMRf9QHjiWpkzODIzGazxWJRFMXhcKTT6UAgkEgkvF5vsVgENxrdWZPJ5PDwcDqddjgczWYThVfpdBrsIa/XWy6XtURqrfGz5YHYBTdeNPOcx+kXCvGN3Dqwv2M9Qr/xhp8WiwXbq9XqsRC42tYa59DeWS/3U7NLMKSexxhjCFJQBIgn2hMbIn1mJ9InGuqnhtfvTHgAzwc0ZyohZ4dJDzM5fulnHD8yGAzIzQuCIIri/v7+zMxMJBJxOByYmQ0GQ7FYXFhYuHfv3q1btyKRiNPpxJfa7fZoNDo3N3dwcOB0OhljEAnoQBn6IeIv6Hmdl3V4/DOccM9QaLAzQoKSI0THTic9o288/Y7tcDT9sCF2yUlD5Mq7IXgNq9WKddkZ1ur9sKHuEXlsBK62xae1ADOiLcDnHI06lpWLtRjIh5TSZrNZKBSmp6c3NjbGxsbq9bokSR6PR1EUj8dz//79L33pS/fu3RsfH6/Vahjf5XJ5ZmZmfX19dHS0Xq+jC1u1Wu0ezd1uiFz4KfdcoraeoRC/cK1Hpm14CPlHrsc64Dn2wyI5NsSH3GBsCI/melF2cQ3hANLzIMULmuJS7MOxoX6ZC9onU3ZabAg+iNdbCBrpLNR/EUK44zvWDXGqNHwi1oxHR0ejo6OFQgHBkSRJFoulUqlMTk6ur69PTk6CS42wDgUcfH+r1VoqlXBpPY1cnlCInN+pnvwITNOugyfsB2OFPTOz0PPEFvwrIvF+2BDplSa7dP7oyroh2qb2oFWZXq8Hs0N4VkSG/8nVFFFZdmxGjLX7SRmNRsiDaEki2jUU9sdIohphfKFNNazX64qiuFwurJhAXeMCo9p+Z4QQWZZtNpuqqpAQAnyAvs/oj0YpRUct4AsWiwUrR+TmtTgXdmCavpKopIM35LwEnLau3TuQtpVGj/WVn4rBBVitVnDHK5UK55f3tH7H0eK+3Zh09/5AZwwGgyiKhJBCoVCr1bA65tMP/ywY2GpbvROtyYEMYNRhC/6V4wA8kc/JtNgI6FMLIV2KqUJrV9kNYXbCOwzSPVChjvfn2MUaOGbAEbv1X57TMKHhVHmIRNrC1bgKqoGlgbj7/X5AzqlUChJfOM9yuezz+Q4ODsLhcDKZRPgGNiZjzOPxJBKJQCCAP41GY6VS8fv92P/o6EjbdbbfNV7wIc5Pz2AwwMuTF6CL2nNJjo1atJF7Cr6SZWclOvT8IIefmKbt3aULhcgVdkOkPRAxC0GJudFoaME8bVjU7yDsWRY16CHnmC3iCS+ESzzh0hEE8TwI17SmbfEQ1iYilEqlYDC4vb29vLy8trY2MTEB6mY+n7fZbGazORaLLSwsbG9v22y27v3D4XClUunAgGDdKMmFdUYcZUenWd4C4MV9oxYeIu02v2gxAP3Wc3FDHca6mo7w+fXaDV0g488bSwzAKAgxiIZG2A18dBvPXHRk0Pp9b8c4GOzmeJROCAFWjaiNn5V2EQeNG6yw3G53oVCw2+3I6Var1ZGRke3t7YWFBYiZ5XI51AFgfVcqlcLh8Pb2NtwN2iV27692ief2POELazxy7BAMO8NxBq/jtN6nYyzx2heUwnDjO5xtGtMeh2joUbp2S17+7M52yZ+iXVk3xGcG/uC1Sx7ta9btOLQmPKv/wpMXg7+dafIpg/fkYtWqqhoMBtCaSbtinrWTIDw9b7VaJUny+XzJZDIYDGazWbvd3mw2nU7n1tbW8vLy7u4uutHLsgzEyuFwZDIZzg8qlUp6vR77Ly0tdeyPu9Fxf7rv20Ue6zwaAqd58DRwBut5E7RwPm0vpdGahZ1fxx5+HP4t2gj6eXzcp2uX74xPZR3gImbIbicyYOp7CdEQdzekXWiG5SSf98BCRKjfaDTcbncymRwbG4vFYiMjI8Vi0WAw5HK5paWlR48eBQIBURR3dnZmZmaKxaLNZoPKIvhEjDGgodh/dXXV7/dj/9nZ2WKx2HNR1n0t5/5un68hV8gf9BlOdXAo1LEn/1L+yDhjvtlsck/UETSdyrS+jH+cR0PaIXSRn0s/u7JuSGiXYvCQVRAEZM20noi2y8f7HedFY0M4Gk4ACDpiItL2aIIg8C5j8EepVCoUCsHRHB4eer3eer3ucrk2NjZmZ2crlUoymbx9+/bKyorH46lUKpwfVKvVKpWK2+1uNpsul2tzc3N2dlaSpGQyeefOnZWVlaGhoZ7RovaEL/4op5Tq9Xq73Y5ggZzrOdM+izJB05IATw08DLgh8mwg85zfrl2U8X/S5l4uHTx0ld0QfuFuiFIKrATIC9M0cR7shl5opgxsEX27rxmy/tCuJ20vCdFYvFGyLAcCAaynHj9+PDs7e3R0BHHIQCCQTqf1ev3Q0NDe3t7ExAR6zx4dHQWDwVwuRymFkonRaOzePxwOl8vlwRjqxfdB3ERR5N0Hzve17Lko03I1iEbtl6/LyDl5Iu0R6LOZMrihy8hjvLJuSMtw4dkxVVU9Hk+5XAbaYrFYwIgHp4b/CaoY9zg9dWE60h/aqKEjhmcakivVVF1iO5rzlMtlIFBImTcaDZfLhUAM54zDVqtVURRTqRQCnOnp6f39/aGhIVQPgH4JyVdgQDhhDtYCVwKnnFexgZnJoW6AUKAd8VsHZ800ekPkAk+5siwTQt566y3GWLlcButvwP54UlrCF9Foe2MfPF8tjYh2AUO8SS8noBqNRnQ0g1QQxiTvEHcq43EWj98BF/CAC0E0RxJPe/xP1y7Z6T6/McZAqgZlnpMbBUHAG8vazGbwWU97/I7Rqd3esczBFhS1W61W8GhRToH+nC6Xq1wuT0xMxONxj8dTLBaxPRQKYT0VjUa9Xq8syzqdzmq1xuPxqampvb29kZERLrDN2q3WOD8omUxaLBaj0ZjNZgOBQCaTQee1jqvoCHxODrp/6gZF7fHxcbvd7nA4LBZLLpc77UGohu9D+pe2nuQ4qPBASSNtp25PeKhjvwKNPBHkghCPSfTYE7tQdmXdkPb5dbgGTFAoQeTFzTqdjkM/nE79PCp2PRNM3Sep1SEimtCJo8i7u7vIqfv9/larJYpiLBabmJhIJpOiKFJKcf6lUml2dnZlZeXGjRuHh4d2ux1H5vwg5NE4n0iSpPHx8e3tbeiBYILVkn37YUPkMngiVVV9Pt+tW7fApT7DCcNlaNdZ3PoNrZ5GKcV8gMpnJF6146qfpxvsAbmBZ48oFZDisdJaF9CurBvixpfx3FCSLkkSJzcKbVFOLLgQQWC40D42+Ou0Pqjjnzr+xNqnVqth6YeCjEql0mq1RkZGDg4O5ufnnzx5Mjk5mclkUJkRDAYPDw+dTqdOpysUCh6Pp1areTyelZWVL3zhC/fu3ZucnCyVSrgo8Im2trYWFxe1/CCeQUskEoDAgRn1hKg7lpz45cIuysrlMq79l3/5l1Hr4PV6T3sQ7YPu9jsdWwaMB2QYSFuPmLaFzbSf0v7Sb3u/42P8IIh+QQSFl2BX1g11DxcY0CKgJABT+FpdmxM91t0cax1QUc/lOkJoDqIjQEM4BrBmaGjo8PAwEAjkcjmXy4UyXQi8yrKMXmNHR0dWq7VYLM7Ozq6ursIHoXh1AJ+oo08ZP6bWL5OuaKjfXb2A1mq1PvvZz375y18G8H+2g3TjffyfTjg8gFXzirx+M9PZQiHS5peB58Ebq5z5ej8tu7JuSGsdo0dVVbPZDEwRBYRYB6FcEHE4YhP2rOTgCaOh7he459uLP4F5WywWBGjlchkehKd7UcqPk0Tc5PF4sIxyOp3oOwbgmetPoxVHOp02m82cT6TlB0GVsVwum81mk8mUSCSmp6cjkUhHnzLSq/HDxZ9s7XY7//3b3/725ORkNps97UF4WqNn8oHvdqxfppQiuOa1RLxUVXuE7oN3bO93fFmW8/n86Ojot771rYWFBURGx7btvGh29d0QHygwTvGCRgcvf+WiQtiCMvdzLInsOZL4q44VPpgEEPGAH+RF2OAusbY6BKVUFMVkMjkxMRGLxSCChcZHqAjJ5XJowsH5ROAHgU80NDQE+AnLOoBEY2NjkiT1W5Sd1314OYZJRVGUhYWF3/iN3wiHw2c4QkeyrKePIMcFLJRSDC2MLjzWDibRmUMhQohOpwuFQl/72te+9rWvIf7tJ6F5ke2Ku6HuB4lcu6IocEP8meEN52Id3As8z7d3T6SkK6xAggxFXjqdzmKxYJjCMaGREaRChXYnT4Ad0Wh0dnZ2c3MzFApJkkTbaLfJZCoWi0NDQ8VicQA/CGfVbDZtNlsmk8G6j0ObA2bgCx4KEUI48wCRyK/8yq989atfPe1B+gl9cDv5fQD/HmgjGPnH0rtPfnC32/3Nb37zm9/8piRJP/vZz8AM4Jril8UuWfB2cmOaohtOEURqDD3ICCHoloMSB9Bh4BRAKerIenagzjy86odGd4BBvN0QL/+B1xBFEaI/iqJgaYbzxMlj3cS7VyOv5/P54IO2t7cnJibS6bQoioIg5HK5qamp9fX1hYWFnZ2d4eFhgLXoEYTC17GxMexPKa1UKkioaQtBcYZoNAROAy6EUtpsNs1mI4fSLiw5hcuV8DP8gz/4A4vF8s///M9ra2tut9vhcBQKhVar5Xa7a7UGUBXceUGg2Wx2b28P9cBcXg6rV4PBYDIZtD6Of1G/gJG1ZVt4TXKpVMKykbP5aZtqNIDy02g0wOoAtQ3JCp1O9/u///tLS0v/+q//+v3vf//tt99GqncwT+oC2pV1Q7DuWQVPGk4K7x7y9D15Mec481NNQw6tC6tUKqqqNptN8BjtdjvKsi0WC4o20um0y+VKp9OhUCiVStnt9sPDw7m5uc3NzXA4nMlkEDHJsjw5Ofno0aPPfOYzjx49mpiYyGazJpPJZDJh/42NDe3+9Xrd7/en02lCSDAYBAUpkzmGX3PxgaF+9ju/8ztTU1M/+tGPVlZWKpWKzWZrtVrFYpExKgiC1WqllJZKpXQ6XSqVuMIBIQRRKhft1OkoEproMQfhV+3sol3GsrYSC4jUOp0Oaopgt3fHWQPurdvthgwLFun5fN7r9d68eXN8fPznP//5X//1X3s8Hr/fz6uCLhc8dJnO9TkNz5hjhMikYjUE+il7kW3asaTiSmakTRFC/IwQA1xKLAnz+fzs7OyTJ09AOJyYmHjy5MnExESxWBwdHd3f3wcajXEJIdrt7e1bt249efIkFAoB9iKESJKE/YFkA2wql8tutxtER5PJ9Pjx4zt37uzs7AwuauG38TJ6IlmWv/SlL01NTf3whz/88Y9/DNKm1+utVGQEqtVqNZ/Pp1IpTEtcOgOrY+BxlFLGFGQP9BpDuoAXBvGN4MRyx4TYXJKkSqWCeLx7nd7v/OHLkM1gjJVKpUqlUqvV3nnnnb//+78fHh4eGhqy2Ww80fnSbuy52JV1Q/0SDTwjRgiBpAYYbj2rk8/xfUPUzRc4PE+HsY70PGAdyOP7/f4HDx7cvXt3a2srFAo9fvz47t27m5ubUFAcHx9PJBJms9nlcuVyObvdXiqV5ufnHz58eOfOnb29PRR2IshKJBJjY2Md+xeLxVAo1Gw29/b28BGz2SxJ1cG3lBu5wLyhngZq38jIyB/+4R/+1m/91ocffviP//iP77333ujoWCaTKZfLOzs7XDUYUgr8ldZieYqiMsbQYUnL9jw6OkL1n6ltKAOE0BUGGGQSQPDBdChoOiMMHmzoIg13SSl1u92SJL333nsIkFOp1J//+Z9j7kGTGFzvZbEr64ZgHUkH+myVI+AAuANeg4Z/OnZ2Oq2xdhkaj9IbjQZSYB6PJ5PJTExM7OzsjI2NJZNJh8ORTCZff/31+/fvz87OHh4e3rp166OPPpqbmysUCoFAAHwfNGgdHx/PZDLgB928eRPNVwVBQEtrQNTgFmH/sbGxTCYjimK1WpUkaXl5+eHDh6Ojo5TSg4PYsffzMoZChJBGo4EsElrOf/GLX3zzzTfNZvOPf/wvR0dH0Wj0+9//fiqVQjyIcjzSNQx6Zu45mkYprdfrqK3h+BEaqGDhZjKZbDYblmaIubhGx7HjDSB3o9FAJAWV61wuByBseXn585//PIeELl2y7Iq7Ia3xQcNnHkxQWBmZTCaMCfJi5nnt1Io4HxC10+nM5/NTU1NPnjy5ceMGVmGFQgHR0I0bNyKRyMjICNZN+/v7DocDyXhZlhHRJBIJl8tVqVS0zVoJIQ6Ho1qt8uS9JEmFQmF0dBT7E0Jqtdrk5OSDBw+mp6cVRUGD6UpZPsltvHQGHIf/CYym0Wh84xtvEUJSqcyTJ0/ef/99LL6AB3F8B9ZO3n8CKuNQ8EfAerCFpyCA/UmSBO8GHAArPp1OBw0A7UKY9hcD4NE0whyU7FosFpRx/OVf/iWalxFCstns0NDQC7iFL9CuvhvqmLgopYiHkfoxmUyCIIBuw2ck7aR3Xi6JA0+gSiMfh94egUBgZ2dnfn5+Y2NjZmYmFos5HA5gQ/v7+zO+/wIAACAASURBVD6fD7ESyso47VuSpHA4vLm5OTMzg37QhULB5XI1Go1arRYMBuPxuMvlQvoPrjYcDuMrUqmUyWTyeDxbW1uoQdPpdJOTkysrq8fezHO5G5+i1et1xhjabev1+mq1bjabHA4HX0ZZLBaAdKQtmoHFGs/ft9NkXFLjaftM7Rgj7XtlMJhUlTUa6E7eLJcloS2kqarEYDAJgp4QgVIdpVQQ9IrS7HnaXOoAC8ZarSbLcqvV8ng8f/qnfxoKhdAMymw2XzofRF4FN9RhiIa4UrrJZEIs3R1+n+8rxwNvuCGOFIBA6PV64/H46Ogollf1et1isWQyGY/HI0mSKIrQ7qhWq4wxURTT6fT4+PjW1tbc3Fw0GnW73QAsgByFw+H9/X3U2QuC0L2/y+VCYgj1HCi4Pzo6EkVRlo4pzr6knghVMih6IG3/otPpLBYTIQQhCXIXeOHBs2ftSmPuiTjPnmiUfbD4Ir3iaEEQ0LUcjS3xu16vB2fNbrdruVqCIPQT70eKo1KpYO4Ez75SqXz3u9/92te+Bo4YJ8FDsPjc7+GLs0uGqJ/KeKkxa3dkxSuECIhSCqkdlD6USiWt2AWSGvRZbgg32t9Iu8wHKCamPkoptO5R7QXyJL6iXq9DK3pkZCQWiw0NDZVKJcQ7SM2CUY3GVYjkc7kcgCRIu0J9sdFo+Hy+SCQyPT2NuvlMJoM5Hz3Ijo6OAoEAtKsVRalWqw6Ho1Qq4dwqlQqYU8jT4b1C0zTSfrt0Oh0Ej/BKXy5/xOFhzkjkZe7NpqLXC5B8wp3Ho8SzRl7MbDZbrVabzWaz2cDfwQHRpEDQNCXXfgXmBhwHUCCODPXLfD4fjUbr9TrWWZgLISEEaA8NVFqtliRJuVwOikIulwv8o+np6e9973vf+MY3CCGoc+YXe7l8ELnabqindZD0aVuAEYMDQwERExfNO5WhqhBRN+r1m22DMjRq4svlMmdIZ7PZUCi0u7s7NTV1eHg4NDQEhAKMWKzCAGZjLdZTb8hms+3t7d26dWtlZWV+fj4WizmdTlyRx+NJpVJer1fLGrfb7UdHRwaDwe/3R6NRu90OBPQkl3y5HBAM/CzeW4lompfB1ZrNZoA1SG91r7DwC1wPOI2c2QgnBfeEXD4HGbVTl/Z8UEXcbDaz2SxiGSA7lUoFbFJBEGKxWCqVIoQEAoFgMFitVi0WC3qCLywsfPvb3/7CF77wMu/hi7NXblGmzYjxSY8QgsAEkyRXzj8D/0Kb9aDtVmKIg0wmUyqVCgaD6XQ6GAwWi0UEIKiP93g8uVzO6XTCrbBnNbARmwAKhd5QIpEAGRoNEUul0szMzMrKyuLi4uHhoc1mAwRus9kODg5mZmZ2dnYCgQCElgwGA+DqUqm0vb2N/JperzebzViU8beoY62qDfoul2HBgtmFUqoFhvE7+MeyLCNq7pfw1gmfLL6Y8InLVtvynlrjIHf3z1azZTSYVUVNHWVaTTUYDBqNxmpNQrYBjb89Hg+6RR8dHY2MjOAMM5mM2+3+3d/93V/4hV/AEu8K2CsXDWnfIu3MD9cDTyRomhGe9vhIvdXrdXCCuJQHY0yWZQgqer1evgii7dJHrL9QW8tXDVo3hPeH6w25XC6t3pDT6dzc3Lx169bW1hYqVxFA8QxaMBis1+u1Wg0NhXDAXC4HHSJRFK1WK7An7V3qCdtfRk+EQE9o93ojhCA+JYQYjQZCCFg5oFa53W7SKxRCmNyz0Iy1C1yQWTeZTNAh42s3fC9viom1HpQSi8ViqVTCkq1cloxGYzAYRDoim802m0232w2VqEqlsri4+Md//Mef//znMbG99Bv5QuyVi4a04bF2gjIajXgJefWzcCY1dSS/eFKDtBkriMyRM9ayk/q9z8B0hoeHI5HI1NRUJBJBjZjVakXbaFmW0fLw4ODA5/NBfXF1dXVqaqpQKKiqarPZZFnmAiDVahX7YylnMBg2NjbeeOONra0tMICRV9aGP90vW4cPOncg/8UZf+6gSsAvOJ1OQgiuQFGUUqmEIBT1fT2Po6121l671n3z79LeKK1pj4A4F8otdodos9nq9SqKAQFUIXkniiJj7Dd/8zd/9Vd/FctAlD1eOhiop71ybqinDyKEcH0fsBlpu+PdaY+vttuNYXZFYrVWqwHdLJfLaD/v9Xrz+bzFYgF7gIdCCLwppaj52t/fX1hYWF1dXVhYQIarWq263e58Pg+0krcqg5ri9PT0wcEB5PSRvuV1avV6PRgMAtg+OjoqFotf//rXf/CDH9y5c4cxFo/H7Xa7FjLr6Wu4GzovHsNLM3jYarUKQIcQgrS3IOgtFlO1WrfZbC6XC2t2XoGBz2p/ofSZBQS/Mx16wXx0aflHHdt5oVm9Xk+n07VazSW5HE6bxWJyuVz1ej0QCMTjcdTE3r59+7d/+7f9fj/n2V8ZH0ReQTekHQ3auZ1qpMsBUgrt/gqnMh5MAYBE9TzY/ZIkeb3eZDLp8/lSqZTH40G1NNern5iYODg48Pv98CCpVIpXzO/u7o6MjJRKJfgsSqkoipFIZH5+fnd3FwE82kkjrROPx0dGRvL5PFfXdrvdAIkODg48Ho/P5/vhD3/4la98JZFIwDkWi8WOXu/d2BC3yxIEcUPWz2w2IxTd3Nx8+PBhPB6XpCoWTaurq4hBsG7SVrdqf9EJAiE9OK6CpidwxwyH/dt3DPcTwpsqpYKqMkVRFUWpVmutVqYilZrNeiAQeP311//iL/4CUyN6N+ArAHJVq1XkT1/sXXtZ9sq5IS3NjLRjddpuzYpaRCAy5Ex0atam2yJLBZYHSsYsFkupVEIDH15EJssylF6npqa2t7cnJycTiYTD4Wg0Gg6HA5B2IpHw+/2lUgm5fzSPhtbH1tYWWNd4f/L5/MjISCQSCYfD8Xjc6XTCs6Dnj9fr5e6vWCy+/vrrm5ubbrcbbT+0BIUBXubSOSAY5x9ns9mf/OQnb7/9dj6f93g81WodlXeNRgPqcR26wPj401+YQAhllBCVMUooIyphlBFGCVUZESglhFFCCWWUCOwpW1V7GvzuQekcMRp4W4yxWq1qNOlNJgPEZ8AwAPOLEFIul+12u16vLxaLWE6CU/bS7uGLs6sMUdNepq33Ie3UCaZKEEOQLmEaqlFPw1dogVv8wpf0KDJCSTQUjjKZjN/vPzw8DIVCyWQS0g0mk6lUKoEq7ff7s9ksNKfNZnOxWIQPQrNDaFO0Wi2XywWeUTKZ5O7JYDAg2kqlUtAwczgcvPsI+o7xfLyqqigKsVqtFosFBfq8apy/geD7GY1GaI/gnsBTq+3OfC//sR5nqixXCFEJUVuthqI0CVEVpQm+4c7O1ve////86Ec/rFYlp9MuyzIjxGA01xstldFavanTGwWdQWWUEYERgVAdfqGCXtAZBL2OCJQIeiroVSK0FNZSCaOE6nREoCohjDKVMv6TUUYp0f5HCMN/Op1ACBMEajQadDqh1WoqSgs4kcFg4LkC0iZVEo24LXwQIeRq+CBytd3QqYy2i+xB+gBINFj4gj3bS4e7ObTHg6SDz+erVCrAm6enp9fX1xHCYJ2Fsi+v15vL5URRlCQJZa4QtQqFQpz3PDQ0hES+xWI5OjoaHx/H8o2306jVaoFAIBqNjo2Noeoaaze73R6JRCYnJ7PZbKvV8vl8KHNFTtDlcq2vr4+MjLRaLXR/1d6Qjsvk2y9yQAQpn1qtBsFJQDZ4k3/605/+3d/93ePHj+Ft8Xw78usdKLI2HMb2pqK0Wo2mqjCmMIFSyhTGWq0W/LFKO38Ots5wm6r89nYg2c9zTy6+vepuiPsRIEGUUqBC1WoVgPGpjkMIqdfroMzKshwKhQ4PD0dHR2VZ9ng88EGJRAIde+bn5/P5vNvt3trampiYyGQyXq93f39/dnY2n8+LohiPx8PhMPhBqAmAO5ufn//4449v3769t7fn8XjgbhwOx8bGxmuvvfbw4cOpqSmgQoyxbDZ769athw8fDg8Pi6KI7y0UCvC2kUjkjTfeWF9fb7Va4+PjkI7XvgCqqna8kx0u6RyfxbmYzebIZHJms9XnCxAiECJks3lChP/6X//bf//vP15ZWZXlmk5nqNUaklTtl72imqp32Ce7qQpRFaK2BMIMOqoXqEAYURXKVMpUqjLtf4MX9T2dndb78z8v4H0+X3t13VDH6yRoGv4CBh7cLlG7HNMOHUVRQFYeGhqKxWKLi4s7OztOpzOTyaBLD2iKMzMzjx8/xhrqzp07jx8/HhkZicfjN27cePDggd/vBz8IZGhBEABk1Go1t9u9trb2uc997uHDh+Pj47Is4+QLhcLS0tIHH3xw586daDQKHERVVZfLtbW1NT09LUlSKpW6efPm2tqax+NBZcbk5OT6+nowGETQhC7V/LpYm4+nvVdY0l7YTBlWpu3ohKiqarXa/uqv/uqHP/zRwcGBxSLq9fp6HZQufb3eRE2pdjaivWTD8HBVVaWUEaIS1mJMoUQRBKITiCAIBE7n2Z/kmQCr0/iRtV/BsYJjQbqrZK+uG4Jph6DabrXMizBO2O+Jj1FVVcFLBK40Ozv78OHD6elppKJA6imVSi6Xa3d3d3l5OZPJDA8Pf/TRR7du3QJmtLKy8vrrr0NOSMv34f3ISqXS3NwcPxS6CbVaLYfDoe1Hptfr0Y8Mrc1AipmamlpdXZ2dnS0Wi9pjgosUCAQgBck0UtNcMVK7/SJHQwaDiRCi1wn5fJEwUqnI/+f3/q/79x8SJuj1RlUhklRt1Ftms9ViFpXWM36he4GGY2r+tUWYQliTsKaq1JVmQ1WaRFUEyihRKVEpIZQRyij+Q45sgHU7I+79z1ZLdEntFXVDWjSHtlNmpM2RAeLLGDtJL3A+RgF1A9A1mUxutzsSiczNzW1vb7vd7tNGQ+hHls/nBUFwOp2xWIz3I0skEqFQCD4I/FoI5vPoSafT5fN51KY1Gg2Px3NwcABJ2dnZ2Xg8brFYXC7X3t6eKIrwj+Pj42jX0eFi8E6S9uvBGNNGChfQDRkNesJIpVJzu5zr69v/+X//P7a2towGs81m0+uMer1etNrNZrPSYnhYHT6I90TpcAF8p1azytQmpapAmaLWm41aS2morSZjytMgiHWGRacIiNRP0ia8UdpLvoGfir2ibkhrWmfEAyIw3GT5GA0wGNM0GjOZTKIotlqtcrkcCAQikUgoFKpWq6fFhtCPDMlaaHfE43Eum1+pVIAHoWa1Vquh/SHUiEFEQoW9KIr7+/tLS0uIg8AGgNb1xMSEqqobGxuf/exno9Eo8sekFzZ0wfGgDpOkhs1mfuedD/7qr/7vcrlitYqCoKvXG4Kgs9nsTqfLYrESQgmhev0nBRYdBagdnoI8vRVKq9XUC8RiMlhMeqNeJzCVKC3KFMo0qBCyZOqJSJ4dzogxpqpEUZiiMFUljCEOPf+7dKHs1XVDPV8tPuEDnD5J6WDHXIocKhYyUNgol8vIyp8qU4Z+ZENDQ9FodG5uDorUkiRBU4KLq6MSEsRL3uAMtbKoHcPiKxKJIINms9nAQnA6nWAbTU5O7u3toakD64+VkhcgjPuCjFL6D//wo3/4h3/g/C9Ub4DJib64brfb6XSydj/Vjpqvfpggeyp4Qs1mo9VqNplMOj14Z4wQQmgP+gJlJ7pd2jvPh1OHH7zCdpXdkPYp8pCHDzX+msF9oJMUj9J5gzN0s0CYoK3OB/rDj1AulxljTqcTtGnUJXEaCKKVfD4PGWmAMm63GzWr1WrVZrOBzYh0GAJyURTz+bzP5wM/CAVlKE+D4g+8Gz6Fq8NGNMCpVCpI8JdKJbfbDe8D8VOkq1HZAD4BaUtP4Op480/QL6GkQ9oSTrx52cV8SWKx2D/90z9BFr7RaEDQhzGWSqUSiQTuFWiKkNcATcHlcnm9XovFYrPZIN+BchzO/8Rtx6L461//+ne+8x1Jkr74xS9+61vfwlDBt4O2ij9pW7SI3y7WLq/tiLY4QA4JhHK53Gw2j46OdDrabCpaz8/YM8ERY4xPljx4PwmYcKHsKruhU1nHJE8pheIHn5e0bosx1mq17HY7eI+lUsnr9ZrNZvgg+B2LxQIpaDiOntvxPkCTzOfzafWABEFART5QnmKxCB8ELyOKIsrrR0dHU6kU2mxhvZZKpcbHx6PRKODtYrEYDofR92Z0dBSBT61Wy+fzKOzQ6/VDQ0PxeBy5f6YR/eoOfLQL2ItpstyoVqvNZjOfz9dqNXgZSZL8fr8oitCfJm0VNDAz4NN5TtBisTgcDjgjzEz8oaAgfmwsnEym3n77/1NVdXpqxmazqSoxm80+byAYDHo8HofD4XA40O2y3qwj68oJn3go3QgRIYQxBg/IGPvoo4+++93v/smf/Oe//du//elP3zk6SpdKFVXlNEiiqqTZVLSPA6T8y1hr9soVc8DYs4kJolmD8H0gGArEB1UUVFPSCexGVVVZli0WC21rGCIR7nQ6s9msz+fLZrMOh6NWqyF1he1erzebzSJ0EkUxGo3OzMxsb29r9YAAUaPT4ZMnT0BidDqdjUYD+vaEkLGxsY2NjYWFhUQigQLIeDyOOvvl5eWtrS2fz2c2m+/du7e8vFyv1z/++OM333zzwYMHw8PDPp/vnXfe+fKXvxyPx1FA++jRI5PJJLdqpC0+2a1GwO3CeiKr1Xjr1uJ/+k//27vvvvv+++8fHByIomi32+v1ml6vm5qaRDyItrQWi7ksVbTCjFAdY4zhqfFmQRDi0OuNlXJZVdWfvfteoVC0Wq2rT9Z3d3czuYLdbhcq5Wq1Ho/HCaPgQDiIo958qi+MahvE4x0ZWC0ZvVKqGAwGnc6g0+kOD+KR/QODwfBv//qzWq3m9XonJycnJyfD4XAoFAoEAgaDjhCiKAr0iXQ63eXqC8TtlXND3esInjXrmJrQyKVYLEIaAlqf2AfBQiaTgYi6y+UqFAoojIAIWS6Xw/rL7/ejkh6hSjabRYU93871gEZGRjCVQZMIzXzm5ubW1tbu3LmzsrICJjQ8IyHE5XIdHBzMzc0dHBy43W5KaSKRQDoMG4eGhhqNRi6Xu3v3biQSaTQaX/jCF95//30k7LPZ7Fe+8pVHjx65XK7p6emdnR23210qHfCrO0k0xC6e0Eet3jCbjaFQ6Hd/73/+j//xfyWUPHm89dG9D1YfPU4exePxuNGk97i9VtHMVFqtVlFn32g0yuUycgJwFmhGyO8DMg92u6gqE5lMqlwqqYwqLfrBh/fy2dxIaKxUKDaVll6vd7ndAhGMZpOqqgpTmabGkLa7mfOBxE+b/+73+3O5HHIdGIGMsUwmYzKZkslkMpl89913dTqdw+Hw+/1uj/O1115bXJwfHx/Hx1FlxtfUl8VeOTc0wDogWD4EIf3BCxExW8KJpFKp5eXlaDQaDAaxsCKEYI0GDCiVSrnd7mq1CgJ093bwgwKBgCzLSLpDDwjdVp88eXLnzp0HDx4sLS3BUyAZHwqFDg4OhoeHM5mMw+FAKT/iIHgZVVWtVmsulxsaGtrd3RVFMRQKffDBB/Pz88VikVI6PDwMAiRjDMUikiRxeQAe+nG3y+/SBV+Umc1GQojX52o0GorKGo3awuLs/MI0qO3JZOrx49UPP7y3vv64VKoIguD1BThtFfg92rcNDQ1Vq1VUlkJAzuFwBAKBYDAgCIJep4seHOSyWbladbuHKlLVaLLUGy2mqHqjQSC0Wq/WydO1Le+/wCU9ofLRHYCT9qgDFIUWiU6nExWtzWazUqmUSiVAjUdHR06X/b333mNMMRgMwWDwl37plxYXF+fm5i5krd8ge+XcUHe6pztNRtrzvE6n4202eUspnpuv1+u3b99eWVlZXl7e398Ph8NQd+bRUCqVgsQ92uPxaAjbIRzTaDTQZrNer4+MjGxvb0MPCFDo3NzcysrK0tLS5uZmKBQqFAqMsXA4jIxbJpMBywnFImtrazdv3oxGo4qiTE9PP3jwYHJyEmWrZrN5c3NzaWkpnU63Wi2bzVYqlUZGRmq1GmjHjLFsNiuKYrFQxt3guT/WS2/oZT6yUxmgH96VTKfTMfYJIzkYDIyPh77+9a8TQpLJZDqd/vE//7/pdHZ/fz8ej6O2Hv4IzQJ49xRETNlsdn9/XxTF6ekZp9Pt9QbsdpvZbN7b26tUKoVCIZ/PV9umMGY0GqWyxGXzkYDjAsT8nLWeKJvN1ut1qJpB6gyamRD6sNvtGDNIgzQbisViqdVknU4XiUT+5m/+xul0/smf/Mnk5OTLvevPa6+cG4LxV6vDB/EtmKyQaYI+MbK/iOGRmwASfOPGjfX19cXFxXg8zuvR0ATR4/GUSiVAy0jAY7vb7eaQsyAImCddLlckEpmZmYlGo0CLvV5vNBqdnJzc2dkJhUIoiNfr9dvb2/Pz89FoFGXx+XzebrcXCoWFhYWtrS2Px2OxWB4+fHjr1q1IJIKOINlsFh3QgL8Wi0WTyYQybjhEVVVHRkYePVrjxF/W7s+Fe8U0dbwX2Q0ZjfpqtUqIHqGEorSMRj0hlBAVSAohKjIJXq9neHh4+eZNQogk1ROJxPb29sOHDz/66KPt7W20eIPEJS+RrVQq/uFgOp1e39xutRomk4UQNRwON1vK1MwsIYQRFY1Vs9lsKpUqF4omw9PuLxgDiIOQaujGBxhjDoezXC5XqzVVZYRQyB7odHpoY+r1eoPBqNM97W3darVaSkOSKj6fD4SPSqVSr9cvnQDIK+qGehp/07TrdojD8j6rSLVUq9WJiYl8Po++htA8BFDdL1PGgeeOTBm+BXpAKH+HHpDRaOSQNvTMrFYrEHGI8uE9kSQJxfRY3Pl8vnq9nsvlJicnI5EIcnloR4PlG2MMwBP8LE/YGwyGdDptsViqch0+mZc1dBQkXGQfBOMS91x2Gq8le1oURnkiqdFoGIxGQogommZmJqanJ95662utFms0ah9+eG9nZ+vevfsbG08kqWoyGfR6IyEkur9vNJvtVqOkNI06fb6UT8bjFVne2tiwORx20ao3GT1O19zc3PLijWq1qraUZDJ5cHCASBYjAbNax2lj+IGCz0lMcGEGg8Fms3FmCQ/VKSV6g1CvVxVFAYg5Nze3sLDwUm/3edhVdkOCIABl5KoOiqIMaLbByUH8d+wPNSxJklCixRgbHR0tFotutzsajS4sLDx+/BgiraAC8dEGXIlotNYgCYqfnKHjcDgSicTk5OTu7i6XPcMCAeQXXnZACIF7Qgd6AOS4NNCOEOCAvgjWTKvV8nq9iUQCGehkMsnbKEJOhIvVWq3WbDZLBaaoTSowg1HHiEIFRulTwmSz2RQEvcFgUlVCCNPpepSAXgATUFaGn/CZomjH7x28xA4FBexsNFCjwfKVL3/xF776pf/wv/xutVqNRg8fPPj43r37u7u7xXxBVZVCSzGYDI161Wo2yZUKY6pBp2NKqyZXm+Vy8iBGBCparDabTVVREkSNRlOj0VBVJgg6s1lvMpk51QstzEDO4ow2k8lULBbR2LLRaKBvAiFEVVVE5fV6XacTqrUGRPJyudybb775Z3/2Z5cOnyZX2w2di7F2dw3MRVzo3mw2ZzKZ8fHxnZ2d6elpjit3vJn0ONlmi8UCDOjBgwevv/76gwcP5ubmkBmBXmIul0OchRAJGbd0Ou3xeKCshsAK+4uiiAMGg8FSqQQ0IRaLeTwevV4fi8XC4TCiHrPZvL+/PzMzUyqVoK92cHAgaPqy88vvZlSRyxATPadRyhTlKY1ofn52fn7213/911utVq3W2Fjfeuedd+7du3dwcADQ0GAw6PT6erUmK5LBYEDuvNFoHB0diaJNlmVJklhbZZG0U+ykjTMSQtAZBcq/PCrnQw4IEWYdHgqZTCaDQa+oeiRMlpaW/uiP/ujw8HBiYgJz2Kd8B09j127oGGPt2g7A0lirE0J4Aj4QCBwdHQ0NDaFog4t+ahlJAzxRrVYbHh7e2dlZXFx88uTJ9PR0MpkEqRqFr9Bpr1QqqAtBU+lAIJDP59HEFWtDFHaoqhqLxdBJERnfYrE4Ojqaz+crlcrCwsLGxobP52s2m5lM5saNGzs7O6IoIs3H2yV3n2Q/iJoxclXdkdBuD62229VhldRotG7dXn7js58RBFIolDY2Nu7fv7+9vf3+++8zxlSm1urNak3CXRIEIZfLEkLQIkjTqaVht9sg4WCxmBGnS5KUyaRtNhs+azKZIMxIKSWEoe5NUZRWq8mYCt8EMqTZbBRF8Xvf+55Op/N6veQSThLXbuip9cugAU3ARIS1FSJerNvtdjuEgQG4oPmy9mjdh+0wdG0dGxvb2dmZm5vb2dlBF0Nsd7vdrVarVCqNj49D+r5arQ4NDaH21el0RqPR6enpVCplMpnQeOvGjRurq6terxeLLI/Hs7+/HwgEvF7vxx9/fOfOHcBYXq93fX19dHSUEBKPx91ud61Ww5KT9JL+4t7n2RTPlXVDnD9FNKXLiqI4HDa+j8vl+Nzn3vjc595QFMYYi8fjKysrH3300dra2tHREa/1gQNSVbVUKqEzHW9dB1fCG2GCdya0O1bzOQ9MWqyLWVuKt9FoNJo1SmkymXz77behqE0IKZVKDofjU7ptZ7RrN/SMdWfQOOoMYAhzIyZJwDSo3hJFEVRp7afICRZljUYDjYDm5uY2Nzenp6djsRhW+0CFoBP04MGD27dvw4PIsgwftLe3d+fOnYcPH46NjdXrdQgzfvjhh8vLy41GY29vb3JyEq3KXC7XgwcPlpeXC4UCsvvlcnl4eBgdsrxeryAI+/v7Docjm80T0plA5Pek3UHgk9t1rKTOJbWOCYnTNWCK8pSUKAiCXi/odJQQOjYWGh8P/cqv/DIhJBZLPHr0aHd39/33PozFYrFYjDHm9Xq9Xm+z2SyXy/F43GaziaKIiAZ5WDRHg2+q1+uA/+CPaFsPC6oJqmIalQAAIABJREFUYIoRqgqC8F/+y39BAwVCiCzLl66Sg1y7IW79oiGAiIIgINgBjohiV0RDSMzn83mbzYYFfM9QqJ8z4tEQetij9yGKQgghsiyPj48/ePDgs5/97Mcffzw+Po6qRZvNdnh4ePfu3ffff/+1116LRCKCIITD4Q8//PDNN9/c3Nys1+t3795dX1+32+12u31ra+u1117b3Ny02WwTExMoQ0OibWRkJJvNyrK8uLj4s5/9TKtG2EFi4LeF0qsvPaE1LrpECFFVYjTqdTqKB4RCU0qJqpJ2EayOEDI6GhwdDaoq+f3/8AeMsXQ6/dFHH/3kJz+5f/9+LpejlI6NjaGHHVqGoHoRPX9AoeT1ifCAGIdcggYV126P8/d+79+HQiHS7tsBlfFP7U6d1a7d0DGGomcUHEqSxCUZVVW12+2ZTAatnIPBYCaTQVR88lCItLGhzc3NO3fufPTRR3fu3Nnc3PR6vSiadbvdu7u7t2/f/vjjj+fn50GPBFdoamrq4cOHn/nMZ9bX1wOBAGNsZ2fnjTfeuH//fjAYtFqt9+/fn5ycrFarlUplfHycS9/HYjEcv1qt+v3+RCJhsVjGxsYePXrk8/nS6Sx5NhrCLz1JQ1c4GsKMgkUZmM2g6hiNn7wyCFvIJ5X0cEysVqshsWU0GgUjbTQUm936jV9+63/81f+BEJJIHEWj0X/5l3/Z29vb2NgoFArNlglsDFSlMsZ0eiro9EaTXqdH7yFFrzcQSgWdTtARWZZaSmN6ZvorX/nKL/7iL6LjJgp3CSFIsF6umOjaDR1jtC31ACIsUqfIdiNTtr6+Dgbj+Ph4Pp/H4z+JA4LxTNna2hrY0khyAR2AeuzBwcH4+DhQZFVVuyvpofAQCAT29vZCoRD6UoTDYfRoRx+00dFRuKTR0dFMJoMlQKFQQIPQTCYzOjq6vb3d7yZ0/HLlDesgzp/iHGjShoo4xMM/AloZKK98z2ZTMRj0RqOdEMIYabUUr9fr8/k+97k3CCHVan1/f//jjz/+8MMPHz9+LEkSWq2gPbTNZrNarfCAfA1ICFFV1el0fulLX/p3/+5/4ikRgNbgXlwuH0SuvBtiGvlkPM5+e3YrXbGnGlc6VJOCQAS+htPphPxzOp0eHh7GTzRE7Cjn6VjOcK0fJEeQhrfZbOl0emhoCGX31WqVtwNDrxs08wN1SFEUSL5CgxFkSEIIiIigMtbrdYfDUalUUIiAWn/0+QQTEs1LQX0CY0UUxWw2q9c/bZkDlBTwPD9hQKRms1lRmE5HVZXo9ReQN3Q+xpfk3SpouCfdH+m5pzZ6opS0mdyEEMIYMZlMi4vzi4vz3/nOd6DY+/Of/3xtbe29997b2toCSuh2uzFhYCKBAN53vvOdt956izw7bnHOl84HkSvvhp7ftCWISJOBxIHSHvQadDqd8Ajo1dPzOJRSuBUUeXENM4PBUCqVUIBmt9uRkTEYDI1Gw+l0plIpCJ5hNkbhdS6XC4fDBwcHgUCgXC7jGyVJGh4eTiaTlFL0qh8dHS2Xy7IsA3hyOBw4oNvtBhszFApFIhGHw+FyudLpNKdWD7gbr0409KKtQ71Mp6MQk/nGN976xjfeUhRWKpX29/fv37//wQcf7OzsEEIODg68Xu+v/dqvffWrX717967Wo112u3ZDxxjeTAQyYHOgmIMLGw4NDWUyGfRf7lkoxI8DcjP256WtsiyPjIyAP51Opw0Gg9lshmBgPB6fnp7e29sD0wf0RUmSxsfHt7e3Z2dnj46OoN0FFGlvby8QCJjN5sePHy8tLcViMavV6nA41tbW5ubmKpUKpzWCYLK2tra4uChJEuSxE4nESbxMBzz06tlpi9f7BYyMr3TxP4NBx6NLnY663U6n8+adO7d+7/f+PTZWKpVqtep2u7UU/6vxLK5sUH1exh+2quliBiFR+KB0Og39eaRR+x1Hr9eXy+WhoSEEONlsFgVfDodjd3d3cXERgQlU01BiNjU19eTJk4mJCcgnI7dlt9shk4ZKWmitmUymQqEQCoVardbu7u6dO3f29/cRnGcymYWFhaOjIyTFQF0xGAx8e6VSGRkZKZfLWnW3joR9F1CN31/0vb/Kxu+jdt6i9KkEEv4E3ANgCIt3n88HxQ/Qi66GDyLXbujkxkn0WI1DQBqZsmQy6fV60Uu+38fhcdCYjO8PESJt3zHoBHX3HUOBPopjeX8xNJIOBoOApSRJKhaLy8vLq6urTqcTdWcOhyOZTBoMBq/Xm8lkms3m8PAwGG7Y7vP5+Hb0CBpsr3owdK7GKbIcUkQhCGRkIO8JoFA7tJAtpZSiIuQK2LUbOsa08kO03dEMgUahUPB4PB3RTb/jnC0aWl9fD4fDiIYg4QgtarPZbDKZEonE9PQ0KukJIbVabWJi4sGDB1NTU3q9/vDw0OVyQeof+rCiKAYCgfX1dZDosD0Wi6Fb2ZMnT7xeb/eaSxsQvfIrshdiTNMfEfcZtGmIYSORD9KsLMuoncYHL5eaxwC7dkPHGCfd84kL2XqQiZBsKhQKyHANiIY4NuR2u/P5vNPplGUZMc7IyEgkEkHeXVVV8CSBDYXDYXRwFdo97MGchB4+QKLx8XEQmjwez/b29o0bN9LpdKlUmpyczOfzqKhMpVLBYFBRlIODg6WlpUwmg+0IplqtFt+Osx3ga67dECHqif/rf4h2+EOfNUIIsrGQKEKSHpxGEOsRBz1lUV8Vu3ZDx5hWf5q03RCgaHgiLIigyzmAK4ShYzab+f5IuiFT5na70W6MUspVNSBmhBw8Y4xn0HEoLAkDgQC6tmJ9Nzw8DDqizWZLpVKiKEKGzeVygUPk9XoPDw/tdju2Q4CNUur1emOxmM1m6zht1u7hx6/iRd3oS2bCiX/2NlXTkZUTSkibIoBQCLMahh9yF4wxdJTFnwMIKJfLXjk3xBcXgsZof+O1iFrUVlVV1IJKkoSqer5zv++FW0mlUqOjo4lEYnh4GNAyKDk86sbXoZQfXcy4Bg0g5Hq9jiJbqMqi5h7FblarFa3HKKX4LDTPOIcI3CJoV5fL5XA4DHVBdDGDDBsGPaoKUGrAlwlwwUajUVVfrWKOZ0045X+9DfUZnxy0j3JTR8aAUqr9YL+2jpfOXjk3dF5GKYWP4DkLrgjR0zhb+tGjRzdv3gRbGus4pOeBU6ImyGAwQLgDHgEToMvlgoogmq9CrBp4s16vt1gsaP2q1+vh4AghjDG32729vT02NqYoSjabDQaDuVzOaDROTU29++67Ho8nFAodHh7ybkjHXvU538dLac8bCl1bh13frLMbSitkWUa4hMVUv51rtVogENjd3V1YWFhfX5+amkJxRqPRAOcI/P1isagVoubxuU6ng7JaoVBATi2TySwtLW1vb3s8HhTKT05OZjKZer0OxiMhRKfTxWKxL37xiysrKzqdbmJiYmNjA0r4Dx8+/Na3vpXJZIAuIQo7SUeHa5D62s7drt3QGY22JY1RCU3bovH99oda48TExNbW1uzs7P7+vtfrhTR1KpVCsUW1WvX5fKlUymKxxGKxhYUFFKCiDmNhYSEWi7lcrlgsptfrp6am7t+/PzExgRPw+/1ra2ujo6NWqxVyi5RSRVHGxsb+7d/+bXl5WRCEnZ2dmZmZXC6n1+s/85nP/OAHP7BYLHfv3j08PARidZKrhhu69kTXdo527YbObih25Tqeg4MEHuCgQev4+DjqS2VZRgNFREPopAh9j9XVVb1eb7Va0ZBjdXUVQh+iKLrd7tXV1Zs3bxaLRXTsPDo6unPnzuHhIT6bzWZxhkdHR7dv39ZuB9q9t7e3tLTkdDrX19cppdAeQnednnaNUl/bi7NrN3R2Q8ICpGrUrA5Y1JxXNAS6wP7+/t27d/f29lqtFvqX+f3+1dXVkZGRjmgIevtms9ntdiNPj86IIAFsb28PDw+jPxpjbDAPpQMuvbZrOy+7dkNnN2jKgNmM3wckUM8LGzIYDPl8fnZ29vHjxz6fDxqM4CJNTU0BG/L5fBwbajQaZrPZaDSizZnNZovH46A75nK5hYWFTCZzeHg4Pz+PCu/Bl/xs1ub8buW1vdp27YbObmASosYHvw+Ihs4rUwbidTKZDAaDsixXKhW/3491Gc+UgUZANJq29XpdFEX0/0NLj1qtBsE2nU43Ojp6dHSEJP3Lu33Xdm1tu8puCC8wZ/3glw6i0JkPjrwSVO8EQahUKrIsg7OjPTKXPZdleXh4eGNj49atWysrK/Pz86BHoxoWjgYEIoQwiK1wzqqqwluhsBYCI6AaoeLfZDKBkw39UC6fDsIbaQv4oxc2epOB32gwGJxOZ6FQoJTCzQmCAKFbURRLpRIhBPgX7wjQU2rn2q7teewqu6EXYVoiGdLzlFL0EUN3Vu6D+E+YyWSCWiO61EM7pl6v4yUHLbBcLrvd7lKpZDQa4eMYY6Apov6j3VLGgo7G6JJosVjQlr7RaKiq6vf7eeuxTCbDu1zZ7fZms4mO9bIsY/WHLmYofE2n0wOaW51QTPLaru0Mdu2GTmpaB0TafFaswkRR1Ol02hqfDio2Qgze1yyVSqGvmcFgUBQFPGzolkUikdHRUYQ2cFJWqzWZTIbD4Xg8brVaTSZTPp+HdFm9XgcqZDKZIARhs9mi0ajL5fL7/SsrK36/H4xqh8OBTq0QhLXb7YFAIJFIJBKJ5eVlRVG2t7fD4TCEHHvas/L+fOOLutvX9krZtRt6aj3qODTG9+G/sHaHaNSIwmt0K8Byww42mw0iG1BrRJchdBay2+37+/uLi4u7u7sIfCwWi6IoqLpYX1+fnp4ul8vQsUc2DVk2NC/D14En3Wg0ksnkzZs38/k8FoNoZAYGNqKwTCbjcrlmZmZWV1dlWV5eXk4mkwNY4B0V9rjQazd0bedi127oRNbtiQD6wA3xBdqA3izc49hsNvQOQxUIiul5P7LV1dW5uTnUZ0iSpNPpHA7H3t7e8vLy1taW0+lEcIRyfLgYYEx8OxL8fHsgEHjw4EEoFLJardFodGhoiBCCL9Xr9Wtra2NjY2NjY2trawaDwWq19jt/1m4feJ2wv7Zzt2s39NROFQohGgJki1/QTaFerzONaY9/tmio1WppoyHIgPaMhvL5/M2bN5PJZKPRCAaD2WwWJ7y3t/fVr341Go3G4/GbN2+Wy+VMJuNwOARBSCaTS0tLsiyvra3NzMw4nU4u9NHv/kASmzuia490bedi127oeOv2RIQQFMQjB4fEFkRgIeDQ7YxeNDbEwSCXyxWNRoET1ev1iYmJn/70pyMjI+Fw+NGjR2azORQK5XK5arUaDod3dnYURVleXk4kEiBwD7gP8EHahdu1G7q2c7FrN3Qi616JcDcEhAg17lxATyvTgz+fM1NWKBQg0NEvUwY52mKxWCqV/H4/Sv+hSTQ7O1ssFtPpNMSqM5mM3W43mUzpdBp8yMPDQ5vN5vF4kKHvdwe04eG1A7q2c7Sr7IbQeJdSyuXEuqEN0Ii0lfGc6QPrCGr4qwgRVaBCEMer1WoomIBPgfQPvBUhBL3AcrkcUlR+v79QKEASiLQ1jCCiZjQaIfYKH2c2m7FqQ6dGfBfOh+NKCLUqlYooiqA+ouIfFO1kMqnX6yGQ1mg0/H5/pVKRJMnv97darVwu5/F4UH2GluqId0wmExoTaVkImrv0gh/etb1KdmXdEIeQEaGc9uPHArFcY0jbURPyrIQQWZYh8wpHAwhJr9czxtBzFbqx8GU8GpIkyePxoG8nAGyUbkDKgzFmNBqLxaLT6QSi5HK54GLMZnO5XA6FQgB3wEgE9pTP5/1+v81mi0QiFovF5/MlEgmr1ep2u1OpVKVSQZ4+nU6Dlj3gfp7ktlzbtZ3BrrIb0kY0J/9gTySo325wQyglQ1Rls9lQVCHLssvlgoorpIg6sB70EUOAwxirVqvBYDAajaI5p8FgQK/ncDgciURsNhsWX6OjoyiXd7lcBwcHy8vLjUajXC6j79jY2Jher0e0hSw+msHG4/GFhQVofSCjn81mvV7vyMjIxsaGqqrT09OJRMJoNJ79jl/btZ3VrqwbwmoCv3OMZkDNV7+kWL/9u1dqpM1pNJlMEHtFi1RJkhATaXlAT548AQ8I+I4gCMiULSws7Ozs2O12CHo4nc4nT57cuHGjVCpVq1Wz2by1tYWsVjabnZ2dfffddy0WC5r/LCwsIMDh/ciMRiOIQtPT0w8fPqzX6zdv3oRcEXqr7ezs3L5922w2P3r0aHR0dID6Yk+hj+ul2bWdi11ZN0T6kH1O+5F+pmUMccgJpVhAmmOxWCAQSKfTDocDGLYsy+jJs7u7u7y8vLm56XA4UAEP+cSJiYmVlZWZmZlCoYAuY6VS6datW48ePXI6nRaLRZblubm5zc1N4ND/f3tvHiPHdZ+LnlNLV1Xv+6wcksPhZlMUI1myJcdKpDh2LpwnX9u4CG4QGEGCa2R5CQTkGXjxfTAMG0kQ3yCA8d6VbcgWkFiBbcmLbFkOQVtSEsu2bFlLxEVchkPO3jPTe1d37XXeH9/0YbGHpCVuYw3PB4HoKVZ3V/eoPv6W7/f9Tp48ed9999m2Xa/XB/aO+b4Pf9iN+iB4GPV6Pd/33/72t8/Pz8/NzR04cACDr1f4yGKeQ+AGYSvTEInELAMioI24nD7oyufzP6OFbaxyhQF+qVRqt9uweX5T0RBm4nk01Gq1er3eFaIhlJkwI4a9Y9hHpijK4uLibbfd5jjOf/7nf+7atatYLK6uriK/O3bsmKZpt99++/T0dK1Wu0LDfkBFjS9G8JLAdcFWpiH4IvKwJZqmXRJvPBQihKAazS5edEf7A+igg3w+3+124Z7xZmtDoCdeG0qlUmiKXa42xCL7yKJ7x6BmPHv2rCRJ+/btW1paqtVqhUIhFoth22IYhjCoRhXpl35wUaUWuO7YsjSEZTugIRLZCHTlZ73xewwOsIQQlKixQQwioEQiARcOy7LgHwTCelOdMszro1OWy+VgvnGFTll0HxmllO8jwwKPUqlkGAZK3eVyGbNmIyMja2tr0DF2u11Usi73eUVGJnDjsGVpCH2rZrOJ1YYIW1h/B/RGhJfB5c5HBIQmPackqA193x8aGoJcAHar7XYbfj2QEUF17bouiAnP5YMdWPiBg7AWwqgapdS2bUiuwV/YXIY4Cy8FQw/GGBQDnuc1Go2JiQnXdZeXl8fGxjRNm5+fLxQKmqZVKpVEIsF32MMODS5uhmFAqYR8k3seYS8j6adjv4zVBQTeEMT/R5fGVaceiHqw5xd3Nejmcupn2t/IiL31CGewrtPzPMx5pVIpWZaxfQxRCTbZK4oCSaRhGNw/aGFhIeofVC6XZ2dnUdtuNBorKyvYL9RsNsfGxjBZBnNY0zSjtXwR/gjcNAgaGsSbqhBdEsiz4DPN9daxWAzpleu6rutiFgwWi5qmcXtGPlNGCInH4wsLC3v27KlUKp7nDQ8PdzodyCM7nU65XIZfB3bVX84/aH5+fmpqamho6MUXX0ylUnv27Dlx4kQmk9m5c+fJkyd7vd7U1JRlWfV6Hb5oA0wkyEjgJkDQ0DrerG7ockDahcwFoRDSLiwCWl1dhSkHJuPRwrcsS5blVCo1Ozu7f/9+dMoopaZp7t69G8vINE2bnZ2FnJoQksvlFhYWDMMYHR09duwYREDwDzp+/HjUP2jXrl2vv/767Ozs/fffb5rmq6+++mu/9muNRmNxcXHPnj2pVOrs2bOMsaGhoTAMue1ZdCZOQOBGQ9DQRbguoRDMoT3PSyaTaMbD6/6SPkGX8xsihKTT6VOnTt19990zMzOO40xOTmLTISGkXq9PTEz0er2FhYVDhw7hpS6pD6pUKsVice/eva+88oplWdhZpigKFI/omhWLxVqtVq1W4UYE8Hm6a/k2BATeCAQNrePN6oYuBzTL8FwUm1Grvupo6OWXX96xY4eu67Ozs2iZkUtFQ6jyHDhwgPsHZbPZarVqGIaqqidPnhwdHR0fHz916pQsy5AvhmGIUjrecc+ePaurq/gUUW+A6/P9CghcHoKGLuDaQyHSVwY4jgM1EMIi+KJdXW0IOzwg/zFN83K1IfTdp6enuX/Q8vLy0NCQ7/u2bW/fvr3RaCwvL2/btg0ZInQD9Xrdtu2pqaler3fy5Mnx8XF8ClEYEriZEDR0Ea5L9gF7fCz/QaGaMXbVnTIIsmVZ7nQ6V+iUDfgHpVIpbGHEi0CXODQ01Ol0TNNMJpNYasSFRZIkjY2NYVMQPgXnIEFGAjcaW5aGuFAoCnJ5s1d2GbzZ94WeSNM07CyEthDrDNHLB+kAoBWocki/rgTPM0KIJEkYcMUyVUiNCCHwEkKRCOdDqIkz4XYGDRFEA4yxQqHg+/7y8nIqlSqVSktLS7quw6Ko2Wzmcrl0Ot3tdqHzBmnqut7r9XCdmJvzPC+RSKiqwhihlDAmhjkErg+2LA1x2TQ3NhswMP2lT3+zb4cHUfLiQySyLHMNESZUMc5KCOFbW6HG5ltbyQbdUKfTgXoQkRRGVbA3kYdFsiwjnvJ9H6MkpVKp1+utra1ls9mdO3fW6/X5+fkdO3YwxjD4Chf95eVlxlgulxuYHeMf5E19GwICbwpbloauGm+2QjRw/sZICkpr13VN00RJKJvNdjodMA7qRM1mEzvsEZsgj4vH40tLSwO1IfhPQx2uaRrOR5FocnLSdd35+fnx8XFN02ZmZgqFAkLCfD5PCJmbm0skEjt37lxdXbUsa3R01Lbt06dPJxKJqakpSmmtVkMgNvChrmCQIiBw7diyNMQitmfcnOw6+g1d7vyBwAEZjaqqpmnG4/FarVYqlVZWVorFIurNmEctlUpY7FMqlbB1Y6Nu6Pz58/l8Ph6Pr62twdXMtm3efRsZGYHj/Z49e86cOWNZFgrVtm1nMhkkX+VyOQiC+fn5fD6fy+XOnDkjSdLBgwd7vd7p06cppaCtKJ8KGhK4CdiyNHR1uMZQiD/mdzLpR0N8SLVSqWCmFKpl0zTL5XKlUkE0hPUYpmmGYZhOp0+fPv3Od77z7NmzlmXt2rWLrz9cWVlB439lZQVapMXFxUOHDlmW9frrr+/fv98wjFdffXVsbOxyPkTYfZbJZE6ePEkpHR4e9jwPURg+Bej7jX8VAgJXDWWzL+BGYaA2xI9g4P6S5/OySFSzd7myyOXOj4IfxzWgJzU0NAShYKvV0nWdUsptiQghiIbS6bTv+6Zp7tmz55VXXtm9e7dpmufPnwdZQHPUbrcZY+VyGa20XC537Nix4eHhUqkEQ7Xbbrvt/PnzkiRt27bNNE0M0FNK8b633XbbiRMnJEkaHx+HrAk2/olECh+EB4+ChgRuNLYsDV0FNjLLVZzPR+15eQjejKlUqt1uG4ZRr9eLxSIs6xljvDaEjamo9ViWRSmNx+OLi4t79+5dXFzUNG1kZKTT6RBCcD6ejvN7vZ5pmpOTk41Go9lsbtu2zbKsmZmZcrmsKMq5c+cMwwAZ1et1TdMkScKeIs/z1tbWVFVljNm2jWSQJ2LcqkkwkcANxZaloYHaELuiETXHGySgK5y/UXeDg9hWZJpmPp+HXwe6ZoQQ3ikjhPBOme/7XDeUSqVg2wiXD/AFGm1cixSLxer1uqqqWMuhKAo6ZTD6YIydP38eFtSe562srExMTNRqNcydoOWPy8tkcvhQPCkjIiASuMHYsjREKY3FYtgURiOeZ1fdiR/A5UiNl3ijYRGMgUAiQRDAewhcA7byPC8WiyEzwo9wSuOLyUhfVQRfoV6vl0wmCSGmacJyCCSFfR747LZtO45TLBbb7XYQBLlcDgrJMAxHRkYajUYQBPl83vO8breLwlA2myWEYmMaJE7Y2ojNIpqmGYZBKQkCJsuImMTeRIHrAFGivs64nNxGkiTXdaEwdBwHZmbgowEbENzznufF4/EwDDEXAnNFhC0Q+HS73W63C6WP7/u5XA6uQ5qm6brearWwjAw8mEgkCCHNZjMWi2Wz2Xa7TSlNp9O9Xq9SqRiGMTIygrLRJnxlArc8BA3dKLCIVwal1LbtUqkEwyBJkprNZqFQsG07Fos5jtPtdvk+MoQ/8Xi80WhgkwfCmXw+j3BJUZS5ublisVgsFufm5sBiq6ur3W53165doLnJyUn4uqJJ12w2GWNjY2Pdbnd2drZcLuu6vri4iAZ/r9ebmZkhhBQKBTHDIXDzIWjoKnG5oZBofy16J2uaVq/XR0dHe71ep9MplUpra2vQQBuGgcY530dmGIZpmhhMrdfrhUJBVdXV1dVUKmVZlu/7+/fvX1hYWFhY2L9/v+/7lmVt27YtkUi89NJLqqrGYrGXX345Ho9v27bN87wwDIeHhwkh6KDt27fv3LlzjUZj9+7dYRgePXo0Ho/v2bOHEFKv13G10eu/uqEWAYE3DkFDNwr81gU3Qe+ztraWSCQQiUCCiNGtZrN54MCBY8eOZbPZZDJp2/Yl9T6Y54jFYidOnBgfHx8fHz9x4kQsFtN1fWFhwTTNu+66C/Nld911l2maMIRVVbVSqYRhuHfv3na7ffz48R07dkxOTh4/frzdbu/bt48xtrKyAv4aIB1BQAI3AYKGrhJXiIaiKmR+MjyGhoaGPM9zHCefz2OX/BWioXK57Ps+nMkURfml0VA8Hn/55ZdjsZiqqi+99FIikdi2bZvjOLDoJ4ScOXMmk8m87W1vm5ubO3bs2IEDB7Zt27a4uOg4jqZpqFjxDygISOCmYct2yn7V4LpuOp1uNBrJZNJ1XSgY0SBzHIcxhtoQisqoDWF3q2EYWOzBa0OSJKE2RAiZm5tLpVKSJMGxDHb3hBBIrk3TjMVisiw3Gg1ZllEbajQaw8PDuq7PzMzE4/F8Po/2vKZp1WpV1+OcQK/FaUBA4I1D0NANRFRdrSgKVidCxBSLxTDpivl4SinvlGEMDVt6wjDEyqAgCCzLwji+qqpaDsnIAAAgAElEQVS5XM40TUJILpfzPA+dMsdxWq0WZI14oGkammKGYbiu22q1EolEPB6HjrFYLCYSiWazCckSfDyCQDCOwM3Glk3KoLWBxRfUOmhsX+78K6RXlwS7DPj+MhRluPyHb3YFO3ie53keMjJuRWLbNqUUtIJzZFnGng+sQguCANOnjUYjkUgkEolGo4F11aurq5qmFQoF0zSxLCiZTC4vL+MyXNeFBxs8jIIgGB4eNk1zbm7OMIyhoSHHcWCbjQvG+6L9D+kQLiyTyfh+CNEQEYmbwHXClqUhqAdhR08j82U3+n03MhenMwgpoXtUVRVGYo7jQLiIQXysrseSDGRhCFJs28YrrKysoNZj27Zt2+imraysYCptaWkpnU5v27ZtZWXl/PnzO3bsUFW11WopilIqlTzPgw1jIpFYXl7GmiDLsqanpxOJxMTERLVa5dc8kI6x/rS9UFQLXHdscRpCdoMHYIGb8Nb0UjOxjDEe0RBCIFN2XVeSJOz24R7VXHkIwyBN01CcppRCPZTJZObn56ERn5+fz2Qy+XzedV1ZlovFouu6MzMz6XR6ampqeXnZsqyxsTHHcaanp+Px+M6dOwkhUC0xxmZmZrBJMRaLLSwsxOPxgTYZQC9lJLDxRwGBq8OWpSEAq5D5jzfhtrmkihoHkdpEaQhj9Jiqj8fjUe+htbW12267bWlpqdfrjY2NNRoNQoiqqktLS6ZpHjp0CGndoUOHTNNcWlpCugfz6R07djiOMzMzMzw8nEwmp6enDcO44447TNM8evQoIWR0dLTb7ZqmuWPHjtHR0enp6bW1NXTTyMVjcdEh+42JqmAhgeuCLUtD+GccxV0Ssaa+me8+0LMHEFyg+EIphcfQyMiIbdu9Xg/LV3VdHx4efvXVV8fHx+Px+NzcHOwTfd+fnJyMxWLPP/88oiE8mJycJIR0Oh2UhObn5w3D2LVr18LCQqfT2b17t2VZL730UiaTuf3226ESisVihUJhfn5+ZmZmcnJy27ZtmHSNZmH8G6P9CV5JkqLUI2hI4Lpgi9MQZqlof2T8ZkZD7OIJe56p8RMkScKCDSiquY3ZVUdD6PF7nrdz507Hcc6ePXuFaIgQgvfavXv30tLS+fPnk8kkvi4SySvBRBdHQ/h0N/qLFLiFsJVpSJKkZDKJisxAjeOmXQOJZDSwzsCtjAdoXUVrQ/l8HrZEV1EbkiQJdeg3Uhvq9Xrj4+Ou654+fToej09OTlJK6/V6NBraqBgSxSCBG4EtS0O4YXRdjxanb06n7HLNsmhkARqCdpF3yhRFQaeMMXYVnbJOp7O4uJhKpdApm52d3b59++U6ZRiLxTSsYRjnzp1rtVoYPePgNCTYR+CGYsvKFymlvu8fPHgwmUxi3xaPRC55/i/9Z59dPK16udfhNd2BEwZiMdo3Ws1ms/V6HUMeUDy32+1CoeC6bhiGuq5j0RiGYGVZxspDbCXzfR8UUywWscY+m82CntLpNDK+drs9MjJCCMFYGYimUqnAAk1V1ZWVFbTYer1evV73vADcjRfB0iHS92aTJAlLygghYUhuPKsL3BLYsv8foUGuqmo8Hk8kEsjLrv1lr3tcgAIWZlahk0YlC7zTarUKhYIsy7VaDVFSu93OZrOKojQaDV6D930fIx31et3zvGKxKElSo9GQJGn79u3Ly8uzs7OFQmF8fLzZbMKUulQq4XE8Hi8Wi77vdzodeIb4vo8UDyIA4QYrcKOxZWkIUFV1YmICPalrZKLLaWeuEfCBjsVitVotl8vVarV8Pu84TqPRSKfTY2NjZ8+edV13cnKyWq3Kslwqlc6fP4+6NeTUyDpbrRaldHJyMpFInDlzxrbtkZGRbrc7MzNTKpWmpqZs215YWCCEpNPpMAzn5+dzudz27dt9319dXQ3DELJJVVUh45ZlGcZs3EUX36EgIoHrji1LQ7zXc+edd/Z6PdzqV7FvKxoCXAsTbZgSobxghM1lhUKhUqlgRkySpHK5XK/Xz549e/DgQV3Xjx07Njo66vv+7Ozs2972tkwmMz09TSkdHh4OggDLFMMwfO211zqdzp133mkYxvT0dCqVmpiYaDab586dI4QMDw8jyHJdd8eOHbVabXp6GtvrDcPA8mhCCJ/ewIAbVzxAZ9D/OKJbL3DdsGVpCNVo3/ff8Y53sP4E+VWv/btBoRAhBGt5yuXy4uIirIUymYzneZVKpVgs7tmz5+WXX7Zt+9ChQwsLC4qi7Nix48SJE6Zp7tu3jxCyurqKltnS0lIYhgcOHEin07/4xS9s2963bx+mxrLZ7OTkpCRJlUql2+3CJRb++UNDQ9hkv7Ky4nkehv4JIZqmdbtdEFAYhggkb840jMAtiK38fxVSiXK5PDU1xQ3q3+yLXDIUuo7RUBAEiUSi1+sVCoWFhYWhoSE4Rl+vaGjHjh2NRmN6ejoMw9HR0WQy6TgOVoMkEgnLshYWFoIgmJqaKhQK58+fD4IAdLOwsBDdzAEa4tGQgMB1xFamIX7bvO9974vFYii7XsXr3LhQiBCiKEqn0xkZGanVaslkEtt+GGPXqzY0Pz9fKpW2b9/e6/WWlpYURclkMo7jSJKEBiJ2mc3Oztbr9fHxcRSAPM87c+ZMdJKD14YiX4sQMQpcH2xZGkLgg7mte+65B8PrV51T3LgOEU95dF03TRMRiqIo16tTtnPnzqWlpZmZmVwuNzEx0el0sOXV8zxoO6vVKoZIstns2toa1J6u6y4uLnKJAxd/ik6ZwI3A1qchWZYLhcJv/MZv6LpOCIGfDk7AjkBVVREXXBKXGw3j4G+3UXM8cD2XBO2rq6GTrlarGHN3HAebyDqdTiKRwAYhwzCy2Wyr1bJtu1Ao6LrebrdhA1SpVODQSAjBHo5UKqXrOhdPy7K8vLzsOE42m4UgCI5r4+PjYRiura3V63U4MWI9GZa7wqIA3GTbdjwe9/31TE0sKRO4XtiyNASnIdJfzvPAAw8gBIAwD9tKQUAQLl/j211LmMAvFbsSHcehlMZisWazmUwmk8nk4uIiFEBra2vdbrdcLsuyvLi4yBgbGRnBmaVSybZtiKQzmQwE2cjmksnk3Nzc8vLyyMjIxMSEaZozMzPojtXr9YWFBUrpjh07CoUCJteu8BnpRQrMq/7EAgIXYcvSEInc3rquv/3tb7/33ntJ35URSiI+qXAtJHKNlSPILHGdiUSCUmpZFl4NNIFRVZiTjY2NxePxhYWFWCyG/WJnz55ljOXzeYgSx8bGsJYeAkjf98+cObO2trZr167JycmZmZmzZ89inLXdbsMTdu/evfDnX1lZyWQyV7hUlK6jH1PUhgSuC7YsDeFmxgJlBEQf+tCHsERQ13UsTUUcBMnMm339KHkNNNEG+OiXJmtRupRlGW4b2OZcLpclSTp9+nQqldq/f//58+cdx9m5c2e32z169Ggul9u3b5/v+9Vqdffu3SsrKydPntQ0bfv27RgKoZTu27cPZvvT09NTU1N4jNOwqfXYsWNnzpxJp9PoxF3h88qyDD1R/8ib/c4EBC6NLTtTBmBelBAShuG2bds+8IEPLC4uBkHgOA52yV+jECYaUg04ewzMoF0O0RMkSYIlo+/7xWLx1KlTvu+jI1ar1XCw1+vVarXx8XHbtmdmZpLJ5PDwcKPROHbs2M6dOxOJRKVSmZmZSaVS6XTa9/0TJ07Isrxjxw5FUaanpxVFmZqakmW5Wq0uLCxIkrR///4gCKrVKqb2FeWyLXn+ZQoIXF/In/rUpzb7Gm4IVFX1fR/rdND8DoJgx44d8/Pz9Xq9Xq/ruo7lXEEQaJr2ZiVFlwuFNlrNXnlIfYObD0XRularYZPq7OxsIpHIZrOWZYVhmM/nfd+fm5tjjO3evdv3/aWlpUwmA780JFawgsU2obGxsVQqNTc3V6/Xp6amMpnM3NzcysoKnNVUVV1cXKxUKplMJggCjG2gJo3LlmU5CAKY6mcymbvuuuvee+8h/VCIj7kKCFwLtvI/bridSJ8CbNtOJBIf/vCHwzDsdDqkb+tFKVVV9ermPC4ZCr1ZIC5DjKZpmizLrVZrbGxseno6nU7v3LmzVqtZlpVOpx3Hqdfrmqbt2rWr2+2eOnUqmUyOjY21Wq1Op5PL5RRFsSzLNE1VVXltKB6P79q1KwzDmZkZiBixphFuRENDQ/F43HXder3ebrez2fzlrlOoqAVuELYyDYGDXNdFKAHXngMHDpw7d+7s2bMLCwvYw4PK0dXpg6+RgAAMlAZBgC2Jsiz7vr+2trZ9+/ZWq7W4uIgJ+Gazmclkkslkq9XCXo2xsbF6vb62tpbL5TRNazQasOPIZDKu62IL4+TkJEY6ZFkeGRmRZbnZbFYqFUmSisUixmjPnTuH/DSfz1+BjXnhS1SmBa4vtjINqapK+l1wrEWGdOh3f/d3FUX5yle+Mj8/D2MN2h/gxB53ZDSqqsKrKAiCbrdbq9VarRZ0zNjmzOXFPH9BgZmnZig/40f4B/FtRVyURAiRJAkKJqyQx36OTqfTbDbj8biqqp1OB8IiwzAweqaqarPZbLfbyWQSykyU23Vd73Q63W43kUikUilEQLlcbnR0FDGgbduqqpbLZUppr9dbW1uD06NhGJVKpdfrUbpehA6CIJlMwoHE933GWDweVxTF90NFkQghQcD4wjIBgWvBlq0NXQ6YX9++fbumaadOnep2u7AK412qXq+HiQdCSL1ex+7mtbW1drsNEsHd6zgOkj5d12OxGKUUS8ewIhEdpTAM4RgN4x5UoBF2ce0iT3O4TBm5j6ZprVar1+ulUqlsNgtBo+d5GMfvdDqlUimZTNbr9V6vl8/neU8wk8lgRysMG4eHh23bXl1d7Xa7UD9ijAOVI17Jhg1IGIaapmO5IzI7SqmmaRg003X9He94xz33vJMQEoZElqmoDQlcF2zlaOiSQOlaVdUPfvCDo6Oj//RP//SLX/zCMIxer4dVqxiPQPEIauNGo9FqtVDJhizQsiyc0+l0sNhH13XoAAghYRj6vu/7PiIsRVHQ/wI9kUhNisdEPEoi/a2KMzMz4+PjmUwGDoqapoFcZmdnd+/eTQg5c+YMIWRqagqP8/k8+HRxcZEQMjw8rChKs9mcnZ1Np9MYFuv1eo1GA7UwmMbW63XoyPERYMWv63oul8O6V8zZ4xPZto0KWhCwMAwlSYy5ClwfXIfSxlsLrutysbKmaefOnXvsscd+8pOfYGoBqRNmF2BCODc3x1c/Rxthnufh/iSEaJqWTqdzuRzGL/g5POeilMLKZ2AKhHMQHoOwQEaqqs7Pz3ueB8livV73fT+bzVJKG42GqqrFYhGko6rqtm3bWq0Wdj2Pjo5KkrS8vIx8anh4GEpF3/d1XUdiRQiZn58vFovZbFbTNIRUx48fVxSFEMl1XV3XERWi8o2S9u7duz/60Y/+j//xx/gmRSgkcL1wy9EQIcTzPHgeOo6Dsawf/vCHjzzySDqdJoQg+cI0KfrivFaCEgkSKxxHboWoBxNY6XQ6kUjgT3AZkqlkMokQifSrSAPPBQfRvmE+rPJt2+50OslkEtb3lUqlXC4HQcDHysrlcrvdnpmZmZiYQGFoeXlZkqTR0VGkdc1mM51OY7wDq9BwDRMTE6urq8vLy4qiJJPJbDZ77Nixbrcry2q1WtU0LRaLpdPp1dVVkNd999134MCBO+644z3veU88rhNCbNvV9djm/RoFtg5uRRqyLAvFF0KIbduSJMViMdM0n3nmmWeffXZpaandblcqldXVVcyXuq7LR0AwDR8EAS/iYBYUkRFjTJblWCyGTA3A8Br6X1FTZ5yPdAzEBBoK+2i321hqiMaZoijDw8Ozs7PDw8PZbBZeZegD5vN50zSbzSbOIYSsrKzYtp1KpXK5XLvdbrfbqDHrug6JtmmayWQSha1Op+M4ztGjRxljvh+iRo6rajQak5OTU1NTH/3oRwuFQiaT2bt3L9jHcTxNUzf3VymwNXDL0VC73UbU02q1UIfmTIQTLMv66le/+vnPf/7kyZO5XA5lZt/3cQ4EPoiMcD6CGpCIoijdbhce8pRSXdd5sgYRIJp34CMuw+HpHh+VwAs6jmOaJiSL2WwWpfHR0dF6vY56cy6Xk2UZa6ANw0DXHxeAFlsQBI1GI5vNQp2ImjdYEsGRaZpQeMZisaNHj9q2retxXNvq6moymRwfH//gBz/4rne9a3h4eGlpqVQq3XvvuzwvUFWZiOUcAtcJtxwNkX5VKPqA9GtGKA8lEgnHcb773e8+9thjL7zwAppcYRi6rstzKCRuIA4W2bMcPYIQCbHP8PAwkiOM+CMxxLvz0zgToYpsmmbUqs0wjFQqNT8/n8/nUVM3TVOSJBAQckld1xOJBMrnQRCg2IwSuyRJsP7wPK/X64GOEbV1u13P844dO0YIsSyHEKLrOqX07rvvvvvuu++44w5d113Xff755w8ePPh7v/ffLMvRdY1S0uvZSNAEBK4FtyINXRlcGA1z1Xvv/fVWq4VxU7TAIblG45/vYuT+QWHoR+vToCc81zCMTCaTzWZBB0jBut0uz8g4BxFCms1mPp+3LKvb7abTaTStwjCEOWyv1wMrMcY6nY5pmnv37q3VanDqSKVS8Xg8DEPbttfW1vL5fC6XY4y1Wi3TNCmlsVgsm81CSYSwrtVq1Wq1IAh6vZ6maclkMpfL/fEf//GBAwcsy2o2m9/85jeXlpb+/u///s4770TcBybdxN+UwJaBoKFBcBpC+HP//b+FNhNjzLIs3/chEUKRmy/P4U/nNDQwRAahAOgM1V8EI2h+cfbhgRWKxKZptlotbFsDba2urg4PDycSCcgX0WuXJGlpaQmqaEII6Ab1r3K5vLa2Vq1WwzCECBu1+VarFYvFgiBIpVKlUikIgp///OfVanVoaKhSqbzzne/8q7/6K2x87fV6jz322CuvvJLP5//jP/6jXC4TQvDBowP3AgJXDUFD64AZK4nMmkLQ/L73/Q4XLiKZQpRBCEGRCO12uQ/HsfCCA/cnikpo8xNCoNaBTtIwjHQ6nUqloKJGKYoTE3SJhmHE4/EgCOLx+Orqqu/7hUIB1WWY6uOxaZqEkHg8Ds2h4zjtdjuTyWQyGagW4X8CeVQikTBNs9FoQFr96quvlkol0zT/4i/+Yt++ffl8Xtf1U6dO/cM//MPa2hoh5O677z58+HA0k+31evF4/Cb9hgS2Lm45+eIvxSVH3tFQJ/3RELTSgz6iemicFrV5xctibA0CSDTXPM+zLKvdbuu6nkqlMplMOp1GoQfJDvQ7kiRZloX+PbTRQ0NDjLHV1VXGWLFYpJTW63VUxIvFYhAEqD1D4Z3JZLrd7srKCiGECyyDIIDNAFqBxWJR07SzZ8+mUql77733d37ndxA9HTly5Etf+hJCv0Qi8eCDD+KDQDVO+uMyAgLXCEFDvwRIhXjUo6oqOlyGYaBf5kYQhqGqytGKNQBpIiGES4eg2Mb97Pt+vV6v1WrorGWz2UQigb47JALcP1tV1VQqVa1WQUCMsWq1KklSqVTCWFm73Qb7SJLkOE632200GolEolgsEkKgGyKEyLKcTCbhNu04zsLCguu6ExMTH/nIR+6++24sd/3+97//zDPPwIgWbf4HHniAEIL2IopTgoYErgsEDQ2CJ1OIZWKxGNZ7RNteaKiDIJBewZHH933fdwfioIFB1gF64qEWKuKNRqPT6UCwg5F35Gt4cRyHqfbq6io009j+jKWJcFBqNBphGCaTSYzgtlqtlZUVdPERDWH8rV6v4y2mpqYopfv37z906JDneYZhfOELX/je9763a9cuZHPz8/N/9md/tm/fPq5BR11JuKAJXBeI/43WEXXSiSqko6OnfPACuys4g0CyiKot+llRQSMhhDESBKEsy4qy7veISMrzvCDwMFuP6X8QhOd59Xo9Ho9jQRAEBKS/fh4D9CMjI+12+9y5c4Zh4DEm3RKJxPj4OCGkVqvBYAh7yrDLDJ0ylK5t27Ztu91uY1Lk/vvvNwzj9OnTDz/88NraWiaTQf61tLR06NChhx56iPQVT4ZhgIBEs0zgukDQ0GXBhy3AJjyoIX0fe9IPnXhQwxiDUBB2PwhhwFwoCXmex2frIVOOxdaPu65LCEF7yzAMZIIrKyurq6vopiWTyXw+jxWvzWaTUooV9Z1OB0b3iFy63e7c3BwhJJfLHThwABnfzMwMpTSTyRQKBZTeT58+jfQNptSdTkfTtJ/+9Kdf+9rXjh8/ns/nS6XS3NwcYqX3v//9U1NT2CBECIGYk9fLBASuEbd0p2wgP8IDGAapqnr8+PF//ud/fvbZf0N0w0vXpO9jT/rLfNLpNKUUakNkPYQQ9MXQ58LTeXefT2/Isuy6dvQCONNBh00I4Z04DIXs2bNHkqRkMtntdldXVwuFQqlUgvsihnKTyWQikcAsSKvV4hMbvu+bpgnJuKqqmUyGMabreqVSwYoOy7I6nQ6k0t1ulzGWTqdrtdptt9321FNPXXlph4DAteBWpCGYV2Ckg/T/bcf97zgOyj3f//73H330Udd1l5dXeDuMRDYpI2zByIVlWVD6QJHMqYQ7fmBUFbpqXu3uv1rIzyeRFhsf0+edOIgGYVCtaRpMiKrVKlyiYbbd6/WQecmynMvlsIgVRXFcHrd5xERINps1DAP7YI8fPz49PY2V02A613W3b9/+yCOP7Nu3jzfpBQSuO25FGgIcx7FtW9M0XpSp1+tDQ0Pdbvezn/3sa6+9ViwWG43G+fMXGX1wGoKACFUS5FMoM4fB4JogfMOchlASWh9zJYEkXTifl5+Q9HEug9QIed/27dt37twJH9hyuZzP53u9HmIfFNShEgrDEC15yItgkwT3RZSiCoUCzN4QBHU6nfn5eTAazNts2962bdsjjzyyd+9eGJgICNwg3Lo0FAWfdz18+PDXvvY16HQ6nc7Q0NCpU2c20hAhRNf1brerKIqmaVAbYr0yJfLAVxrlo0EmCj3f9wkJSUSvxJ/FKS+qALAs67bbbtu5cyd8YJeWlnRd37t3LxZGwz3SdV1FUdBi63a7qF5rmoZhNJiHIEdDepjL5Qghp06dqlarfKZ/fHz8c5/73K5du2DPKMpAAjcOtyINIUnhvR603judzle/+tUjR46gUw4Pxlqt5ro+uCOaKDHG4vG453koJHc6Hc/zYMAYBoREDKqjGkh+AReyM+Y7jhMEHu+sRZ+Ck6NkxBiDPfbIyMiuXbs0TUP5qdFoyLKcSCSSySSkQJg7QXwEiZBlWdjwgWE03/fz+XwymcRCakRDmNfPZrMHDhz4x3/8R2w3ExwkcKNxy9EQv6ng+oqJ84WFhc985jPYiYpbFJOoqVRqZub8xmYZ6/sEEULS6XShUIBFked5MXV94py3z/AAJWfaF1tzWglCLwg8qB+R6LG+ZyMnMrwIKty9Xg/bnwkhlUqlWCyOjo42Gg1d103T7PV6sF6Djz2q42jYYWAVsRuOY0bf8zw0+E+cOIFEbN++ff/7f/9vWA5t0m9J4NbCLUdDruuiTMvHMr/5zW8++uijlUoFXs6O46DzBWueZrM9UJ3B60DfbNv25OTku971rkaj8eMf/3htbY2FlNL1bRycg6I0xCMdSiljoSSTMPSRqfWVRAF3RItu8uCpWbvdLpVKBw8eTKfTzWYTQ16xWAwO9rZtd7td8I5hGNg+BNM1y7LQB8RnR3EaFeszZ84sLi6iN//JT34S9TLLsmCxhCrS5v3SBLY4bjkaIoRYlgU/nYWFhUcfffSZZ57pdruYBeWZGtpSlmXZtssb7dF9gbiNq9VqsVi85557qtXqz3/+8zAgfaW1RCmhVOpXqJmiqIQw3pcnhOFvJZlIEqFURmve8xzPC4LAc10/CDzfDwkJJUmhlDFGg8BDm7/VaqVSqTvuuCOfz6M4DdN+pGbpdFqWZZiEYDUIYwzBHTyVwLaQRBJCwjBcWlrKZrO///u//9BDD6Ep1ul0UqkUIaTZbGaz2U35TQncItjKNMQnD1AowU3F8eKLL33+859/6aWX4KGBQg+J1GLwZ6fdJZEcCqEETKZlWUYAgll2zN8bhkElRolMaMhCykgQBoSRQJZUHOd/EiZRiUlUwZmEhoRJ0T/9wHUd33Etzw1C5uMcVZVR3tZ1fWhoaGhoCLOvGDHjFEMI4ctCGGOYL7NtG3Ux1LaQwSE8xD7bP//zP7/pvyUBga1LQ5h4cF230+kUCgVCiGVZlFJN04Mg/Na3vvXlL3+5Xq/ncjlobRKJxCVpqNXsRF+WZ1sQBEIqjYQLcUrILnh0AGFkESq9WKNICJElNfpXUfC22oXREBK4rstYAK+ffD4/NDSUzWZlWa5UKvCuhxESnsUYwywrXp9vT4PNK5r9hmF4nvexj33swx/+sKhGC2wKtiwNkQ3W9zBdPnv23Be/+MXnnnsO9yTW4KAvdkka6poWt3ONKhgxnMF7+bzdLsmX7o6husQxQEMb6SkK3lljJDBNU5LWR9JUVS0UCmCiXq83IAjANUPZhPANWWcmk0mlUvV6PQgCbBn667/+67vuuutG/AoEBN4ItvI/fZirYIx1u12Y0j/33HP/8i9f/dnPfkYIGRoagrFhKpXqdDpXiAJ4tZjP06M6Q/ujrfyEMAwJvdAjIxFmifILb+eTfqx0yQ49P8g3vhIaSpJEKUOfCxP5lFJUqVEGwnVi4B7VZUVRsCAEwiLP8xqNhud58XicUvq5z31uZGQEby1szAQ2BVuWhtDcgTlZMplst9uPPvrokSNHTp48vWvXrjAMK5WKpmkokVyhM43gAlkMet7xeJz7BGEaHmVpBB2uZ0cLSVxqdLm3uFw0yvrT/KSfCcqyTNe9hwLepwvDEE13VLiQl2HKBJHR+Pg4H77HMAfMbXVdn5iY+MxnPpNMJnlpTHCQwKZgKydlvNJx6tSpL33pS6rEoSkAABpHSURBVP/2b/8WhmEqlcEUKJplfA6DRDIjcnFSBt0NpZTf5IqiIAniBowX9IeUm3tcWr44wEcsvHA8egHgIHbxYntJkhgJwnDdOA01IJAgTNSwAxqFc0RnsG0ESWF1vaqq6XT6jjvu+PjHP04phZIIMd0V6FhA4MZhy9KQ5wWKIjNGjhw58vDDD8/OzqIabRjGyspKNpuNxWK1Wq1YLGYymVOnTnG13gAN9bo2N4dGOkYIGUjQEF8gMqISYxus8gdo6KI3Ci+68/lpoCEEU1EvJCoxhGaIyMB9kiS1222eu6Hzhf0cnufgNVFNL5fL73nPe9797nffeeedy8vLIyMjQRBYloWpMdGbF9gUbFkaIoSsrKx94xvfePzxx6vVKtR3qNSih43BelSmk8kk+mhkAw016i08hrchnO0RPkQVz9zivlpb5VFStEfGLmVxTSkdoCH+1iAXvjWI155i2noChdlXPObeY7A6woQKdrSaZntiYuKee+75zd/8zX379kFIzQth2IPG7bGFh5nApmAr0FAYEkoJwoi1tVqpVCCEvP76qS996UuHDx+mlGI+AwugEUREEyWePfGCDj8ehqHZ6aHrRCnlSuXos3AN/MHo2DBEOtDp8AYZNixybuJJlkQv5IMsgjAMC4UCrOwLhQLWtyaTSdezScRYNppGXWioRfJBw9B6vd63vvWt3bt34+I3PosxxqM8SaxhFbjp2Aolatw4vh8qilQqFWq1xnPPPfflL3+5VqslEol4PA5hITw9ut0ufyIvuwzURAYCIn6c8xQ/GKUwPGthYQGOrliSYVkWzMYwwsa3boAyPM9TlfV3xGXwjYn79++fnJw8c+bMa6+9hmX2hJBms2nEtejbXQ78CrERCNNz/K+QZsISn/MO3JH4Em0BgZuGrUBDBHcckzyXqSp94vFvfuMb31heXsZwue+FVs8hhPpeWO82E0mDF25YxGr6cuBnDgQs/IQoK5G+6SLSKKROyWTSMAxMk8LslU+KqaoaBiF/I3AQ+AgWIlz0hB48Y4yFFLEfI/RCEAjqZIQwhiiOEMoYIRJzXScej3MlEWMMLo48/4rKEQQHCWwK3vo0xIjrhrGYpCjEddl3v/uvTz311Pnz50dHR2G+g4mqTCYTi8Xa7TbpZzR49sYkhUTiIJ4fRdmHG7nyk6NPx+IghD+8gRWLxSDpxsJC7G7lF8B78wiRQEanTp1aWVmpVquUUgR0jDFd1zmFRV8heuUXsSRjqqrFYjEei5GIkBJFLoi/BwrhAgI3E295GsI//3isqtLhw4fX1tbK5TI8CTFXhRUU+Ae/02mjKMurv+RiKuEchDrOAAdFGYpsoABCiG3btC/zwUEwCDTcyWQylUph8su2bdd1KZHxdM5EIJpGowGf1nw+r2ka8sqBtvpFHbTIAqIL4RtjnU5H12NYPItLon1v2ajvEu2rBAQZCdx8yJ/61Kc2+xquCSwkqioRQlw3lCT6+ONPQFiMtAjBCLbuoKfeMdvctSNajcZKQh7v8HKv47g8fVtX7lyclJFBCSIbKIED3FQfDKWqKow4XMejG4CnoK8HfkFxBxx3ydenESeQMLKYaHhkaHb2/MrKSqVSCcMQW16DIEBfj0vApYsXZwsI3Ey85aMhftf0elY2m5ia2n3q1GnHsTVNc13PdT0UYnO5PKW01+t6voNoiN94/dehPCJAKLRuF32pOGggaoiWhzQthuciqIG8CMqAMAxt2yaEgIYwbOG5QZT1okNq0AGhzo3MrtfrMUbCkFGKMBBRDL4CPKCI0gghuN7z58+Dzn7xi18899xzk5OT73nPe+6//37GWLFYxOtjFoR/JwICNxlv+WjI9xghVJKIJCmyTKvV+gsvvICdopoWSyTihDDXdRH09Hq9dDqjG5oWMxRFlqhCKKNEppRIVGEE1hwhC2kQ+oHPwoAhiolGQ+TiqGHgQRgGhJD12QtKWX9dfdjf8wO9D/TNlmWlkmloIBFncT4Cd4RhGI/HGWOO4yB76vsZXdTgwxEWGW3r54ykWCp4nptIpJLJBKWybVuvvvraD3/4A9PsUUoKhVIspqpqTJYl/uI39xcoIPDWpyFZppJEGCGo85TLZc93X3jhp4yEkkwlicqyJEk0CH1Gwnjc8DyfsPWoAcufGSOe60mSHAZhGLIgCH0/CPwA+U3AQipJkixRSWKEMMIYIVTCyAYjFEciDxhlIUHMwjC1SiRKJYnKhFDCaBiwEMoeRimRIDiEdBC6ZyRKPG4CD0KrTSntUw28sSn+IxeKWZBNBgRtM8Z6ti1JUr5QUmMxKimyojBGGWOnT0//+Cc/efnlVy3bzudLiYRBCIHkiEooHjE/CKkkkQgvMUb4j2FIwpDh3QUErgVveRqCYphSEgS+JEnxuHHo0O2//dvvrVSW2+1WtbqmKHI6nSKEWVbPcdxkMkUIdRyn17O4H360Pt1Pu9azsSC8tEHHxoPrfxJ66eP00scHik1h33A2Wq+JXht/kWh0Ri9eLhStoDNCCKG5XE7XDUqpoqhBEEiSrKqq63orKyuvvPLqv//7v7/++ilNMyYmxiSJ9nq27wexmCLLUhCEruvJstzrWYRQRYmmokSSROwkcB3wlldRo8NN+nMMGKoghIRhePTo0W9/+9tHjhzBui5N00yzJ1EF3kNYB1iv1xVF4XtKeZmGF4Ycz42+3cby8MADHjwMHL/s+ZK07hDSZxZCCLIw1NTBSpyt+BwG8rtoQSc6ZMsvmFFCCJmcnMxms5hEA/lyoyVVVeEQEo/Hs9nsf/2vDx48eHBoqEQIsSzHMAa3JIYhQeFcluWLQyUBgavEW56G+C3Bj6AQA+FfEASLi4vf+973vvGNbywuLhYKhcCnWDNfq9UYY9lsNgzDWq2GPWUs4hyGorLrewNhCKePgSMDNETeWDQ0EOyAibiDfa/X40vQcG1cdshpKFpc50tiL0RDlBBCdu7ciQ33sCXC9g5sT8RaatYf1ickjMVit99++wc+8IEDBw7geESvdFE46HlBTL3wzQsIXB3e8jRECIEueWB1RLfbhXsO7u1ut/ud73zn61//emW56rourOMppdjpHo/H+ZAHLxLjtuQ0dEky2kgxoKErU0/0OKrRUmRrEJcFgIY8z+MnQPvDG/9ouvPXvCQNEYkyxnbs2BGlIUVR+K5HKKcxcCdJUhj6sVgMMqW3v/3tH/jABw4dOqTreiym9C+Y9aNOmRARDQlcB2wFGiKEYPQUeRluNkmSPM+zLCuVSlFKeYh0+PCRb3/rOz/+8Y8NwyiVSlinE5UFIujgDtCchjaWXcilUq0oDW18sPE4kkqpvwIIQICDVhockaTIRhBcALr+eC5O4EFc0N8xSwihssQY2759eyaToRF3IewOcl0XKkpJkgzDMAzDtnuYLIPo3LKs7du3Hzx48L777puYmCiXi7iMMFwf5RM0JHDteMvT0OWEv9w6Jxor9Xo9XY9LEjl58jTMGIMgwJZ3zF7wtjfvsrtewDM11p+64F/atUdDG/VHPCbiqkvInUl/AjZKQzwaQo1pIBoiERpKp9MgaO5SwqfeOGujPQdnbuztwDoT0zQVRTlw4MC73vWuAwcObN8+jk/gOJ6uCW8QgWvFW56GAF7Hpf1JhWi1iGtt8KNp9jRNU1V5fn7x8ccfP3LkSKVSwYpE/vQL0VCEhnhARDYwEX/wZkvUsViMcxznQdAQpmQRrSDck9ZNYNdpKFqi/qXRED4gp6Ho18XDPd/3m82mLMuGYcTjcS7jxuBLt9t1XXdkZOS+++77rd/6rZ07txERDQlcD2wRGnrj8LwARY0gYLJMCSGzs/PHjx9/+OGHa7WabdvYvIxtX5IkdXs2ukudTocxBsu0brcrRZY7A4gvJEIHAp+LiroXH7nyA+SYsDHj0mpELowxbo+NOIhXl6I0JElSSJiiKOVyuVQq4YlIUVESQnCHkMo0zWazubq65nleIpEYHR3lkx84U9M0y7JUVc1ms6Zpfvaznx0dHdFiQngtcK245WgItkRhSDzP0/oJRa3WSKVSzz777He+853XXnut0+nQ/nC856930wkhKDbBtpFXizgNrUcxG5KyaEfsErWky3TcSF+CwHfb4yAGO3Rdh38bf1ne0QcN8YMBC0FDGN3AcR4Q4Snw/YABQDKZMk3T9324boNb193+XTedTi8uLpZKpXg8Xi6X/9f/+lsRDQlcO97y8sU3i77meF2IjNwtHjeCwN+7d8/73/++gwdvU1WlXq+ZZsf3g3yhyBVJqVQqkUigm75xlmL99am0kWvIBhO1gVL3wMmkHw1FB0FAKwcOHJBlGe5FeBH4BPF1rAN1bkYYpRSGsPx4X5B9oeKOdE9RFJSQ4P7B+tNzvJvm+342m200GoyxXq/3wAO/Fd8gLBIQeLN4y4+2Xh2QzqBVRAhRFAU1GkLI3Xfffdddd509e/b73//+c889d/LU2VQqBbNqaB0Nw0gkEp1Oh9ePOKEwxkgkuBygnuhBfj5nH3bxdDuv1wyIG9/2trcdP368Wq0idQJZgJLIxey2DrIuKUJ1KRq48TANVW0MwdVqNVAPn4kjfcPGWCzmOE42m8WWIcMw6vV6IZ++Qb8jgVsHt1xSRjZUrHm5BMpAfht3u91ms/mDH/7b008/ffz48XK5nMvlVldXW61WMpnEU/iGQp6jkXAw3hmIega+8KgH0EBnjXfKgv5yakmSpqamFhYWGo2GYRjYAek4DhIr/ul4gCNJEuSLuVwOfUO4C4QRp0fSNzbp65WIRNfNmHjtHI8hMlpeXi6VSujffevb39BiIi0TuFbcijSEnhdvdQO8yssHzXAcxqo/+tFPvvjFL/7sZz9Lp9P5fN5xHFRY+I7mC620YL2jH8XABUSP8HoNfoxeku/7KAwh4QJNcNLBTloYznKVc/QdkVhBvphOp9PpNGMMokf+YdFrI/1WoyzLshQbyOx4vgaJo2VZiqJUq9UHH3zwf/4//5cgIYFrx61IQyQyQco3UnAbDV7fRYAT07R2u6freiwmnT4985WvfOUHP/hBrVYbGhriwQKvDYdhGPpB9DbmsUlUcBT9zjcWsznQsAcN8ZAKgQwvSEuSpOu6pmlgRhLx7QcNyaoSBAHySr5fBAEO/5E/lmWZhReq71JkQ5EkSbZt+76fSqWazebExMTf/u3f5vIZXROdMoFrxS1HQ7D4wmMeFOAB2+A9GIZhEBKMlaPTzxg5fvzkz3/+wiOPfJmxgDFKSEipzFgQhiQIgtAPSF+KzSLaay5BHGCiK/TsOQ1xyRIhBLEMauSJRALW1+ijX5KGVC3m+z52XkdpKBaLQdjJNz4SQhRFkeUL5ULEX1yOhBngEydO7Ny585Of/ORtt+0jQjckcD1wy9HQ9UKz2X766ae+/e3vzMxMK0pM01TPCxzHcR1f03S0txFkMcZc10XAwo9ghZkkUVmWGVlnrmgGx+WLfGJ+vbq8Xte6sE46Wngm/YYaMimQLG/wc+9tcrFQIArGGDa4QjaFQAkcFARBo9EYGRn5whe+MDpaXlmpDQ0Xbvw3LbD1IWjoKoGIo1qt/uhHP3ryySdffvllQsjQ0AglcrVacxwnkUgoimJZVhAEuq5j5z3pd53AR5oWs50LxwcqO9Fo6ALFUGWAhsBEYWTZNOIgPqeGfbNvkIZkhbquC9qCGZuiKHAFaTQayWTyX/7lXzCRn04nq9V6sZi/Kd+3wFaGoKHrg6NHj37ta187fPhI4LNUKiVJUrvdhkUGY6zX6yWTSa5+RpIFipGVC/O0A4VtJF9cjkj6NEQiIU+UhqIEBBBCkHbBV4jTULRROAA1Jtu2DefZdrudTCYzmUy32221WoqiPPHEE9lsFtP2l3QjEhC4CggauiaATSAy7nQ69Xr9K//81Z/+9Kfnz5/PZrPxeLxWq7mum8lksP0ZxWYUlX3f73a7MU0ZqGcjrkFOB/BQiEZ23vMeFl/0ymmIswxeFltAQEP8dS5HQ7JCMUqGzwV1dbfbzWazjz76aDabTSbjhBDT7OGBgMC1Q9DQVYLrjKLwfV+RlYWFypEjR5588snXX38dNo+kzwjY2kr6Y1xhGCqqxC4FrFSMNuPwFpekIbTho/zCXwd/FYvFwJU8obvsB6OhoiitVkvX9aGhoZWVlWazuWPHjr/7u7+bmpqKxZQgQM5I220znU5e/29W4NaDoKFrBevb12PKlJD1Zdaex55//vmvf/3rL7zwQqfTQWc9Ho+rquo4DkpFqqrypIxsUDyyyJ4i3iyTJTVaxuYLiKJ7n6MpHpRBKPGAhqQBC8WBj0MCTdOw5ZUxtrKycvDgwb/8y7/89V+/F73CTqebSiUwGMznhAUErgWChq4eGOzSdZ2bigRBwBiVZcl1Pdd1sTz+xRdffO6555577rlardbr9QzDgAUiise8kT8ALlwCAfGYiJILax05DfGmGNvgiCT1tzO+QRoiNERg1Wq1ut3u/v37/+iP/uj97//t1dVquVzs9ex4XHccT9NU1/W5JaOAwLVA0NDVg0V0RlAzK4rCbQnxvXJ7sKWlpSeffPKpp56qVCq4z8PIUrCND/hI/QA894L7mhTZgs3DHz4Hy7v4iIa4CvHKNEQlBpPcdrs9NDT08Y9//IEHftO2XV2P4U/GCKXE8wJFkRkjYsGiwLVD0NBNRaWyevjw4e9973unTp2C1ypq1XzulPQXbHBhNHwjLcsKwzAWi3HdELm42Ax/MrBbNFYifRVitIlG+jJIBGWqqiLaMgzDsruqqlYqlZGRkU9/+tP33PPObtfCFjMBgRsEQUM3CdH29tpa7cUXX3z66ad/9KMfkX5RCYJGZE/opgVB0O12oZBOpVJo/MuSSi4moGhoQyNrrHmtmnfQojREKe12u3ALwFsriuL7vhqTV1dXh4eH/+Zv/uYd77ij0WjlchnEQTf3CxO4hSBo6KYClhooJ9dqtUql8vDDX3jllVdWV1fL5bKmaaurq57nFQqFWq0GJ1ZKqWVZ2ORjGIbnXtAQRWkoOvDB0zFEOjwU4ppGPMXzvGQyGYZhvV7XdT2dTne73UazlslkPvvZz95zzzuRf3GbSgGBGwRBQzcJWFhEN8ysSZJ0+vT0448//vTTT6+trcHNp9PppFIpx3Fs22aMaZqGOTjP88Lg0tOwqqrC/4iHPzRia40qEncRArAoERPzuq67rttutzPZ1Kc//en77vt11/XDMEQQJJhI4IZC0NBNBbw70Lqi6xMYEu7wVqtz+PDhJ5544sSJE9AN5XI5WZZN05QkKZPJIGwx9MRAFsYf8MkP0jfM5wXpjUkZ+nTNZlPTtNHR0Wq1ilzsE//z/37ggd8MQ9JqtXK5DCEEfbGb/10J3DoQNHSTgL2M0V3PhBDf923bTSbjruubpomBj2eeeebrX//6zMzM2tqa4zjJZBJkRClNp9O+t95BGwisHMch/fI2Ct7ooMVisUsmZZ7n6boOT0XG2Nzc3NTU1Mc+9rEPffj/gEIaGRkhZGVlDbukBQRuEAQNbQIQs4AgBv7K90PGmKrKr7zyn9/85jd/+MMfWpaFlRiU0mw22zWtS74mkiw4K8IaEayHVYhRJgIN4QJisVi3263X69u2bfvDP/zD3/u9j9iOq+sx3h2r15v5fJZTkoDAjYCgoZuHdRm0fJHs2HE8hCn8CJcaaZo6N7fw2GOPHT58uNVqSZLkOI6hJy754qg9YV+2bdsoKnHe2ZiUYUMk6lCJROJP//RP//t//2+EEELXN7Ly1l6vZxuGLmhI4MZB0NCvKHzf5wPxS0tLzz///FNPPfWzn72oa3GIEHlvHpEOVIuQAkFDBHMPmHVw7uNT/p7nbd++fXp62jCMT3ziEw8++F+CgMiy8DET2AQIGvrVBZdKE0Jc111dXa1W6//f//vwiROvLy4uJpPJbDbrOA5m9/kiVpSfGGNonGFwRJKkeDzO7V8xcP/KK6/s3bv3oYceeu9735tI9GVBgoYEbjoEDf1Kg++M7v/IAp8dPXr029/+9uHDh6vVaqFQgKca6XueYRqWUgqJNkpLUEjir8BupmmmUqk/+ZM/+ehHf58QguqP7xNF9MQEbjoEDf2Kgs+UcS0ivIfUPk/MzS09+eSTjz/++PLycrlchs0j5tRAW4iGEokE5kVQCcrlcpRS0zQZY5/4xCc+9KEHCSG+z1SVEkJCMSMmsBkQNPQrjegwPY502lYyadB+IbnR6Hz3u9994oknTp8+DV8hZGSE7ynrKxgxBAvPoyAIHnrooY985CO6rnQ6ViplEEI6HSuVFrNjApsAQUNvAUAKhN+UpmmBT2zbSSQ0Qgg8GnVd+dd//cGPf/zjZ599dnFxMZVKZTIZ27YbjUYmk+EL6dfW1kzTvP3229/73vf+5V/+n5JEfJ9QSlC/dt0wJrb9CGwGBA39igITrSg8czDGTLOXSiUIITAgwvIi2AB1Ot3XX3/9yJEjR44cOXfuXDweHxoaMk3TsixCCF5tamrqD/7gDx588Hcvfi8nFovJMuUuJQICNxOChn6lgXpQ1Ll14NcFOU/U24gQUqs1jh079tOf/vT1119vt9uqqiaTyV27dr373e++6667EgnD8wLGGEzLfD8ElwmNosBmQdCQgIDAJkOE4AICApsMQUMCAgKbDEFDAgICmwxBQwICApsMQUMCAgKbDEFDAgICmwxBQwICApsMQUMCAgKbDEFDAgICmwxBQwICApsMQUMCAgKbDEFDAgICmwxBQwICApsMQUMCAgKbDEFDAgICmwxBQwICApsMQUMCAgKbDEFDAgICmwxBQwICApsMQUMCAgKbDEFDAgICmwxBQwICApsMQUMCAgKbDEFDAgICmwxBQwICApsMQUMCAgKbDEFDAgICmwxBQwICApsMQUMCAgKbDEFDAgICmwxBQwICApsMQUMCAgKbDEFDAgICmwxBQwICApsMQUMCAgKbDEFDAgICm4z/HwlzaLxIuGjaAAAAAElFTkSuQmCC" parent="1" vertex="1">
          <mxGeometry x="840" y="335.5" width="121" height="160" as="geometry" />
        </mxCell>
        <mxCell id="0zrECa5kf7nCr0N9lgGi-3" value="" style="edgeStyle=orthogonalEdgeStyle;rounded=0;orthogonalLoop=1;jettySize=auto;html=1;" edge="1" parent="1" source="ST7Q-PoKFSPQThEERPkX-14" target="ST7Q-PoKFSPQThEERPkX-18">
          <mxGeometry relative="1" as="geometry">
            <Array as="points">
              <mxPoint x="900" y="550" />
              <mxPoint x="900" y="550" />
            </Array>
          </mxGeometry>
        </mxCell>
        <mxCell id="ST7Q-PoKFSPQThEERPkX-14" value="&lt;font style=&quot;font-size: 18px;&quot;&gt;通道检查&lt;/font&gt;" style="text;strokeColor=none;align=center;fillColor=none;html=1;verticalAlign=middle;whiteSpace=wrap;rounded=0;" parent="1" vertex="1">
          <mxGeometry x="845.5" y="475.5" width="110" height="40" as="geometry" />
        </mxCell>
        <mxCell id="ST7Q-PoKFSPQThEERPkX-16" value="&lt;font style=&quot;font-size: 18px;&quot;&gt;与申请一致，更新平台日志信息&lt;/font&gt;" style="text;strokeColor=none;align=center;fillColor=none;html=1;verticalAlign=middle;whiteSpace=wrap;rounded=0;" parent="1" vertex="1">
          <mxGeometry x="733" y="210" width="117.5" height="44.5" as="geometry" />
        </mxCell>
        <mxCell id="ST7Q-PoKFSPQThEERPkX-21" style="edgeStyle=orthogonalEdgeStyle;rounded=0;orthogonalLoop=1;jettySize=auto;html=1;entryX=0.5;entryY=1;entryDx=0;entryDy=0;" parent="1" source="ST7Q-PoKFSPQThEERPkX-18" target="ST7Q-PoKFSPQThEERPkX-10" edge="1">
          <mxGeometry relative="1" as="geometry">
            <mxPoint x="1220" y="730" as="sourcePoint" />
            <Array as="points">
              <mxPoint x="901" y="710" />
              <mxPoint x="900" y="740" />
              <mxPoint x="685" y="740" />
            </Array>
          </mxGeometry>
        </mxCell>
        <mxCell id="ST7Q-PoKFSPQThEERPkX-18" value="" style="shape=image;verticalLabelPosition=bottom;verticalAlign=top;imageAspect=0;image=data:image/jpeg,/9j/4AAQSkZJRgABAQEASABIAAD//gA7Q1JFQVRPUjogZ2QtanBlZyB2MS4wICh1c2luZyBJSkcgSlBFRyB2NjIpLCBxdWFsaXR5ID0gNzUK/9sAQwAIBgYHBgUIBwcHCQkICgwUDQwLCwwZEhMPFB0aHx4dGhwcICQuJyAiLCMcHCg3KSwwMTQ0NB8nOT04MjwuMzQy/9sAQwEJCQkMCwwYDQ0YMiEcITIyMjIyMjIyMjIyMjIyMjIyMjIyMjIyMjIyMjIyMjIyMjIyMjIyMjIyMjIyMjIyMjIy/8AAEQgEAAQAAwEiAAIRAQMRAf/EABwAAQABBQEBAAAAAAAAAAAAAAACAQMFBgcECP/EAFEQAAIABQICBgQLBAcFBwUBAQACAQMEBRIiMgYRByExQlJiE0FyghQVUWFxgZGSorLCIzOhwRdTVJOx0dIkJUNzlBYmNmNkdOI0VaPh8ETy/8QAGwEBAAIDAQEAAAAAAAAAAAAAAAIFAQMEBgf/xAA9EQEAAgIBAgMGAQkHBQEBAQAAAgMEEgETMgURIgYUITFCUkEVIzM0UVNykbEkYWJxgaHhFkOCwdHwRPH/2gAMAwEAAhEDEQA/AO/gAAAAAAAAAAAAAAAAAAAAAAAAAAAAAAAAAAAAAAAAAAAAAAAAAAAAAAAAAAAAAAAAAAAAAAAAAAAAAAAAAAAAAAAAAAAAAAAAAAAAAAAAAAAAAAAAAAAAAAAAAAAAAAAAAAAAAAAAAAAAAAAAAAAAAAAAAAAAAAAAAAAAAAAAAAAAAAAAAAAAAAAAAAAAAAAAAAAAAAAAAAAAAAAAAAAAAAAAAAAAAAAAAAAAAAAAAAAAAAAAAAAAAAAAAAAAAAAAAAAAAAAAAAAAAAAAAAAAAAAAAAAAAAAAAAAAAAAAAAAAAAAAAAAAAAAAAAAAAAAAAAAAAAAAAAAAAAAAAAAAAAAAAAAAAAAAAAAAAAAAAAAAAAAAAAAAAAAAAAAAAAAAAAAAAAAAAAAAAAAAAAAAAAAAAAAAAAAAAAAAAAAAAAAAAAAAAAAAAAAAAAAAAAAAAAAAAAAAAAAAAAAAAAAAAAAAAAAAAAAAAAAAAAAAAAAAAAAAAAAAAAAAAAAAAAAAAAAAAAAAAAAAAAAAAAAAAAAAAAAAAAAAAAAAAAAAAAAAAAAAAAAAAAAAAAAAAAAAAAAAAAAAAAAAAAAAAAAAAAAAAAAAAAAAAAAAAAAAAAAAAAAAAAAAAAAAAAAAAAAAAAAAAAAAAAAAAAAAAAAAAAAAAAAAAAAAAAAAAAAAAAAAAAAAAAAAAAAAAAAAAAAAAAAAAAAAAAAAAAAAAAAAAAAAAAAAAAAAAAAAAAAAAAAAI9nZAdfLrLMyaqLFnZVWHazR5QNcuPH3C9rRoVd7pc4dqSm9I32LkZZjGXPw44bV1FDlFw6cLPIyS3W+sq2XvPGEpY/bzb8JrNZ01cQz4xhQ22jpVjDtdmmsv5YfwNe8XVDBvl9LvfZ6ijTVWHOLQhA+ZqzjzjK4o0Jl4mSVbu08tZWPvKuX4jDVHxlcI866vq6iLd6bPZvzMR6vDfHwyf1SfT9TxBZbfz+F3eik8u30tQq/4xMHWdJnCFLzg98p3ZfVJg038qsfO6Wfy/hPQln8pjqct0fDa+O6TtNT0zcKS+qW1bO/5dOy/mip4ZvTnZYQ/Y2q5vHzKkP1ROVrZ/KXls/lHUk2RwMfh0Cf06LCMYSOHprfO9Uq/lVjyR6crhHbw9Kh7VVFv0mnrZ9W0mtn8o2knHFxftbU3TheW7LHSL9M9o/pLP8ATdxA3ZaaCHtRf/M11bP5SS2fyjaR7vj/AGtg/pv4h9dqoI+zF/8AMur04Xle2yUkfonND9JrTWfykfifTtG0j3fH+1tcOnS4Q38PS29mqiv6T2SunRI8vT8PTV+WKVSt+ZVNGaz+Ug1n8o2kSxcXn8HSZXTnZIw/bWy5pHyqkf1QPdTdM/CkyH7R62T8707N+WLHI2s/lLTWfTtHUkhLAx+XeKPpM4PquUEvdMkW9U2DSvzLAzlNfrPcOXwO7Uc/n/VVCt/hE+Y3s/lPO9l8v4R1JNcvDa+e2T64hMVoc4NAdvqPkyn+NLe3Ohr6yniu2Mqey/lYzNHx7xlb4KqXibORe7US1m5e8y5fiM9Xhpl4ZP6ZPpwqcDo+mm/0+MK62UdQqw7ZTNKi35ofwNjt3ThaJ+KXG31lI0e8uM1V+zk34SW8WiWFdH6XWSnKHyGqW7pA4XuqL8EvdLlHuTW9G32NibMk1XWDK0IrHsjCPPmbHLKEo/PhfABhgAAAAAAAAAAAAAAAAAAAAAAAAAAAAAAAAAAAAAAAAAAAAAAAAAAAAAAAAAAAAAAAAAAAAAAAAAAAAAAAAAAAAAAAAAAAAAAAAAAAAAAAAAAAAAAAAAAAAAAAAAAEIfQSMFeOJLRw/T53W4SaZYrpg7am9lYao/VA55dum+jl5JZbdNq4+qbUN6JPs62b+BHmXHDdVj229sXXefLtMFdeK7HYof7yutLTtDtRn5vH3V6/4HA7px5xbfc1mXFqSS3/AAqRfRQ+9uj94wUq0tMbOOTMzZMzamYh1ePpd9fhnP8A3JOw3Hpts9PlLtdBV17w2s37JG96PNvwml3PpX4sueS0kyntsqP9SmTY+02X8FUwcizw8JkZFp8pjaUnVHFx4fgwVXNu10jzuFxqqmP/AJ01mX7raSMiz4902+VafKe6VafKR1bOtGPa1CVZ18J7ks/lNulWtfCexLX5TOqEslp8qz+U9cq0+U2+Va/KelLX5SWrRLJagtn8pfS0+U3FbX5S+tr8o1Qle05bSvhJrafKbqtr8pNbX8xLVr94aatp8pNbT5TdVtflK/Fq+EasddpS2nykltXlN1W2+Uktt8o1R67SPirylPinTtN4+LfKR+LPKNTrtHa0+Ug1p8pvLW3ylGtvlGqXXaC1p8pBrSvhN7a1r4SDWtfkGrPvDQGtPlLD2fym/ta/KWGtflI6tnXc+ez6dp45tp8p0Z7X5TyPa/KNU45Lnc2z+U8M2zr4TpD2vynim2tfkI6tsclzafZ8u6SpJt2tLc7fcaqmjD+qmsq/d2m9zbT5THzbT5TGrb1oy7kbd0r8WWzFat6e5Sof1yYtj7S4/iWJutq6b7LPxS6UVXQTG3NBfSy195dX4Tns+0/MY+fZ18JnaUWuWNjz/DV9EWriiy3yH+7LnTVLbsEfWvtLHUv2Gd58+w+SJtraWyumSsrZKy6WX3jPWvj3i2xtBZdxaqkr/wAKsX0sPvbofeJcW8fU5bPDOf8AtyfThGP0HILT030c2KpeLfNpW7Gm07elT6eXU0P4nRbRxJab/IjNtVwkVMFhqVG1L7S9q/XAnGXHLgtx7au6LOgAk0gAAAAAAAAAAAAAAAAAAAAAAAAAAAAAAAAAAAAAAAAAAAAAAAAAAAAAAAAAAAAAAAAAAAAAAAAAAAAAAAAAAAAAAAAAAAAAAAAAAAAAAAAAAAHhq6qnoaZ6mpnypElF5tNmtBVX6WYD19vaW3ZUWLNGEFXrjGMew5XxJ0y22khMprFKavm7fSxjFJS/X2t9XL6TmV34m4j4oZluVc/oGbqp5WiUvuru97IhzZF2VYFtnxl6XZL90tcOWeEZVPNa5VHZhTcoqreZ9v2czm956VOKb2zSqKKWynaPZT6psF+d2/SsDWaWzrp0mXpbXt0mvaXKxrxKav8AEwC0E+rnxnVLvNmvHKLzWZmb2mYyNPaV8JstPadukysi1rp0mNW6V/k1qRafKZORafKbLIte3SZKRa/KT1csslrUq1rp0mRlWvbpNlkWtfCe6VbfKS1c8r2tSrT5T2yrX5TZJVuXwnpWkRd2JnVole16VbPKepLZ5TNYylKNPlLtxGqHUkx6W3yl9beq90utXqvZieZrkviCPqk9K0UtfCXFp5S95TGNcvMWGuXmBrJnMZSlMpSmvNdPMWmunmGyXSk2X00pe6o+FSvkU1drp5i2108w2Z6Um2fC5XyKPhcvymotdPMRa6eYbHQbh8Ll+UfCZXhU09bp5iXxp5hsdBt3wqV8ij00pu6pqa3bzFxbp5hsdKTacpTFcZTGtLdPMTW6eYbMdKTYGp5Td5S21FLbwmJW5eYvrcvMEdZPU1uVu6WHtvlJpcl8R6Vr1btZTPpPUxT23ynlm2vymxrUSm7VUrjKmGEupJp821+U8M21+U3tqRG24nmm25fCNU43ufzbX5THz7Srd06JNtvlMfPta+Exq3xvc5n2nymMn2nynSp9r8pjZ9r3aSOrojkuZT7SurSY5qCfST4T6aa8mbCOSvKZoMvssp0ufa18Jiqi07tJDV1Rv83ms/SrxPZMZVa0u506x5Yz+qbj8zr+pYnSrD0tcOXmEJU6c1vqNuFVyWDR8rdn28jk9Vad2kxFVZ92kztKLVPEot/wvqxGVlgyxhGDdcIw9ZOPV2dp8uWfifiHhdlhbq5/g6t1083XKb6m2+7idO4f6ZbVXRlyL1Ja3Towx9JDm8po/TuX64fWbI2RVt2DbX8Y+p1gHipaqRWUyVFLPSfIdclmSmgytDyxU9pNxgAAAAAAAAAAAAAAAAAAAAAAAAAAAAAAAAAAAAAAAAAAAAAAAAAAAAAAAAAAAAAAAAAAAAAAAAAAAAAAAAAAAAAAAAAAAAAAAABFm5ARhHT1wPLVVUqjkNPqJqSpKLzaY7Qgqw+eMTQOKuli0WCDUlujC51+2MEb9lLj5m9f0L/A5Ber/fOLKj0l1qmdFjzSnl6ZSfQv6myYhKyMXZRg2W+qXwi6lxJ0y2+jjMprDJ+H1EOr0781kwb5u838F8xyq6XK9cTVSzrrWzajGOUJW1E9mC6YfmJUdrVcdJnKW17dJqltJZ1000fJg6W0quOkzdLa9ukztLa1XHSZeltu3SZ1ZnewdLa9uky9Pa9vJTPU9t26TKyLb5SWrhnewNPa/KZOntqr3TOSLcq909ayJUpevEnq55WsVItvlPdKoFXcpfaekvbieSfcVXvBq2lJ61lSpe4NPlS9uJhZ9y8x4Z9y8w2SjVKTPza9V2seV7l5jWpt08x4Zt08xjZtjQ2ibc/MeObdPMarPunmPFNuy+Ijs3RobY908x53unmNPe8eY8r3jzDZtjjNve6eYsPdPMaU948xYe8eYjs2xxm5tdvMQa7eY0d7x5iy148w2bY4zeWu3mLbXbzGitePMQa8eYxsl7s3trt85Brx5jQ2vHzkWvHmGzPuzoHxx5ivxx85z5bx5iXxx842PdnQVvHmLi3bzHPlvHmJrePMNmPdnQ1u3mLq3TzHPFvHmLyXjzGdkfdnRFunmL63TzHO0vHmPQl48w2apYzo6XTzHoS6eY57KvHmPVKvHmJbNUsZ0OVdPMeyVcvMc9lXbzHslXTzEtmqVDoMq5eY9UqvVu8aFKunmPdKunmGzTKhvCz5UzdiGlSpi6TV5V08x7pVy8xnZqlVKLJzaBW2qeGbbfKeqRcVbvHrWpSZuxCO0otYn21fCYyotflN6aRKnL1Ynkn25W7o1Tja53UWvdpMRVWvLLSdKn23ymIqLXllpIauqF7mlVa92kwlVaV1aTp9VbfKYeqtatlpI6u6u9o1ru184YqGn2utmyYRbKMrdKf6YNpj7W46rw10x2+t9HTX+V8XVG30y84yWb8y/XzXzGkVVr3aTCVVryy0mI7RYsopv+b6epqmVVyFn081J0l4c1mI0Iq0PmjA9UY6ezmfLFlv184TqPS2qqZZbR5vTzNUp/pX9S4sdg4X6VrRf3l0lwaFtr20xSa37KY3lb+TcvrNsbIyVl+DZV6o/GLpYKFSbjAAAAAAAAAAAAAAAAAAAAAAAAAAAAAAAAAAAAAAAAAAAAAAAAAAAAAAAAAAAAAAAAAAAAAAAAAAAAAAAAAAAAAAAAUI8zz1E+VSyWmzpyypKQyZ3aCqsPljGJyHi/pfjm9BwzCEyO1q14aYewrbvabT8zEeZcRbKqJ2y1g33iPjKzcKU2VxqP27LlKp5OqbM+iHyfPHkpxPiXpBvnFrTKZGait0eqFPKjqdfO3e+jSpr0umqq6oeqqps2dNeOTzZrMzM3mZjNUVr28lNcpSkuasSqn1S9UmLo7TjjpM/R2vbpMvR2vbkpnqW2bdJiMU7b2IpbWq46TNUtt26TM0ts26TLU9v26TZq4Z3sTS23HHSZantuPdMrKolVcm0l1psqSvViZckrZSWJVAqrkynoylSVPFPr1XvGMqLlu1BGMZSZefXKu1jHz7lj3jA1F03ajFVF08xjZvjQ2Cfcse8Y2fdN2o1youi6tRjKi7eYjs6q6Gxz7p5jHz7oviNXqLt5jGT7wurUR2dVdDapt28xj5t28xqc27MzYqzM3lLLT6ib2QxXzMQlY6oYmzYp948x4Zt43ajD+gmtvmt7pOFNKXcrN7TEOo6o4cnpmXjJuqORYavnzNqM3ukoKq9iqvsqSI9RujiRWYvVTPkX2mKeint2zVX2VL4I7ybY40Hm9BFu2a0SXwZPWzN7xfBjaTZ0ofatfBpXh+8w9Angh9hdBH1M9OK36OX4IfYME8C/dLgMpaRW8E8C/dHo5fgh9hcANYrXoV8EPsHwaX8nL6GLoM7SR6cVj4MnqyX3iPoMeya0D0gbSY6UPteb0c9eyare0pL0lUvyN7LF8Gd5NcsaC2tfPl9qMpfS8cu2OJAjFVbtVY+0pLqNUsOLIyrwviPdKvHmNcamlN2Ky+yxD0E1dkxvrUl1WmWHJu0i7bdRkJV2+c56s+ok9q5L5T0SrsytizMreYnGxy2YkoulSroviMnIum3rOZSLwuW4yci7eYns5Z0OlyLp5jJSLkrd45vIu3mMnT3RW7xLZyzodIkXLzGQlV6tuY55T3TbqMrT3TzEtnLKhu+UqavhLE+gVtSqYanuW3UZORXq3eMtGsovDUW7dpMTVWzdpNxWbKnLqLM2iVlyXUNUo2yi53VW3dpMLVWtWy0nSai37tJh6q27tJjV113uYVlr3aTAVlpyy0nUqq27slMHWWvdyU1yi7qr2D4a4/v3CbS6eYzV1uXTGmntqRfI26H0alO38McY2bimk9JQVP7dVym083TNl+1D5Pnh1HDK217uamDalqrfVJVUc6bT1CRySbKZlire0ZjKUULsSq71R9Mn1vzh8g6owOM8I9MEIslDxLCEttq1qQ0x9tV2+0un5lOuyKmVUyFmyXWajrkrI2StD5o+s2cS4kp7aJ1S1m9YAJNQAAAAAAAAAAAAAAAAAAAAAAAAAAAAAAAAAAAAAAAAAAAAAAAAAAAAAAAAAAAAAAAAAAAAAAAAAAAAAAFAILHq64Gr8VcZWjhWkjMrp/Oe685VMmqZN+iHqh88dJqvG/SnJtEZ1ssTJU3GGl5vPmkiP6m+bsXveE49Faq71j1ldPmzqia2TvNbJm/wDj5TVKz7XfjYMrPXP4RZbiTi698Y1DQqJnoKBWyl0kpur6WbvR9r3VgeOiteOOkyFFbdvJTY6K1446SGqy5lGqOtbwUVryx0mdo7bjjpMlR23bpM/S23HHST1clt7HUdt26TNUtvxx0mRpaDHHSe9VlSFJ6uGdspPPIolVcmU9DTJUldJ5KivVdrGIqrljlqCEYykydRXqveMTVXLdqMVVXLdqMLVXLdkxjZ1V0M1VXTdqMNVXTdqMHVXTdqMLVXTdqI7Oyuhnqq7btRiKq6btRr1VeN2oxzVNTP7IMsPE3UapSdteNszdRdl1ajEzbo0xuS5NHynmhIy65kWj5dsC/BYKvKEFhDymqVrvrwvuWWapm7mxXzFVpl3OzM3mL4ISlJ1RorijCEILyhBYeySAItoCmIxCSoK8gBQpiSBgRxGJIARxGJIABiAAxAAEcRiSAEcRiSAEcSpUAUBUcjIoCmIxAqRjCEV5RgsfaJAIrDUy7kZlbyhWqZO1s18pfBKMpRapUVyVlXRpbYtksfMZWluytjqMO0IMvKMFaHmLDSMeuXFoeXdAnG1y2Yf2t2p7t5jL0t0yx1HNlqaiRuVmh4lMjS3jbqNsZOCeNq6hS3TbyYzNPdNuo5hS3TbqM1S3TbzYns4p0OmUtyy7xlKevVu8c6pbnt1Gapblt1GzZx2UN6WZKnLqPNPolZclUw1LcMsdRl6evVtzGXLKMosVVW/dpMLVW3dipvLLKmr5jw1VBllpGqcLZRc2rLarZaTAVtrxy0nTqq2q2WkwFZbMctJDV3VXuWVtryy0ns4a4wvfB89Zclmm25mymUs1urzMrd1vw+JTZ6225ZaTXK227uakNXZxKNsdbHduF+L7TxXRemoamMZqr+1p5mmbKj5ofzh1Gxt2dnM+Tpa1lorkraCfNk1CNkrymxZf9S+U7BwP0p097jKt96wprjtlzIdSVDeXwt83e7vhJxn+Elbk4Mq+N6/VF1UAG1XgAAAAAAAAAAAAAAAAAAAAAAAAAAAAAAAAAAAAAAAAAAAAAAAAAAAAAAAAAAAAAAAAAAAAAAAKQgOZSPUYe93ujsNtevuU9ZNOnry62buqsO80fkMnHHnz5cPZU1UihpXqKmasqRKXJ3dsYLD5YxOHccdJ9Renm2uwxeTRbXqoZQedD5F8MPxN5TCcYcbXPjSr9BCDU1rRucqnVutvCz+Jvm2r+Ix1BbccdJolZt6YrfGwo1+u35vLQWvHHJTZqK25Y6T10Vt25KbLRW7bpMRi6bb3iorbjjpNio7btyU9lHb8cdJnaWgxx0mzVXW2vHS0G3SZeRTLJXKOknkkhfMeGqr8ctRlyy2m9c2rWSuMNJiKq47tRj6y5Y5ajBVly3ahs311MjVXLdqMLVXLdqMVWXTHLUa/WXTdqIbO2uhl6q6btRg6q6btRhay7cssWMYzzqmOTNjDxN2mqVixqxpSZCqu25VY8LNUT2ybRDzdpJJCJ1484/KxdNUrFlXiRj3LSSEVucdTeJi6Aa3VGMY9oCmIxMJKlMSQMBiAAAACQAAAxAAAAAC4ALYLgAtguAC2C4ALYBcAt4gAAAAAAADEAIo4lSoAoCmIxMipaeQjNzXqbxKXQZRlGMu5YWZUSOuDZw+btPbS3barMWS08lHhz5co/KpsjZ9zlsxIy7W00t026jOUt026jnCzKimjluh4lMjRXbbkxtjYrbcaUXVKW5beTGapbl5jmFHdNuo2CjuitjqNuyunQ6XS3HbqMvIq1mLi2o53R3LbqM9S3LLlqJ7OKdTZp9Ms5coajEVVBllpPZS1+WOo9+ievmDRGUoNHrLbu0mu1ttyy0nS6qgyy0mCrLfllpMauqq9y6ttuOWk1mvte5lU6tW27dpNarbbu0muUVjVevcE9KVTaHlWniFpk6k2pVtHm8qHyN4l+fth5juFJVU9bSpUU81JsmbDJHltkrQ+WET5ir7bllpMjwjxtdOCq2EqMGqbS8ec2ni2pfMnhb5trfiMxs19MnNk4UbPXV830zzEYGGst6o79bpddb5yzqd+yOXWrd5Wh3WX5DMQ6zeqOePLny5SABgAAAAAAAAAAAAAAAAAAAAAAAAAAAAAAAAAAAAAAAAAAAAAAAAAAAAAAAAAAAAAAAAU9RQGpcYcZUPCFv8AT1LekqpsGWnp4Nqdv5LD1xHyZjHmfPlw9HFHFVt4Ttkauum8m2ypEN81vCsP59kD56vt9unF1z+FVzYyIM0JNPBtEpfL4m8Td489wr7hxNdY3C5O0146VVdKovdVV9SmXoLbtVVOeUpSXdGLGiO0u5YoLbjjyU2mgtuOOkv0Ftxx0myUVv26TMYltq1RW/LHSbDR0GOOkv0dBt0mZlSVlLkxt1Vtlq3T0iy1yYlPnrJXGBaqqtVXFWMDWXDHLUGqMZSeuqr92owNZct2o8Nbct2o16tuWOWLGNnbVQ99ZcsctRgK26btRja26bubGuVlyaY2KZRZu6pqlJY1UMpW3RVy1GFm1M2pjGCbflbaQWTF2ymtz+b1F5VVVxU0SsW1OJ5dyCSFVso6m8TF0A1u2MYx7QFMSRhJHEliAYAABIAAAFwAWy4AGQAjiBIFOQ5AVABECOJIAAAAAAEcSQAAAAACnIkKgjiSAFsuAC2C4AwtgAAAABHEkAioCpHEyKlp5Cs2UNLeJS6DKMoxl3LUqpm0za9viXaZmiuitjqMSyqy4sWGkMjZSWx+Y2Rm4rcT7W/0V0xx1Gfo7lljqOV0tyaW2L5Ky91jY6K5beTG+MlTbQ6jR3LbqM9S1+3UczorlljqNgorlt1G3ZXW0OiSJ6zVxiRqKRZi5Ka9R3DLHUZ6lq1ZcWYy4pVyiw1ZQZZaTXq2345aToM2Qs1clMNWUG7SNW2u1zKvtuWWk1evtuWWSnUq23btJrdfbcstJqlFZVWtJsHEFz4OunwqijlIdl9NTs2iav6W8LH0Hw1xZQcVWyFXQTdS8oTZEd8pvkaH+EeyJwmvtu5WUxFvuFw4ZuqV9udkeGllbbNXvKy95RGWpk40b+No9z6yKmp8H8XUHFtu+EU0YJUS+Sz6d46kb+a/JE2s3/NSSjzCWvKQADAAAAAAAAAAAAAAAAAAAAAAAAAAAAAAAAAAAAAAAAAAAAAAAAAAAAAAAAAAAKDmI9hqPGXGNJwha41E7lNqpuS09Oranb+Sw9cQzGPM+fLhb4240o+ELfnM5Tq2bCMKemVuto+JvkWHynz5UVNdfrrNuVxmNOqJrambaq92Cr6lXwipqa6/3WbcrlNabUTWyZu1VXuqsPUq/IZ63W7bpOeUtl7j48caPn9Slut+3SbVQW5Vx0kqC3446TZqKgxx0k4xarbUKK3bclNjo6DbpJ0dFjjpMkzLIXzE1dOzZRVSQvXuPFWVuOWo89ZX45ajXq24btQYhXsv1twxy1GuVtw3ZMeatuGOWo1utuWWWohKSwqoeituW7Ua5W3THLUeGvuWTMqtkx4FlNNbOd901Ss1W1GNsk82bVt1Rxh8pNEgi9S9frj3mJKuJI55S2WldUYABTEi3qlQDAAAJAAAAuAMgBTkBUjiSBEU5FQCQAkCIoCQDKIJAAUxKgCmIxKgCmIxKgCmJUACIJACIJACAJAMIlORUEhHEkARAFORTEkJFsuAC2AAwAAARxJAIqApiVMi26QddS9fqiu5SEufNpW645Q8RfIsuWmJKMtWidUZstRXRWx1Gx0Vy26jn7SmlNnJ+6e+gum1YtqOiNmyrvxtXWKK47eTGw0Vwyx1HL6K5Y46jZaK4ZY6jbGSptodLpa/LHUZBlWevmNIorjt5sbFR1+3UTV869SsoN2k12tt+7kpu6ss9fMY2sot2kM1z1c0r7dllpNVuNv3KynUq+g3aTWa+35ZaSEorGq1zijqq/h+6yrhQTWlVCN7rL3lZe8rH0HwZxpScYW30kvlJrZSrCppotzijfLD5Vj6onGLjbt2kwdJVV3D91lXGgmNKqJTe6y95WXvKxGMtW3Ix45MfPjufWRU1Lg7jGj4vtcKqRjKqZeK1FO0dSN/NY+qJthv+ailHmPOvKQADAAAAAAAAAAAAAAAAAAAAAAAAAAAAAAAAAAAAAAAAAAAAAAAAAAAAAAp2DnApHsMNe7zRcPWubca6ZhTyl5xjz62j6lhD1tEyccc88+XDx8WcT0XCtqmV1W2rslSoNyaa/qVf5x9UD5xra6u4mus241z83fSqrtlL3VVfUqnpv19reL741bUs0JS9UiTBsllJ4fa8Ue8e+3UG1cTmlLdeY1HFEdpdy5brdtXE2ugoMcdJS3UGKrpNooKDbpJxihbalQUG3SbLR0WOOkpRUmKrpPbNnLIl4qTVs7NlXmLIl4qYetr92ohW1+7Ua5X1+7UE66tk624btRrNfcsctRbr7ljlqNVr7ljlkxqlJY1UL9fct3NjV6yvedMwTUzEJ9TNq3ZU295vCVlJBIYw7W3N4jVZYt6MbZGVKVWyi2TeLwl4A0LSMYx7QAqRSAAAAASAXAGQEcSQEcSQAAEgRFCuJUBkAAAAAUAASAUxJYgUBXEYgUBXEYgUBXEYgUBXEYgUBXEjiBUAAVAARAABTEoSAEASAYRI4kgSAAjiBItlwAWwXC2GAABFQFSgAtTZGUcoNyfxeIugkjKMZdyNHXvKfB9LKbRQXLaysarNRZq4x3d2PhKU9TNpJqq+3ut4jfXYq78bV1KguWWOo2aiuG3JjldBcsseTG1UFyyx1G2MlRbQ6bRV+3UZlJiz5eLbjQKCv26jZKKv26jarrKtXrrKLLLSa5X0G7SbjKnLPl4seGtpMstIQhZq5pcaDLLSancbfuVlOpV9BllpNXuNBkraSEorKq1zy33Cv4ZuqXGhfF00srbZq95WXvKfRnCnE1FxVapdfSR5N2TZUW5tKf1wb+UfXA4RcaDcuJ4uH+IK/g++QraZWeU2mpkZYq6eH2l7rEIy1Tycbi+O0e59UdpWMDC2W90N9tcqvt81ZkicvVHn1q3rVl9TQ9cDNQOlR88c8fDlUAGAAAAAAAAAAAAAAAAAAAAAAAAAAAAAAAAAAAAAAAAAAAAAAAAAAAHgqKuRSUr1M+YsuRKVnd26lWEO2MT50424tqeNL1BZDMtpkRitPKbqybxtDxN3fCvvGb6T+N3vNbGw2uZyoZTcqqardU94d1fmVvvN7JqdtoMVXSabJbelb4ONpHqz+a/bqDHFcTb7dQYquks26gxx0m126g26TEYtttq9bqDa2Js1FSbdJCipNukyjMsiX5jaq52bDzFkS8V3GEra3dqJ1tbu1Gs19fu1CUkqobI19fu1Gr3G445aiNxuOOWo1O43LHLUapSWVVSVxuWOWo16bNermRhCPJe8xFpj1cxmyZU7zfKX4LBYLCEMYKaZ2LnGxvqkIkEhyhDlAkAaFiFQDCQAAkAFwAAAyjiSAAAkCIqAAyAACgBXEJKFMSQAYgAACQAiCQCSIJACIJACIJACIJACIJACIJAIo4jEACOJUqAKAriUAqAAiAACAJAMIkcSQJACnIqBbBcLYYAAAKFQEVCLpB4cow5wJAyisSpr0kyEIx5rHsY2K3XLLHUYKKrGDQjDnBiwkx6OZDrjFO7Hwm6uxwZON9UXT7dcMsdRtFBX7dRym3XDLHUbdbrhljqN8ZKS2p06irduozaTFny8W3GgUFft1GzUVbt1G1W2w1X62kyy0mtXGg3clN2Vlny/MYutpN2kI1z1cyuNBkraTT7jQZZaTqlxoN2k1S40GWWk1SitKLWv8E8X1PBd6jCezNaaiK/CJS6sW8a+Ze94l90+jKeqp6ymSpkTFmSJqwZHWPNWhHsjA+Y7lQ5K2k27ou42ey18OH7pM50M9v9lms2mU7d32Wj9je0Zrlr6WrNxt+OrD5u+gA3KgAAAAAAAAAAAAAAAAAAAAAAAAAAAAAAAAAAAAAAAAAAAAAAABbikOcDlvSjxxG0U0bFbJ3+8ahI+ldW65CR/U3q8MNXyG28Z8UU/C/D0+vmwR5sf2dPKZv3syPYv0euPzHzjLaqu1wm1tZNZ58+Yzu7d5m/SQnL6Vhg43Ul1J9vCVroMcWxNxttBt0nkttBljpNwt1FtXE1xisL7Xot1BljpNqoqTbpLFBSY46TYJEpZMvKJtjFU22pKqyEy7xiq2r3ai/W1eOWo1a41+7UEIV7LVxr92o1W41+OWouXKvxVtRqNyr8cmyNUpLSipC5XDHLUa1Mdqqa2TN6OEdTeIlOmvVzowhGMFXdEuwWCwWEIYwU0WWLrGxvqkQhCEOUIcoQJAGlZhUAwAACQXAABHEYkgyAEiIoSADIAAKApiSCSOJLEAACQCSJIEgIgkAIgkAAAAAAAAAAAAAAAAABEkAIgkAIkSQAiCQAjiRxJAIqAqRxAkAAiESQAgCREMABHEkJFsuAMLYAAFCoCKhGMIRhyjDnCJIGR5kdqSbDVGKR2t8hsttuOWOowMVg0GhFecIlqVNekmwhGOSx2sb65qzJxvqi6dbq/LHUbVbq/bqOW26vyxbI2621+SrqN0ZKW+p02iq9uoyrKs9Mu8aRbq/auRs9FV5Y6jaq516vJW0m7SarcaLHLSdDnylnS8oGu19JllpMyTqm5jcqDdipp10oNzYnVrjRbtJp9yoMctJplFbUWt76LeOZl7ovie4zudypV0Rftnyod72obY/VH5TqEFhzifJ0udVWS6SLjSTYyqiQ8JitDxebyttY+jOEOJabiqwyLlJgqzP3c6V65Uxe1f1Q+aJKuX0q7OxunLeHby2kAG1wAAAAAAAAAAAAAAAAAAAAAAAAAAAAAAAAAAAAAAAAAAAp6jyVE+VSynnTnhLlS1izs3VBVh1sx6ox9Rxjph4ujCMOGqCZDKZCD1kVbau5U97c3lx8RGXOvDbRVK2ekWjcXcSzeMuImqUZoUEnJKWU3dXvMy+Jt33Yd0u22g2rieC10WKrpNyttFiq6TTFeS5jXHpxe63UWOOk263UWOOk8dtpNuk2qipsVXSbYq2+16KWQstcmIVlSqrjBi7UTllS8YGuXGtxy1GXLXHaTzXGtxy1GqXGvxy1HouNbubI1K5V+7UQksqKnmuVfubI1SqnvVzcINp7zeEnX1bTZ2CamYjLlLKXFdUfXHxGiya7xqNkkSCwhCEOcIEgDnWgVAMJAACQXAABTkVAZACREVAAZUAK4hJQriAABIBIAJARJAAACnIiKgYgJGIxJACOIJACIJAAAAAAAiCQAiMSQAjiMSQAiAMQAKcioRCJIEhEEiIEQSAESOJIBFQFcSgFQAEUASIhgABIC2XAGFsAAChUBFQi6QeEYR7IkgSRWqWe9JNwi2nux+U2u21+1sjVZiLMXGO7ux8JKgq4yZ2D6WU312K3Jo1dWttfljqNrt1bkq6jl9tr8cdRt9urdrZG/hRX1OkUdSrLjFidVIWYuSmAoKvJV1Gx085ZsvFiatsjrJqdxpMlbSancqLJW0nS62kyVtJqlxpN2kxJ1UWuXXKg3LiQ4N4mm8HcSLOmszW+dilUi/J3Wh5l/LlA2a6UWWWk0y6UGStpNUlpHmNsenJ9Qyp8qplLNkzFeW6qysvXCMI7YwPWcY6IOL2Zf+zNe8MpSxeiizbl3Mnu7l8vPwnZoG6PO0VDfVKmekkgASagAAAAAAAAAAAAAAAAAAAAAAAAAAAAAAAAAAAAAAKdgGq8Z8RyOFeHZ9xfFp3L0ciU0f3k2PZD6PXH5lPnGmWdcKybV1LtMnTnZ5rx3MzamY2Dj/iZuK+KGSQ+Vvo2aVT4t1PH1v7zQ0/Mqlm10W1cTTKW0l7iU9CraXdJlbXRbdJuFtpNukxttpMVXSbjbaTFV0meGi+17qCk26TN6ZErzFullLJl5RPLW1OKtqJq6Xqk8FfV45ajVLlW7tR7rjV7tRqFyr8ctRiTtoqeC5V+7UaddK/cqtkzHuulfirajBSli7+lf6ofzNFktVzjUbJyJWKs0dzbvKXgDmXcY6x1iFQCKQAAkFwAAAAyEgCIqAAyoAVCQASAiSBIJIkgAABTkRFcRiCQSRJAAAAEgFQRFAVAFCoAAAAAAAKFQBQFQBQFQBQAEgIkgEUcRiSAEQU5FQiESQJCJEuEQIgkRCKgKlAKgAIqESQDCIAAFsuAkwtgAAUKgIqFqfJZlVk3Lt8xdBJGUdo6r9rr9qsxuVtr9uo59NWMp/Sw7PXD+ZnLXX5Kuo6a5bKTJo1dVt1bt1G10FXt1HMrbW5Y6jcLbV7dRvipr6m8aZ8rzGDr6TdpPbRVOSrqPXVSVnS8lMuKPpk53caTdpNOulFjlpOoXKkyVtJp1ypMlbSQksaLXMp/p7fWyq2ldpdRJdXlPDtVl2n0fwbxJI4r4ck3BcVmx/Zz5atzwmw3L+qHlaBwq6UW5cT1dHnFMeFeJFlVMzG3VjLKn826pbd1/d2t5Y+UjGWsm7Lp61W0e6L6VBQqb1GAAAAAAAAAAAAAAAAAAAAAAAAAAAAAAAAAAAAAINy6jmvSvxU1gsXxdRzeVfcFZIYtqlyu836YfTHwnQKmqlUdPNqJ7QSVJWLzGj2KsIc4xPmDiC8TuK+Jqq6TMlR44yEbuSl2r+pvM0SFktYuzBo6tm0u3hYtNJiq6TdrXSbWxMRa6TbpNzttJtXE1xitL7WVttJt0m2UFNiq6TG26m26TYFVZMrLvG2Knts2kt1U5ZMvFe6axcavFW1GQuNTu1GpXKr3ajMmyqDG3GrxVtRp1yrdzZGSulbqbUaZcqtpjYJqZmxU0Skt6KnlmzGq5+PdXcXVXFSMuWqJBfX3o+IuHLKWy+qr0iAFSDeAAJBcAAApAqGQkARFQAGVCuIASACQSACQAAEQGIJBJEkAEgAqRFCoAAAAAOQ5BkAJAR5AkAI8hyJACPIciQAiORIARBIiAA5DkAAAYChUAUBUoAIkgSEcQSIhEAARRBIiSEQSAEShUBEAARUIkgGEQASAtlwBhbAAFAVKBFFlyXFi1ImNS1Kwy0ttL5bmos1MfX6o/ITjLVotr3i2i21u1sjcbdW5Y6jlttq2ltg2ll0sbna63bqOqMlDfU6hbavJV1Gy0s5Z0vFu8c7ttXt1G326p26jdFUWweuvpslbSancqTdpN6ZVnSsu8a/cabS2kzJrps1k5ldKTc2JpV2pMlbSdTuVJuXE0q6Um7SaZRXFE3S+inir/tBw/wDF1XN519uxRucdUyV3W/TH6PnOjw5dfznyxYLvN4U4npbsmUZSxwnIvflNuh+pfMqn09TVMqrp5VRJaDypqwdGh2MsYc4MbK5bRVedR0rNo9vL2gAm4wAAAAAAAAAAAAAAAAAAAAAAAAAAAAAAAAA8NXVyaCln1VQ6pIkI0yY0e6qrkzAcx6Y+JfgVsk2GmflU1mqdj2rKhHs95vwqxy600mKrpIXa6zuKeJ6q7TVZfTv+yVu4i6Vh938WRn7TSbdJz7bSegpr6FUeGbtdJiq6Tc7bSbdJhrbTbdJt9ukbdJti4b5spRSFVVaJbrZ+Ksp63ZZUnE125VOOWoy4o+qTFXKrxy1GoXSrxVtRlblV7myNKulXu1EJLSiti7tW4q2owMlWmM01u9tLlVOapqcMtO5iariuKnLZJ6DEq8vUkAIGp3qgAwABcCQRUKSDIASIioADKhUKAkHXeBujuSlOtyvciDvNVoSaWYvVLWMNzL8sYd3u/T2ebo44F9JGVfrrK5LupZMxe35HjD8sPr+Q69GEILHV/A7KKPqk8r4x4t5/maOf8+XzxxnwlO4Vuf7NYvQT4tGTNj6vJHzL+JfeNYPpDiqmttVw7VS7tilIq5O0eqKctsYfPl2HzjNVFmxhLZmRWbkzLizL3WZe6aMivSXpWXgubLIq8rO6KIANC6CQASACoSUKgEQAGIAcgSDKPIkAAAAAAkEkQSBgRBXkVAiCQAiCQAiCREyAACIR5EgBHkCREABiAwFCoAoCpQkBEkAiiAABs/BfCc7iq585qxS3yIrGdNh6/Ivmb8K+6a1KVGmJCdFklMy5Mq5Mq95lXvH0fwzSW2ksFNLtUZbUkVySYscs+fbGMfFFu0349e8vUo/Gs2WNVpX85NG466PJLUzXSySYJMlr+2pZS8oPCENyr8qw7vr+nt5GfWXKHJdX0dRyHpI4G9F6W/WqVzWOqqky17PleEPzQ+v5TffR9UVd4P4r5fmb+f8ALlysoVBxvUgACKAJEQwAAkLYLhbDAAAioBEGR5pytLZZyd3tM9a63JV1GIZclxYhSzmpqnCLRx9Xsm2uTgy6vqdOtdXkq6jcbbV5Y6jl1rq9uo3W21e1sjq4efvg6NRT8lVcitbIVlZlMTbqnLHUbAjLNk4k1XKOsmmXKk3aTTLpSZK2k6XcZG7SadcqbdpMSdtE3MLtSZK2k6n0N8TRr7XNsNS/KfQ6pOXa0qLdnut1fQymj3ak1NpMFZ7tN4Y4mpLrKVorJf8AawXvo2lofd/FiattZebtur69Pk+rweKlqpVbSyqindXlTZazJbQ7GVoc1Y9p0KAAAAAAAAAAAAAAAAAAAAAAAAAAAAAAAABHl18zk/TNxDGis0mxyJnKfXNlNx7VlLH9TYw+pjqjOqrFoxhCEIc4xj6j5e4nvEeKOLqy5KzNI5+ip4N3ZUOpfvam94hZz6XbgU9S3bn6Vm00mKrpN4tNJiq6TBWum26TdLXTbdJrisr7GbttNiq6Ta6KSqrkxjLdI26TMzWWVKxNsVPbLaTw18/FW1Gp3Kp3ajL3Kp0tqNOuVXpZsjEnRRWwl2q92o0m61e5cjNXar3Nkao7NU1eUdq6jRZJd41W0lZEvFcm3NqYvAHMvIx1jqFQCKQAAkuAAMgBIiKgAMqAFQkG+dH3Bnx5Vrca6V/u6Q+lGX988O77MO98rdXiMHwhwxP4lvC0y5JIl4tUTV7q/JD527vvR7p9E0lFJoKOVS00tZciUqrLRexYQOnHp29Unn/GvEulHoVd3P8As9irBVhCHqPFU1MijpZlRUOsuVLhFndm5KsIeuJ7GaCrlH5DhHSDxm97qWttA/K3SW1urfvow/lD1fL2+E67LOK47cvO4OFZmW6R+X4vDxrxlUcS1voZLNLt8qPKUkeqLx8bfyh6vaNUAKuUpSltJ77Hx66K411x+ASAIugAKkUgAAACQZRJAAAMSQESQBhIAAAAkBEFcSoZRBXEYgUBXEYgUBIpiBQEiIYAAAIkgBEEiJlEIkgBHkCREAAAwoCpQARJAkiibbwVxlP4arfRT5jTLdOjympuwj41/nD1+0akCUZSjLaLmyMau+uVdnyfUtNUyaqRLnyZivKmLBkZY81aEeyMD1MqRVoR64Rh1nC+j3jN7LVJa6+b/u6dM/ZOzdUlo/pb+EevxHdYxWMIlpVZxOPweAzcOzEt0l/o4N0hcGfEVXG40MqHwCe/XBV/cvHu/RH1fJ2eE0Q+qauikXCkmUtTLWbImrFZiN2NBj524t4aqeGbu1M+T00zJqea3eX5G+eHr+3vHJkU6+qL0ngviXVj0LfnH/drwKlDmegVAARQBIiGAAEhbBcLYYCMSQCKhany2Zcl3LqUugkjKO0dXstNXkqrkbpaavLFcjnCN8Gq9O1tSm22mr26jprkocmrWTp9tqduo22gn5Kuo5xbavbqNwt1TljqN8VNfBnq2SrLlDvGqXKmyVtJuKMs6ViYS5U27SSk56payc2u1NkraTR7tSZK2k6hcqbdpNJu1Nu0mmS5osb50N8RfDrJNstRMynUEf2WXa0ptv3WyX61Oq8uR8tcLXn/ALL8YUVxZmWnaPoqjzSm0x+7pb3T6hV1ZYMsYRhGHOEYes2Vy2iq8+rp27cfUvgAm4wAAAAAAAAAAAAAAAAAAAAAAAAAAAABzzpZv0LPwfNppL41Fxb4OmPaqx3t93q944haabSuk2PpUvPx3xy1FKaLU9tX0S8tubanb8q+6eO0yNuk0S9Ul9iV9Kn+JsNpptKtibra5G3SYG1yNuk3O3SNuk2Rcd82XopOK5RLNfPxVj2NjKkGAuM/dqMuKuO0mFulTu1GlXar3ajOXSp3ajSbtU7tRCS2ogwF1q9yqx45KYS9XbHVEhFmn1eUdq6j0HLOT0OJX5R2BAFTU7AAGEguFsuBlFSQAFSQBFlQAqoSD1UNHU3CvkUlMjTZ8+KqkPN/pPKdo6LuFfgVEt7rJfKoqIfsFaGyU3r9pvy4k6695eTi8QzY4lW31fS2nhbhyRw1aJFHJ5NMXVOm49bv64/yh5TZe3nCPYOvn8xpvHXFcvhq0ZSmRq2dktOjder1tHyw/wAcSylLiHDwkY25Nvl85Sav0m8YehlxsVveCzHhzqpsI7Fj2JDzR9fl9o5OVmu8+a8yY7PNdmaMYtkzM25mKFZZZKcvN7zw/Chh068BIA1rAAKqsWZYQVoxZsVVVyZiKXn5ceYDY7twZdLRZKe5z5cIo/72XBdUnw5e13vC3Ua4SlGUe5ppyK747Vy2ASBFvAAAJAGEgAkBEkUxKhkKYlQBTEqAAAPRSUdTcKmVS00v0lRNy5JzWGXJee5vLAyjOcYR3k84Np/o64o/+0t/fp/qKf0dcV//AGpv79P9RLoz+1z+/Yv7yP8APhq4Np/o64o/+0t/fp/qH9HXFH/2lv79P9Q6M/tPfsX95H+fDVgX6ulqKKqmSKqV6OdLjyeGSti27cpYIuiMoyjtEKYlQYSUxGJUACJIARBIiGAiSAEQAZRRBIARANltfA91u1jn3KnSMIJqky4r1zlXdFf0+LrJRjKXa57siuiPnZLVrIKsuLYsuLL4ihFv458+PMIkgSRROtdGfGEJ6QsdxmZTEh/s02Lb1h3I+aHq8S+yclJy5ry5yTJbxSakVijwbkysu1lNldkq5bK/xDChmU68vq/rhyhDsNZ4s4ckcR2ebSzeSzd0ibj1yn9TfR6o+U8vBXFMvim0I0yKS66RjCoRfl9TQ8rf5wNw6+fzFnGXE+Hg5RtxrfLtlF8p1lFPoKybS1MtknyIxR1b1N/pPKdl6UuFoVtJ8d0crnUSF/2lVXreVD1+1D/DL5DjRW2V6S1e7wM2OXVGUe76lAVYoQdqpEkAigRYkCTAWy4ALYADCkQVKGUVqcmcvT2w1QPdaqvarMeYsI3oKvq2tqNsJfS4cuvaOzo9pqduo3W11O3UcwtdTt1G7Wup26jq4UF8HRqCfkq6i9WyslyMNbp+3UZ/TOkE1TL0yaXdJG7SaVdqbS2k6VcpG7SaZdJG7SQk7aJuY3emyVtJ3Tot4ghfeEKaXOdY1NFH4NNy7WgsNLfWuP2ROR3am3aT3dFN5az8bQoZrRWnuS+ixjthNXUsfzL7xGPpk7Muvq0/wvo0AG9QgAAAAAAAAAAAAAAAAAAAAAAAAAAhCHWYXiS8SeHuH6+6TsYrTyosqt2M3Yq/W0VUzhx7ptvOFvoLJKj11Uz002C+Bez7zR/CRlLy4bserq2xi5PQLNq6l6mdGLzZrs7tHvNGOTMbtaZG3Sa1aZGldJvVpkaV0mmK9vl5NhtcjbpNvt0nFVMHbafSuk2eQqypWRuiprZLFbOxVlNRulTu1GeuU/caZdJ+7UYklRFgLtU4q2o0e71eltRsN2qd2o0yqb09Wq91dTGiUl5jQ2Vp5eMrKPa2pi6Acy+jHWOqkCQUEUgABJcIqSAZCREkRFQAGVCoUnLR50xJctIvMeKwhCHazNpWAS558vjy2jgLhluI7+sJqf7JTYvP+RvkT3vyrE+hllKq8oQ5Qh2Qga9wfw8nDtjl0WmM+Oue69549v1Q2w+g2blCHOJZ0w0i8F4nme83+fHbx8nguNfTW6gn1lS0EkSEi7t8kIHzlxFfKi/3mouM7JYNHlKlZfukXav+rzMbn0p8VxrK2FjpX5SKdoNPivef1L9X5vZObHHk2+ctYr/wLw/pQ69ndL+gSAOZ6IAKkUg6v0ecFRp0lXy5Sv2+6mksuyHjaHi+Tw/4YLo94OjeapLpXScrfImaEZdM54fpX+MerxHc/V2ndjUfXJ5TxrxT/wDnq/1/+PNPpZVTKmSJyLMlTFZWVoc4RhHthE4HxlwrN4ZufKWsWoJ8WaQ8dXKPgj5l7viX3jvddVyKCim1VTMWXKlLFnduyEDgPF/FdTxPX5R5yqOUzfB5UfzN87fhJ5Wuvx+bl9n439bmVfZ9TXACRXPbAAMJAJAMgAAAAACoAAAAbT0df+OLZ7Uz8jGsGz9Hf/jm2e1M/IxOn9JFyZ/6rZ/Dz/R9AlQC5fMgoVKAfO/Hn/je7/8ANX8qmumx8ef+OLv/AM1fyqa8UlnfJ9Qwv1av/Lj+iIAMOpQFQEVAAAAAAiSAEQAGEQSImUW2cD8IzeI7h6WpV0t8hv2j7c4+Bf5/IvtHdpdPJp5SypcuCIiwgqrDlBVh2QOC8HcYT+G6zCczzbfOjynovXjHxr5vEveO8U9VIq6ZKiRMWbImrBkdY84MsfWWOLrr8Pm8P4/G/r8dTs/D/wDftcx6RuCotCbfrdK646qqUq9vnhDxeL7fEcrPq2MOa9cThfSFwdGx1vxhQyuduqGjzVYdUl4932Y+r7PCasmjy9cXb4H4p5/2e7/x/wDjRQVKHG9UESQJIsrw3fJ/D16p6+XBmVY8pktW/eI26H6l80D6NoK6muVBT1dM0Hkzkg6R+WET5bOk9FnFMaWtjY6qZ+wnszU7N3X7y+92/T7R1Y13lzrJ53xzw/qQ69fdx/R2RpSsuMYQjCPbCJ888dcNNw3xAySkaFJUZTZEe6viT3fytA+i+rtNX4y4eXiKxzKOGMKlddO7d14dnux2x9o67YdSLz/hmZzi3+fPbz83ziUJzEeU8UmJFHSLQjCParLpZSLFY99xz5gACKhEkRDCLEgCQtguFsMBGJIBFQtVEvKVlDcupS6CSMo7R1ey0VOSrqN6tNTljqOaUsz0FVFO7llA3S11O3UdMVDkw1dLtc/bqNuopuS4nPLXU7dRudun7TfFR3xem4yslY0+6SN2k3yevpJORrFykaWJSRok5pdpG7SaXW+loqyVVSIxhNkurpGHdZY5KdLu1NkraTRbtTaW0miS5ol5vo6wXWXfLFQ3SWsMKiUszlDrxaMOuH1RygZnl2nI+hG8+mtNdZpra6J/SorR7j9v2NBvvHXOfUb487cKC+rpWyikADLWAAAAAAAAAAAAAAAAAAAAAAAAtx6uv5D5n48uvx7x9WzYPzkUrLTyvZXd95sjvvFV2WycL3C4c8WkyGintdi/ijA+ZLTKaY2UWZmZsmZu8xqt+Wq08Mr+MrGzWmRtN4tcjbpNatMjbpN3tcjaOG3Jk2G3SdukytU3o5WJYoJWKqxbuM7FWJquXqkwFzn4q2o0q7T8VbUbHdJ+40m7T9xCSxog1q7VOKtqMBTrlzmx9bdXsnrus1pkzGHazYltVgqrCG1VOW2T0OHX9SQgBA1LFUAGEguFsuBlFSQAEwARZUKQKlQkHSeinhqNfc3vM9P2FI3KTGMN02K6o+6rfebynPaWmm1lVKp5CZzZ8xZaQ8TM2Kn0pw/aJdislJbZWqEhOTP4m7Wb625m/Gr2lspPHczo09GPdL+jOc+w1XjTiKHDvD86pXGNU/7KRBvW8fX9EN31GzRmQhCEflPnnj/iGN+4jmKj86OkylSsW0xj64/W38FU6756R83nfC8T3q/Xnt4+bV2d3mRmTIs7xi0Yxj2szbolCkCZVvoHHHl8AAqEwzfC/D9RxLd5dJLgySYa6ibDuJ/qbbD/AOJh5cqbOmpLlpF5rsqwhBdTM2lVO/8ABvDcnhmzS5Lcmq5uqoeEO1vD7K7Yf/s249W8lR4x4h7rVrHul8mwUVFIt9DJpKeWsqTKWCoi9iwgepmVUZmjygT6owOV9JvFUaaW1joXgs2Yv+0Osdix7v0x9fl9osZ2RhHz5eKxsezLv4hH8Wtcf8YxvtY1DRTIwt8iMetf+M8PX7MPV97wmlgkVNlkpy2k+i4uLXjVRrgAAg6gkAGQAAAVAAAkEkSQGIDsJ09NUVk+EmmkvOmvHFURcmb3TO8NcH1/Es7KWvoqNW5TKiMOr6FXvN+FTs1j4Zt1gpvR0dNBWiuuazc3me1H+XYb6sbmz1fSpPEfG6sX83D1T/8A3zc5snRbX1Kwm3adCjl9vopeLP8AXHsh+I3+zcH2WyNCbS0a+mXbOmRZn+2PZ9RskfL1FX5whDlHrLGuiEO14/L8Uysn9JL0/s4XQAbHAAADUrzwTZb2zzqml9HUPunym5M30+pvrgc8vnRnc7fzmW1oV1Ourky4zIe72R+r7DtUIaOrqiVgsWh19vymudEJ/NYYniuVi9svOP7OXy5NSZIdkmpFHRsWWK4xVvMpQ+gOIuEbdxHI51ErCoguKVKdTr/nD5onGOIeGK/hqo9FVpnImNoqEXqf/S3zFdbRKv8Ahex8N8YozPTL0z/Z/wDGGIkgaFyiCRECgKgIqAAARJACIADCJvPR/wAXxtNWlsrZv+wT30uzfuXj+lv4R6/EaQRJ12SrltFx5eJXlVSrm+rYdkDxV9BIuFDOo6lFeVNWKureuBz/AKNOKfjGVLtNfO51Uhf2LtHrmpD1fTD8vvHTmLauzifG3D55kY9mJdpLui+aeJbDP4du82in84y21SZsV3p3W9rusYU7/wAa8MSuI7M8tIrCsk5TKZ29TeGPlj2fZ8hwKbLeW8UmKyOkWhGDLi0GXdBiuvq0k9r4T4h71V5S7o/NAFShqW6JVXeW8Jkt4o6RWMIw7VZdsSpCIQ548/g+iuDOIE4ksEqpjjColx9FUQh6pkO36o9vvG1Rj2nzz0f8RRsfEUtZj40lXjKm5Npg3qb6m0/Qx9BwmQjCMeXYWtM94+b5/wCK4nut+vHbz8nD+lTh2NFeFu9OkYSKtsZvJdKzVXt95f4rE52fTfEVnlX6xVVtmYrGemlvAy9at9Tcj5rqKabSVM2RPRkmypjI8G7rK2LHHk16y2ei8CzOtT05d0f6PNEqVKGhdqgAIoEWJAkwFsuFsAAAwpEEmImUXnnrjGEyHdbr+g2C0z8lXUYV1V4RhHvKXrVPZWxj2q2Juqkrsyv6nTLTPyVdRu1tqNK6jmlpn7dRvFrn7dR08PPXwb1IbOTiYq5St2k9Vum5Kpcr5WSsxNXR9MnPLpI3aTR7tI3aTpV2k7tJpF2kbtJCS0okw/R9c/iPpDomaOMmqZqWbq8W38SqfS69vM+R7pLmSpyzZTMsxGyVl7rLtPqDhy6pe+HqG6QisPhUlXiq91uWpfqbIV/a0+J1/GM2cABtVgAAAAAAAAAAAAAAAAAAAAAAADkvTdc/g/D9Da1bk9bUc2h4kTV+aKnMLRI0rpM50r3T406QGo1aLSqCUsrq7Mm1N+ZV908dpk7TTL1SX+LHTH4bVaZWldJu1tk6VNZtcrabpbZWlScXDfJl5S+jkZGFuM7cZqob0crHymr3SdpYy5ao7Sa1dJ+40W7T92o2e7TcVbUaLd5+KtqNUlzjRYRm9LWM3dXUegsUq/s2dtzNkXzklLaT0NEdawqRgSIN4AAkuAFIBlUkRJERUABlGBIKSVWZlVVZmZsVVe8wS558nReifh/4Xdpt2npyk0eiVz701oao/Uv5jt3Vzia5wjZFsPDlLQxhD0qwymx+V262/j1fUbHyhziWdUNIeT594jlc5OTKf4fg0npFv8bJw1MSTGMKus/YSeXavOGpvqh/GKnA1Nv6Rr38c8VTlR+dLRc5Erltiyx1N97T7pqKlffZvN63wfE93ojzLul8QkAal0FQe+0WydeLtS0NPpedHFm8K96PuqY49TXZZGqEpyb50WcNwqqtr5VS+UqU0UpoRXc3eb3dsPe+Q7HphFonit1ukW2gp6KmhhKkpBEh80D0tFJcGeLQgsIaoxj1QLeqvSPk+c5uVLLvlOX+jXOMOIZXDdmm1OKtPfRISPedv0w3RPn+fOmVVRNqJ8yLzJkWi7x7Yxbcxn+M+I24jv0ycjR+B0+Uqnh4l7ze9+XE1srr7d5el7PwXw/3ejeXdJIAHOugkAGQAACoAAkAEgAkEkcTc+DOBnvbwra5GlW9Y9UOXKM76PCvz+v1EeB+EH4grIVlWjLb5LaocuXpW8MPL8sfqO1y0lypcUSMFVYQhCEF5YwOzGxtvVJ5Xxvxnpf2eju+rn9itPTyqWnlyZMtJUlF5Kiriqr8mJ7ACweN+YAAAAAAAAAAIx7DxV1vp7lRvS1UpZsl1xZG7GPd2jlAycc8x58+Hz7xfwhO4eqfSyoxm2948kmx7Uj4W/lH1ms4n0zW0VPX0s2mqZSzJExcXRoc4RgcI4t4WncM3DGOUyjnMzSJse78zfOv4isyaNfVH5PbeCeM+8cdC7u/q10EiJyvTBEkAiiUKgIqAAARJACIADC5TVU6iqZVTTvFZ0mKukYeplPoThW/SeIbPIrZeKv+7my/A69q/wA4fNE+dTaeB+I/+z9+lxnvypKiMJc7n2LH1P8AV+VmOjGt0l5SUXjnh/vFPUr7ovoPqjyOM9KHDHwWrW+Uqfsp8YJPgq7X9TfXt9rHxHZV5PDnAxtxtdLc7ZPoKqHOVOWKND+f0+ssba94+Tx+DlSxb4z/AA/F8yFD2XS3T7Tc6qhmw5zJL45eJe63vLix5Co7X0aE42wjOKhEkDLYgx37o9v0L5wzKjOjFqqlj6Cdz3RjCHU31w/jkcBibh0b374m4qky5j8qWt5SJvPsVu633tPvG+izSfkpfGsT3ijnmPdH4voLqjE4f0r8P/ALvLusheUmshjNx7s1Ydv1r+WJ3DlDnA1vi+xLxBw1U0Cwh6aMM5UYw2vDrX/L6zutr3h5PJeHZXONkxn+H4vm4jEuMrKzLFWVl0srd0ixWPoPHPn8QABFQiSIhhFiRSJUkLYADAUKkYhFUsK3oazLutqL5Yql0q/hYnGXqaL47VtvtM/bqN4tc/acztE/Suo3y0z9K6jri89k1uiW6btMzPX0krI1e2zdKm0SGzk4m2KmtjrJrF0k6W0ml3aRpbSdCuMrSxpt2k7jEnVRJzO7yNLaTq3QjdfhXDVVbHbKZQVDYr4Zb6l/jBjnN1k7jJ9ENx+L+PI0TNjLr6dkVfMupfwwb7xrj6ZO7Jh1cfn/AAvogAG9QAAAAAAAAAAAAAAAAAAAAACPZygWZkxEls7MqqsOcYx9UC/y6+ZqfSBdIWnga71UG5PGnaUkfM+lf8TLMY7S444fO82qjdL9X3DVGNVUPN1eFosy/hNttMraahZpWPI320ydpzReiu9MdW1WmVtNxt0rSprdrk7TbaNcZWXlN0VNfJYr5uKsahdp242W4ztxpl2nbjMkqItVu07dqNFu81mZlhuZsTartO3ajTZ7elrFXurqOayS+xIbJwhyhCEPVDEkAcq8VUAGEguFsuBIBFSRFlUkUgVDKgBVQkG4dG1m+NuLad3hzkUUPhD89rNDbD72r3TTzuPRPZloOGWr3XlNr3yhH/y10r+pveNtEdrFb4xk9HFlLjul8HRYwhyNZ41vkLDw1VVMtsZ8V9HJj526ofZu+o2ePLl1nEuly7+nu9PapTc5dKvpZkPO237q/mO62zSHm8h4dje8ZMYc/JznUzZM2TeJu8CkCZVPonHHkAFSKYdf6KeH/QUEy9zoQ9LVfs5GXqlQjqj70fyqcus9tm3e70tuk5K1Q6qzL3V3M3urkfSlHRyqKkkUshVSVJlwlpD5FhDlA7MSHnzs8z7Q5mlcaI/j/R7Y8ocjm/SjxFChtK2uQ/KdVwbOMI7ZXe+9t+8b5U1EqkpptRNaEuVKWLNFuyEIdcYnzlxBeZt8vdVcJuUITWxlQj3UXav3fxMxvyLNI+Sp8EwvecjaXbFiyQBVvfhIiSDIAABUAASACQSAIpBmOGeH53Ed4l0qc0krqqJsO4v+cdsP/iYiVKefNSVLRnmvFYLBdzM22B3vhHhyVw5aEk6Wqpuue6+tvD9C9kDpxqupL1dql8a8S90p1j3y+X/1nKCip7dSSqSmlrLkylgstV9UD3Q7BygPUWr57zzzLnz5VAAAAAAAAAAAAAAABDlDlyMPfLNTX22TqKrXnLmQ6mh2rH1ND54GZ6owKNy5dY5482Yy5hztH5vmi72uos1xnUdSutG6ow7HX1NDyseI7Tx/wut8tkaumTnW0yxZIL2uveX9UPn+k4tz6ymvq6Un0bwnxDjMo+PdH5hEkDUtUSJIEkUShUBFQAACJIARIsSAYdp6M+I/jWzQop8zKqo8UjFo9bp3W/T7vznQeqMInzbwre2sPEFPW5N6PLCdBe8jbvu7vdPoyXMWdJWYjQijLlCMOyMC0xp7w8nz7xnC92yPOPbJzTpZ4f8ATUkq9yIa5OMqdyhuSLaY+60fxHIj6ir6KTX0U+knwykzkjLeHywjA+abrbZlqutVb5u+RNZcvEvdb3lxY58uHlLZdez2ZvXKiX4f0eIFShyPSBHJlbKDMrLtZe6SIRJIc8eb6O4Mvnx/w3S1btBp/LCd8zw6o/b2/WbLCEORxToivHoLlV2qa2ioX0spW8S9TQ+tcfunbIcuRa1Wbw83zvxHG93yZQ4+T516R7RG08W1MUXlIrP28rHs1bl+9l941I7d0r2da3hyXcZa85tFNyjHyNpb8WLHEThvjrN6/wAJyevix5+qPwRiVKsUNSyVIkgEUACLBhItlwtkmAMAEVCLw5wjD5YYkgSRTtE1lZVjuXSb3aZ23Uc8p29FWRXutqN0tM3adNclHlw1dGtM3abjQTMlVTQLTO2m6W6btN8VDfFduMvSxp92k7je6xcpeRqV0k7iUkaJOcXaTuNVpa6Nl4jorhDJfg9Qk1se8qtqX7uRvN2k7jQ7zK3GiS5p9UdX1gjQdVZeUVjDnCMC78prHAly+NOCLPVxjk0adUdvMulvxKbR6zoedlHWXPCoADAAAAAAAAAAAAAAAAAAAKeo5P0318ZPDlDbkji1VUZR9lFy/NFTq5wLprrI1HF9tooNklPS5x8sXZv5LAhZ2uvChtfFqtok6VN8tMrSpqNok7TerTL2muK1yZNqtcnSpsi/s6Ywttl6VMzUNjJx8ptipp9zA3KdpY0m7TdxtV0naWNJu03SxiTroi0+7ztLGsydU2a/m5GYu83SxiqVcZSt4tRy2PRYcfUvCAEDQtFQAYSC4AGVIFQAJgAiyoVIwJBJfpKWbW1kikkw5zZ01ZUPaZsT6httHKt1spqSSuMqnlLKX2VgcJ6MrT8Y8YyZrQ0UiNPbLxbV/i2Xun0LA7cWPp2eQ9oL9ro1fa8tROlU8iZOmPiiKztH5IL2nzJdrg92vFZcZvbUTWmKvhXuw91cTt/SZc/i3g2oRG5Tatlp1+ht34YMcCIZUvjq7PZ2jWMr5fj8AkAcb04VAgsXjBEhzjGKrCC95m2mDnny483UeiOyxadUXmav/kScvtZvyr9p1+HYYHhm0rY+H6OhhCGUmXBXj4mj1s33osZ2MeUYlvVXpDV85z8nnJyJT5c36U798Bssu1SG5TK1v2nLuyl7ftjiv2nGjO8YXmN64lqqiDZSEb0Uj2V08/rbKPvGEK2+e9j2/hOJ7tixjz3fPkAJGhaAADIVKFQBIAJBIAikAF6gpJ1dWSaWTDnMnOqQ+mPe/UOEZzjCO0m99GPDrVNc16qU5SJDRSRBl3P6292Gn6WbwnYoQhCBibPa6e1W2loqeP7OSnJdPb4o/XHrMt1F1VX046vmPiGXLLyJWc/L8P8AJcABscYAAAAAAAAAAAAAAAAAALXVHl85wnpA4ejZr49TJl/7JVszrCHYr95f1Q9ryndY8oQ6vUa7xdZEvnD0+l5L6WEM5LN6nh2fb2fWab6upDyWXhGbziZMZc9svhy4ACkYRSMYRg0IwjjGDblbwlSnfSOOfP5BEkAkiRJAkiiUKlAiAACIJETLCJ27owvi3LhyFFObnUULKmrtZG2t+ZfdOJmzcA3qNl4rpItM5SaqPweby7NW2P1Ny+8xuos0sVHjGJ7xiy4j3R+L6F6oKce6W7JhUUl4lw3/AOzzsfl7Vb8y/Ydg6vqMFxTZ1vnD1bQxhDOZKb0UfC8NSt96CllbXvDyeKwMjnHyIz/B83FCrKyxZYryZWxZW7rAqH0njnz481CJIGUXtstye03qjuCdtPNV2X5V70Pu5H03Tzpc2Us2WysjqrLGHrhHsPlU7/0bXX4z4NpebZTaZmp35x8O38MVOzEl8ZReX9o6POML/wBnwbLc6GVcLXV0U6GUqolNKaHlaHI+Xqqmm0dVPpZ0OU2S7Snh5lbFj6vj2Hz30m2v4s4ynzFh+zrUhOX2trfiXL3ieVH07OT2ev1u5q+5ppQqRicT16QACKBSJUEmAtlwAWwAGFIgRBlF5pscZ8p/dNotE7aa1ULlJZvC2Rl7RO0qb6lXmR9TpVpm6VN0tkzac9tM7SpvFrnaVOqLzt8W1P8AtKY1q6SdLGxyGykMphblL3EpOSvuc+u0nSxod3laWOkXWVuNFu8ncaZLnGk6P0IVvwjhWronjqpatsV8KtBWh+LI6qcD6FK/4PxVcqCLYrU06zYQ8TI3+TRO+GyvtVWbHW6SoAJuQAAAAAAAAAAAAAAAAAAFuJ8zceVfxh0kXZ1bKXKdZC+XFVVvxZH0xMaCy4xifJsJ8ble66tjHnGoqXm/eZmNVvyWXhkfXKTZrRL2m9WmXtNQtEvab1aZe0cN+TJtFtl6VPZXtiuJaty4qpC5NpY2fSq/qatdpm40e7ztxuF2mbjRbvM3GuSyxotMvEzJoqWlXFVXwqRr29JUqviYuHLY9HhR9ISUiVNTuAAYSXACKhlIkRJERUABkUAZY6vCEnZuh23Qk2euuEzdUT8Fj5Uh/qi32HT/AFmucF0ELbwlbKeMOTwkQZvabVH/ABNjhsh9BaVR1hw+d513XyZz/vcV6XrnGdd6O3I2iRKaa6+Zm5L/AAhH7xzhewzfF1dG5cW3KqjHq9M0pG+ZdMPymEKy2XnZLl7nw6jo4kIpAAgsVTaOj22fGfGdFzhlKpoxqH93b+JlNXOu9EFs9Db6y5suuc6yk9le38UY/YbKI+dkVZ4tf0cScv8AxdSjCEIQ5+o1bji8xsnC1VOlx5TpkPRSvpbq5/VDm3um0x5Rgcd6XLnCZcKO2JGHKWsZ01YfK2lfwwb7SwtnpXzJ4vw3H94y4Q5+Tmi6SQBUvpXl5BWBUGGQAAVAJBIAJBIABEDovRXZfSV0+7zpeiTDCTz8Tbo/UuK/WxztVZmVVXJm0qviPoXha0y7Pw/TUUOWaplNbxO2pv4xOrEr2nt9rz3tHl9HG6ce6TYQAWjwgAAAAAAAAAAAAAAAAAAAAAAADg/SPZfiziR6iWv7Crh6VeXZB+9D/CPvGoHcOkS1QufC06Yi851I3pkivbyhuh9mX2HDyqya9JvoXgOX7xi8bd0fgAA5l0iCREkIgkRCKgACIRJEQBTUuqDYt3WXulQZY54830XwpdlvfDdDW84RmPKVZvtw6m/EbB3onKOiG684VtrdtsVnyoeVtLfihD7x1j1lvVPeHHL5pn4/u+TOD514/tnxXxlWrCGMqoZaiV9e78WRrJ1vpftcHoaG6S11S5rSJnstqh+JfxHJCuvjrY9r4Tk9fEhz/wCKgANazRbsOldEFzwutdbWjony4T09pWxb+EV+6c1M7wZcPi3i62z+eMGmrKf6G0/qU2Uy8rI8q3xKjrYk4vpSBy/pjtvprTQ3BIc5lPNaU3ssv+pV+06h6oms8cUELlwbc5MIc39DGantLqX/AALK2O0OXh8G3pZEJ/3vnAMN2oMVb6IFIlQEVCJIiGAEWJEhbAAYChUoZRRZcpbL4lLtnm4xgpAt0DejqWXwsbanDmR9LolonbTeLTM2nPbRM2m9WmZtOrh5zJi3mibKWeO5S9LF23NpUlcV0sTVv1NEu0vcaLd5e46Jdpe40W7y9xCS2xpMX0f1fxf0lWpnbFZ7PIbzc1ZV/FifTPynyZJqY0HENurYdlPVSpvP2WVj6yTZzFXycvicfznElwAG1XAAAAAAAAAAAAAAAAAAAw3EFT8A4cudXzx9DSzZnP2VaJ8uWZdKn0T0m1XwTo8vD88YxkwlfeaC/qPn60S9pps+a48Nj5Vyk3e0S9pvFpXaadaV0qbxa10qZ4a8htFEuMvLymPuTbjI064yPdMLcm0sTcFfc1S7TNxod3mbjc7s240O7zNxqkt8aLWHb0ld7MGYuliVqqZreFcS+cs/m9HjR9AVIwJGt0gCgJLhSBUpAMpEiJIiyoAAkqeq20ca66UlJCHOM6ekqPvMqnlNs6OKL4bxxbljDJJGU1vdVuX4mUzXHaWrTlWdOmU/2RfQ0tYLLWEIcoQh2HgvFalts1dXNHTIkPM+xYsZFupTS+k6tjS8FViwbFqhkkL70dX4YMWs5ax83zzHr6l8Ifdy4HkzNlFsmbUzeYkRJFO+mcceXHkFShUimZYrl4T6O4Qt8LZwnaqVup1kwi/tN1x/FE+f7NQ/GV9oKLuz6hEb2ctX4cj6fRYS1gi9kDuw+O6TyvtLb8IVf6qtCEF5xPm7i24fGXFdzqu1PSsiN8y6Yfl/Ed64hr4W7h+vrYxhCMmQzw5/Ly6v48j5q1d5sm7zDM57Ytfs1V652/6JAA4HsUgUgVDIVKFQBIAJJAAikAAMti4GtvxlxbRpFcpclvhD+yu38WJ9BYnL+iW3cqetukxYanWRLj5V64/xjD7p1CLci0xI+UPN888fyOrmSj9vwTAB1KUAAAAAAAAAAAAAAAAAAAAAAAB5p0tJkt0ZYNBocowj64Hzbd7fG13esom2yJrLD54boR+6yn0usecYnGelW3wp79S1qQ5LUysWbzL/APqMPunJmR86/N6D2bydMrmv7v8A00IAFY96EWJAMIkSQJIolCpQIgBSIFAAGGxcCXD4t4yoJjRxSczU7+zHSv4sT6H5c+uB8rpMaRNWajYvKZWVvMrZKfTNurEqrbS1KbZ0pZi/XDmWGHz5x54eM9patbIXfd8GN4zt8Lhwjc6eG/0UXT2l1L/gfOe5cj6rdVmLFWhzhGHKJ8xXeha23quo4/8A+epdF9lW0/hxMZnHbJv9mrfhOr/V4ShUocL1IRVmlssYNiytkreZdpIiSQ548+H1BaqxblaKKsXbOkLM+1YRPZNlwmSXRoc1ZeUYGodGdVGp4JooM2TSItJj7rRx/DFTdYdhcQltHjl8zyIdK+cPt5fKdxpY0NyqqWPbTznlfdZlPKbT0h0XwLjm5qq6ZrLNX3lXn+LI1Yqpx1lq+h41nUpjP9sVAUiVMNypEkRCKMSoBJhbADBgKFSMQiqWpTY10fMqsXSxN01MpvEuJsh3ObJjtBuVombTfLTM2nOrQ203y0ttOqLzmTFvttbSp7q1cpeXlMVbW0qZmoXKV7ptVEvm0y7LuNHu67jf7suljR7su4hJY4znN5XcfU9iqYV3D9urP66nlTPvKsT5hvMvcfQnRnUwq+juyvz7Kf0f3YxX9Ih80vEuPOuMm4gA2qcAAAAAAAAAAAAAAAAAAHNemab6PgNpX9dVSk/FFv0nHLMu06r05zf+7dskeOuVvsRv8zmFmXaabO5eYEfLHbxaV0qbxa12mlWldKm8WtdKk4uXIbEummNdujaWNibTTGsXRtLGXJV3NOuzaWNCu8zcbxdm0saDeW3GqS6xosFT6mdvEx6SxS/usvEzF85Jdz0VXZFSBIjAkQbQABJcABFlUkRJBlQpAqVUJB0joepPScQ1tVHUsqnVYR8LM3/xObnXehqRhRXWfy3zUlrH6IRj+o20R2nFWeNWaYcnWo9hyrpnqIrbrbSrH95OabGHsry/UdV+Q4l0x1OV/t9PlpSnZsfab/4nXkS1g8t4PXvmQc4gTIkitfQAqUKkUm29GlLGq42pmiuUJEt50fsxh/Fj6BXsgca6HaWEbncqrH93KRF96LR/kp2OEews8WP5t4Px2zbM1+3hovSlWRpeD5klY8o1M6XK93LKP5Th51PpiqIq1qpIN65s1v4Kv5mOXHJly/OPRez9PTxOJfd//gASOZeqQKgBlUAASCgKEkgARSCREvUlPGprJEhe2dMhKh9bKo4RnLWHMpO78D0HxbwpQy4w1NKhNb6W1fzNn5ao/OWJUlJcpEXqVVVYfRA9HqL2MfLjyfKLrJWWSnz+KQAMoAAAAAAAAAAAAAAAAAAAAAAAALffND6UaJZ/DMKiCwi1NNV+fzNpj/jA32PZEwvEtHC4cO3GkhyymU7wXn8uPV/HkQnHaHPDowrejkQn/e+dyJJdS5EWKR9V4+QAAwiwJESSKIACKhSJUARBIiGA710bVXwvgqhV25tIykR91o4/hxOCnXOh2rztlypG/wCHPWZD3l/+J1YnPlN5/wBoqtsTb7eXTWXqifP/AEkUcaXjetaEMYTlSavvLjH+KxO/q3PKH0HHumGkVbvbqrl+8kOjR9llj+o68rj835KDwCzXM1+7j/lzQoVKFW94EIkyJJF2LobqvSWq5Usf+HPg8Ie1D/8AR1FTivQ3Pxvlxp4tpm06vj7LY/qO0llRLzri+f8AjFembNw7pipvR8SUlRDqWfS+ji3iisY/6lOdHXOmeRBpFqqIQ2zJkuMfpWEf0nIzkvj5Tk9R4PPfDgjEqVYoaloqRJAIoAAMLYLhbJMBGJIjEIqlio0tKbwsXyxVfulbwspKPc1W9kmxWiZtN8tLaVOeWZtpv1pbadkXnMmLfba20zzaqY1y1tpU2RdVMbYqa3uazdF0saTdl0sb3dF0saPdl0sYk7KHPryu47L0M1PpuAJUr+oqJsv8WX6jj15XSx1DoLnZcNXGT4K9m+1F/wAiFfc6c+PnjusgA3KMAAAAAAAAAAAAAAAAAAHF+nSbylWKRDvTZrcvohCH6jRbQu03Hp0b/e9ih8kqa38VNRtC7TTLuX+L+qxbxaV0qbva10qaZaV2m7W1dKk4q+9mZ+mQatdG0sbVVfuvdNSuzbiUmiruaXdm3Gg3ltxvV2bcaFeW3GiS7xmNpf3EC8WZP7lPZLxyPQ19qkCRGBIi2BcLZcCQCKkiLKYKQKhlQqpQqoSDufQ/K9HwjOf1zat2+xVX9Jww+gei9IS+BaCPytNj+Nv8jfjd6j9oJa42v+JukfWcB6UpsX44qF5/upMpf4M38zv3qifOnSDN9Lx3d28MxYfdRYG/L/Rqn2ejtl8/5NZJESRXvbBUAik7J0OScbFcJ3jqsPuqv+Z0r1Gi9E8qEvgxG/rKia34sf0m9Q7IFtR+j4fOPE5bZlnP97hvSrOjM4sSVCPVJpVh7zRjH/SaObR0jvnx3cOW1ISk+6i/6jVytu/SSe88Lr0xK4/3cBWBQkaneAACpIiSCQSIkiKQAAJGwcDUnwnjS2rHsSY01vdVo/mxNfN46LJEH4omT4r+5p25fTGMIf6jbTHayLg8Un08OyX9zthUAuXzIAAAAAAAAAAAAAAAAAAAAAAAAAAAi2yP0EigHzLdab4Fd62m2wk1Dp7sGbkeU2Hjym+C8a3JV2uyzF95Vb82RrxR2R1lKL6riT6lEJ/dHhEAEW8IkiLACJIiSRUAARUiUKxKADonRBOjC/XCn59TyFf7seX8znZuXRbM9Hxqq/1lPNX8sf5G/HlrZFWeLx3w5x/ud39cTmnTFIys1un+CpZPvLH/ACOlw7YGh9LUj0nB2f8AVVEtv8V/UWF/6Pl4fwuWuXX/AJuHFCoKl9HUIkiJJFuvRXMivHEhcv3lPNh/hH+R3uO8+eOjqZ6Ljy1N4mmL95GPodt5YYfY8V7Qx1yuP8v/AK530xSVfhSS/eSsRvvKynDzv/SpLhN4Fq4+CbKb8aw/mcANGT3rX2fltjf6jFCrFDQvFQCkQiiAAwFsuFskwEYkgwRULVT+5iXS1O/cv9Bn6mufaylmbab9aW2nPrM20320ttOyLz2Q321ttNnlaqdjU7S202yn/cN7JuipLWDui6WNIuy6WN5uS6WNKuy7jEnTQ59d13G+dBU7OTfpMeembKb70Iw/SaPd13G3dBT43O/SvEkpvuxb/Uao9zuyv1Xl3IAHQoAAAAAAAAAAAAAAAAAAAcK6cG/7xWZfDTzG/Ev+Rq9n7psPTdq4vti/+jb87GAtC7TTLuX+P+rxb1adqm7W3appdp2qbtbe6Tir72Vqv3Pumo3XvG3VX7n3TULs24lJooaRdm3GgXltxv13bcc/vPeNEl7jPLL/AHafQpcISv3cPZUmcj0Me1UBQRSC4Wy4EgAEWUoFSkCoZUKqUKqEkl3H0N0dLy4CtUPFKZvtaJ88ruPovo+hy4HtMP8AyIf4xOjE7nnvaL9BH+JtPrifNPGLek4zvDf+qiv3dJ9LeuJ8x8Wf+Mrx/wC7m/mNuV28OT2c/WJfwsWADgewVABhJ9AdGqYcBW3zekb8bG3L2xNU6OtPAlo/5cfzMbWvbEt6+zh81zufPKs/i5/q+c+NZnpeM7u3yVDL91VUwKmW4sb/AL4Xj/3j/mMSVNndJ9Ew/TRX/DwFYFCsCDqVAAFSREkEhSRFSRFIKQKgCR0zogp4Ra7TuW30UtfxN/pOZnWeiNILarjM8dTD+Cw/zOjFj+c4U3tBPXBl/p/V0wAFs+eAAAAAAAAAAAAAAAAAAAAAAAAAAAAADh/SnKgnFsGh35CN9jNA0o6D0sJ/vegfxSHh9jL/AJnPimyI63SfSvBZb4VfP9yESpSJU1LIIkiIAiSIkkVAAEVIlCsSgA2ro3fHjy3eb0q/gY1U2Lo/bHjy0/8ANZfwMTr/AEkXHnfqln8PL6Jbcah0mJ6TgSv8sZTf/kU25t0DVOkfr4CuvsL+dS2s7OXz3B/Wq/4uP6vnwAFO+lKAAkizfBbej41s7f8AqoL95WU+lYeo+ZeEurjCz/8Au5X5j6aO/F7eXj/aP9Yj/C1DpIhlwFdPKit9jwPno+iukT/wJd/+V/OB86tuNWV3u32d/QS/iRYoVYoc6/VKRKlIhFEABgLZcLZJgDAMEVC3M/dv9DFwtzP3TeyxJGXa9lmbab/aW2nPrM2mB0CzttOuLzmQ3u1902yl/c+6ahae6bfS/ufdN0VJexFy2saPdu8bxctrGk3baxiTfQ0G7ruNq6DmgvEF5hBt1PLaC+8xrN3XcbB0Jf8Ai65/+zX86kI9ywyP1aTvYANygAAAAAAAAAAAAAAAAAABwPpuX/vbbPNRsv42Nes/dNo6cF/7xWZvFTzF/Ev+Zq9n7ppl3L/H/V4t+tPdN2tvdNHtLaVN2tu1ScVfey9V+5901C7LuNvqv3Pumo3TvEpNFDRruu45/ee8dBuveNAvK7jRJe4zySv3cPZUmW5f7tPoUuHI9DHtVUAEUguFsuBIABFlKBUpAqGVCqlCqhJJdx9F9HzZcD2mP/kQ/wAYnzp3z6F6OOTcBWpvkRofddjoxe5572i/QR/ibf8AKfMfFmnjC8f+8m/mPpz5T5p4yX0fGd4X/wBVFvvYsbcrt4cns5+nl/CwoAOB7BUAGEn0H0cxy4Etf/Lb87G1r2xNQ6NWz4Dt/ljNX/8AIxt69sS3r7OHzXO48sqz+Ln+r5t4sh/3uvEP/Vv+Yw5n+Npfo+Nrsvy1OX3lVjAFTZ3SfRMP1UV/w8BWBQrAg6lQABUkRJBIJEVJEUgApAMpnZOitMeFHbx1Lt/CC/yONna+jJIQ4PkN4ps2P4v/ANHXhd7z3tNL+yf+XDegAWbwYAAAAAAAAAAAAAAAAAAAAAAAAAAAAA5V0wLzl2h/NNX8py86p0wQg1Ba4/JOmQ/D/wDo5WVOV+l5fRPAZf2CH+v9UIlSkSpzrgIkiIAiSIkkVAAEVIlCsSgA2To+XLjy0+2zfgY1s2ro1l+k48t/lhNb8Df6jbV+ki5M7nXEs/h5fQDdsDVukfq4DufsL+dTam7TTuk5/R8CV/maUv8A+RS0u7OXzzB/Wq/4uP6uAgAp30pQAEkWW4S/8ZWf/wB5K/MfTR82cFy/Scb2Zf8A1EG+6rMfScOw78Xt5eN9o/1iP8LVekOPLgS7/wDJ/Up86tuPoXpIZV4CusPlVF+11Pno1ZXcsPZ6P9nl/F/64RYoVYoc6+VKRKlIhFEABgLZcLZJgDAMEVC3M/dN7LFwtzP3b/QxJGXa9Vm7p0Cz900GzLtN/tC7Tri85kN3tPdNvpf3Pump2tdptlL+5903RUl7EXJtLGl3ZtxuVy2saTdtrGJN9DRbx3jYuhL/AMXXP/2a/nU1u7tuNq6DoQbiK8x5da08tcveYhHuWGR+rSd1ABuUAAAAAAAAAAAAAAAAAAAOG9OkMbtYm+WVNX8SmpWhtpu/TtK5yrDPh3Zs1ef0wWP6TRbQ2055dy/xf1WLf7S203a2tpU0W0tpU3e1tpU2xcN7O1X7r3TUrou42yfqkKatdF0sSk5qu5ol3XcaFeV3HQbsu40G8ruNEl3jMVJ/cp7JeLVL+4h5S6cj0NfapAkRgSItgXC2XAkipIAiylAqAGVCqlCqhIPoDosmQm8CUcPBMmr+No/zPn87h0PzVfhOcneSqdfvKrHRjd6j9oI7Y3/k6JDefO3SLK9Fx5c18TK33kU+ie+cE6U5cU44mtj+8kS4/wAIw/kbsvsVXs9LXK5/h/8AjSiREkV72qoKFSKTuPRLP9Jwfj/VVE1f8G/Ub5E5p0Oz4NZ7jI5/u6lX+8sP9J0z1ltR+j4fOPE465c+P73z/wBJMn0XHdbHl1OsqZ+FV/Saqb10tU8ZXFVPPhDTNpV+8rMv6lNFK26Otknu/Cp74lfP9wSIlYGpYKgACpIiSCQSIkiKQAAykd16Okx4Ht/m9I342OEwO98AyoS+C7XDxSYt9rRj/M7MPveZ9p5f2aMf8X/rltYALJ4gAAAAAAAAAAAAAAAAAAAAAAAAAAAAAc16W5f+4KFvDVcvtVjkh2TpVl5cLo3L93Uo38Ir/M42VeX+ke+9nJbYXH8XKIAOVfBFiREARJESSKgACIRKxKADduiuV6TjJW/q6Z2+1lh/M0k6L0QS4xu1yqIw6kkIkI+0zR/kb8f9JFV+MWaYc+f7nZvWc+6W5qpwokv+tqJa/Zzb9J0H1HLemOogtuttPz3z4v8AZDl+osLufKuXLxPhkN8uuLkQBQqX0YIkiJJFtHR1K9Jx3bIfIzx+6jH0T2wOB9FcmEzjVHj/AMOTNf7cYfzO9rHsLHF/RvE+0Mtsvjj+5pHSpMw4FqoeObKX8UG/kcCO4dMU5U4UppXresX8Ksxw80ZPetvZ+OuL/wCQxQqxQ514qUiVARQAAYC2XC2SYAwIxCKpanfuX+gulqp/cxM/U1z7WRsy7TfbSu00WzLtN+tK7Tsi89kN0ta7TbKf9w3smsWtdKmzytNOxuipLWFuTaWNKuzbjc7o2ljSLs2ljEnTQ0a7tuNv6DE/3nfpvhSQv3ot/pNMu7bjfOguTjJvs6PPVNlL9kGj+ohHud2V+q8u0AA3KAAAAAAAAAAAAAAAAAAAHJunSTlw3bJ/gr1X7yN/pOY2ZtMDr3TLJjM4Dab/AFNVKf8AFFf1HG7M2lTTZ3LzAl50Og2ltKm8WttKmiWltKm8WttKk4uXIbK2qmNYui6WNmhqpjXrouliUnJV3NEuy6WNBvK7joN2XSxol3XcaZLrGa9S/ucfCzF881LpZ18MT0nJLuehq7IqQJEYEiDcAFwJAAIsqkiJIMqFVKFIBJI650NT8pV0p27syXNX3ljD9JyM6H0P1UZXFFVT5aZ1LlFfMsV/k0TbRLynFW+MV74cndDivTJI5Xq3VXLqm0zJz9mOX6jtUfWcv6YqX0lnoKuEP3U6KN7LQ/1Kp2X/AKOTyvg9mmbBxwkQgTKx9ACpQqRSdJ6Haz0d4uNHl++krNVfZbl/M7Ey5Yx+k+f+jqshS8cUC8+UJ0HlN7y5Q/iqn0EjdUCzxefzbwfj9euXt93H/Dk/TBTxitqq1h1K7yo+9CEYflicuO5dJ9H8K4PmzoQ5/B5iTfdy5N+GMThpy5fHlPzei9nrtsTiP2hIiDlXqQKQKhlUABJIkRCgSABFJRo8oM3lPpCx0/wWw26mjDrlUyK30wVT55t1PGtulLTQhlGZORPtZcvwn0xLhBYQWHZA78KPdJ4/2os+Ndf+a8ADveTAAAAAAAAAAAAAAAAAAAAAAAAAAAAAGm9IlOs/guuhBeuVhNh7rQ/kcJY+jr1TfGFkr6TnqmyHRfpiseR85avXpbvFfmx9UZPZ+y9u1M4fs5//AH9AAHC9UiwDAkgiAAioAUiBUiAGA7D0P0mFjrqpl/e1GK+yqr+qLHHjv3R/R/AOC7ejwhCLo06PvMzf4RgdWJx5zef9ordMbX7uW1IuMWj9BxrpfrPSXu30vP8AdU7PGHmZuX8jszN1Hz50h1kKzja4co84SsZK+6ur8TMdWVz+bUXs/Xtmbfbx/wANVKFShWPdBEkQiSRdM6GqaL3m51DdiSETn7TM38js/wApzHobpfR2OuqmX99Ucl9mCr+qLHT4FnRHWuL5/wCL2b5k3IemedCC2mmhHtjNmxh86whCH5onJjoXS9VxncVSaeDaZNMvP2mZm/wVTnpx3y85yeq8Hr0w4DFCkSpqWSpEkRCKgADAWy4WyTARiSIxCKpYqv3Sr4mUvlio1NKXzEo9zVb2SZuzLtN+tK6VNItC7TfLSulTsi85kybna10qbIummMBa10qbA+mmNsVNPua7dG0saPdm3G53RtLGk3ZtLGJOyhot3bcdQ6C5OPDVxneOvZfsRf8AM5XeW3HZehmm9DwBKm/19RNmfix/SQr7nTny8sd0gAG5RgAAAAAAAAAAAAAAAAAA0zpNpPhfR5eUhDKKyPSw91oN/I+frNM2n05f6WFw4dudHy/fU02X95WgfLdmmbTVP5rjw2XnXKLo1pmaVN4tbaVNAtDbTeLS20cNeQ3GnbKQ3smEuS7jL0TZSfdPDcV0sTcFfc0K7LuNDu67jot2l7jQ7vL3GqS3xpNLlaambDxLkektOvo672oMpdOWfzejxpehSBIoVNbpFAASXACkAykSIkiLKgACSptHR7W/AeN7YzbZrtKb3lZV/Fiauemiqo0NdT1cI8o081ZsPdZW/SIy1ls05NfVplX90X1ZHrU0/pKpI1fBNdFFyaTjOh7rQy/DkbRJmrNky5ix5wZVaEfmiWLhQy6+1VFLM2z5TSo8/nhiW0o+cfJ88on0rYy+3l8u+skUjLaU8ZTryikWWMPMulipTvpcOfPjzCpQqRbHrtlZG33WjrYdcZM9Jv3WVmPp6W6zZausecG64R+U+Vt2k+ieBbh8ZcHWyc0dcJXo39pdP8juxJd0Xl/aWn0wu/0ZG+0cLhZa6kj2T5Dy/rjDqPmllZWZWXFl0svhY+qmjDlGEew+cuM7d8WcXXOnWHJHm+lT2W1fmZl90ZnHbJp9mr9Zzq/1YIAHA9irAqUgVDIVKFQJAiSCSQIqSIpebb+jW3NW8VpPZf2dKjTW9qPUv+LR+o7mvXyiaV0cWWNp4dWdOTlVVjekeEe1V9UPs6/rN1VoRh1esuMevSHk+beM5fvOXKUe2PwXQAblYAAAAAAAAAAAAAAAAAAAAAAAAAAAAALMyGacvFA+duLLa9p4nrafHksZrTU+hutfzMvun0XGEIwOZdKtk9NS092lLzaV+yncvBGPVH3W/wATmyobV+a58By+hlay7ZOUgEWKp9DAASRRKFSgRCkSoAiAAwu09O9XVSqaXDm891lQ9pmx/UfTlHTJT0smRL6pcpFRYfNBeRwfo7tsLnxlSs0OcunVqhvaXSv4mX7p37nyxLDDj6eeXivaW/a6NX2/+0ZkxZMqLvHkqw5xifL9yq43C51VbHtqJrTfvMzHfOPLhC3cG3KdD946eiT2m6v5xPnohmy9UYur2aq8ozu/0ChUocb1ARJFElRnTYS1hzebFVWHmbSpLhrnz5ceb6A6N6ONHwTb4MvJ5sGmx95osv4eRuEOpTxUNHLordT0kvZIlLKh9EF5FyoeXJkTprx5Ii5Rb5odZcRj5ceT5pdZ1bpS+7l89cfV3xhxtdGVtMqaspfdVYfmyNYL9XURq6yfUvHnGdNabH3mZv1FgqZS2k+iY1fSojX9qMSoAbVSJIiEVAUiVJMLYYAMBGJIoEQsTdVTKXwrkXy1KX0ldHywVTZDuc2TLWDZ7Qu03y0rtNMtEvab5aZe06ovOZMm221dKmZqGxlL7Jjbcu091a2MvHym1US+bV7o2ljR7s243G7NuNHu8zcQkscZpN5mbj6F6M6WFL0e2ZPlkek+9GLfqPnG8tpY+p7DTfF3D1uo/wCop5Ur7qqpivuS8S58q4xZcAG5TgAAAAAAAAAAAAAAAAAAtzIZI0InyZGma33yuoo9UaepeV91mU+s4nzNx5SfF/SRdkVcZc11nr5slVm/Fka7fksvC5euUWXtEzabxaZm053aJ203u0zNpjhvyYt6tzZKpC5LpYt26ZtPZWrkuRNV9smjXaXuNFu8vcdCu0vcaPd5O4hJZY0nO69fR1Kt4WLhO8S8WixaVslVvEpy2PR4UvSkVKElNTuUABhJcIqSAZCREkRFQAGRQFASfRnAdf8AGPBlumNvSVCU/tJp/SbV64nKOhu450Vwtz9sqas5PoaGMfxL+I6xDsLSqXnDjl87zqujkzg+bOOLf8XcYXGVDseb6VPofV+aLGvnTOmG3QWvobmq6ZiNTvH54al/hFvunMlK26Otknt/DL+riQkmADWs1TqvRDcoRk19qduyK1EuHlbqb+Kw+8cqNg4KukbTxVQzYNjKmt6Gb8mMer+DYxNmPLWyKt8VxuviTi+kPUci6YLZ+3oboi9XKMibH8S/qOufIazxhaYXvhito1XnNimcr211L+XkWFsN4cxeJ8PyPdsqE3z0CP4SRUvpfHPn8UgRJGGQAAVJESQSIG58CcIveqn4xrIYW6THmsI/8Zod36Iev7viMPYJHD0JkuovdfNxg3VTy5LNl7TL3fmX7x0+R0hcJ0kqEqRNmJJReSrCnaEIQ+SEMTpohDbacnn/ABbLyOYdHGhLz+7yb3DqhCBU0v8ApO4a/tE//p2H9JfDP9qn/wDTt/pO/rV/c8j+T8v93z/Llug6zS/6S+Gf7VP/AOnb/SP6S+Gf7VP/AOnb/SOtX9x+Tsv93z/LlufWOs03+kvhn+1Tv+nb/If0l8Nf2id/csOtX9x+Tsv93L+TcusdZpv9JfDP9qnf9O3+Q/pL4a/tE7+5Ydav7j8nZf7uX8m58hyNM/pM4a/r539yw/pM4a/r539yw6tf3M/k3L/dy/ly3QGl/wBJfDX9onf3LD+kvhr+0Tv7ljHXr/afk3L/AHcv5ctzBpn9JfDX9onf3LD+kvhr+0Tv7lh16/uPybl/u5fy5bmDTP6S+Gv7RO/uWH9JfDX9onf3LDr1/cfk3L/dy/ly3QGl/wBJfDX9onf3LD+kzhr+vnf3LDrV/tPybl/u5fy5bnyHI0z+kzhr+vnf3LD+kzhr+vnf3LGerX9x+Tcv93z/AC5bl1jrNN/pL4a/tE7+5Yf0l8M/2qd/07f5DrV/cx+Tsv8Ady/k3LrHWab/AEl8Nf2id/csP6S+Gf7VO/6dv8h1q/uPydl/u5fybn1g0v8ApL4Z/tU//p2/0j+kvhn+1T/+nb/SOtX9x+Tsv93z/LlufWeafTSqmRMkTkV5UxWVlbsZW7YGqf0l8M/2uf8A9O3+kf0m8Nf2if8A9Ow61f3H5PzOP+3L+Tl3FnC9Tw3cWlwg0yimMzU82MOXV4Y/Ov4u0187HX8ccH3SkenrJk2ZJfqZWp2+35o/Octu9Na5U+LWqtm1Epm2TZTQdPe2xK62uMZbQk9r4Xm3zr6eRCUZft8vmxxEkRNC5UAARACIAArLR50xJcuHOZMisIQh3mZsVJI886cebrnRFbPQ2qruLrqqJmCR8q//ACi32HTYr2/QYmw2yXZ7PSW6XGEfQS1Vmh3m9cfrjkZfnyhEt646Q44fMs6/nIyJ2c/i5J0wXKCwt1rRuuMWqJsPKvVD8zfYcrM/xpdI3biyunq0Wko3oZXhxXq/i2UfeMAVt0trJcvc+E0dDEhFQAGtZImxcDW/4w4ytsuK5JKm+mj9CLz/ADYmusdQ6HbbCNXcLq0OpVhISPzx1N+k2Ux87I8KzxO/o4k+XYvkNS4/rvi/gu4svLN09FD344/4Riba3Ycm6Y7lGFJbrbDlzmO051+ZYcofiaP3Sxtl5Q55eIwautlQg5EAGKx9EAAEVCJIiGEWJEWJEhbAAYChUoZRC3bl9JUs3ysSdsUaPhUu2eVlGDG2pw5kvS3S0S9pvNpl7TT7RJ2m8WmXtOrh5zJk2q3LpUlcW0sXaJcVyPHcpmliat+pqt2mbjRbvM3G4XaZuNFu8zcQktMaLW5NPG48Q26ihHlCoqpUrl7TKp9ZJDkkPoPmjo/pPjDpJtaxXJJDPPb3VbH8WJ9MfKKvk0eJy/OcRTABtVoAAAAAAAAAAAAAAAAAAInBemuk+D8V22tguK1NKyR8zI3+TKd7OT9N9v8AT8O0FwguTUtVjHyq64/mgpCfa68KWt8XPbRO2m9WmZtOb2idpU3y0zdKmuK1yYugW2ZtMzULlJyNctc7Spsi/tKY2xU0+5ql0k6WNJu0rSx0K5SdLGl3aTuISddEnM7vK0sYqlbKUq+HSbHd5W41mTpmzU9457nosOXqekQAgaFoqADCS4C2XAyApAqBMAEWUYEihUJNt6N7pC28Z0mUeUqpVqdvabUv4oL94+iIL8h8nSpryJ6T5LcpspldG8LK2Sn05Zq5blZ6Stl4xlz5UHh9cOuH2ndiy9OryPtDRrZG79vwYbpEtkbnwVWKkP2siEKiX9K9cfw5Hz5A+rJiJMVkdYRWMOTQj8h8y8QWqNm4hrrdGEcZE5lTn3ljqhH7sVNeXHtk6/ZzI+EqJf5seCJI43p1R7LYt4vCUKmEuePPjyfRfCF4hfeG6SrZuc2KYzfmddLfiXn9ZsnVFTjXRNevQ3OfaJ0zTPX00lY+KG6H1ri31HZuqCltVZvDzfN/Ecf3fJlD8Hzrx3Z/iXimrlQXlJqG+ESvkxbdD3Wy/Ca6dq6T7H8Y8PQr5UMqiiizx6utpTbl+rS3unEyuvr0se18Hy/eMWPMu6PwSJEQaFskAAyFShUCQIkgkkCJIikAAMhIiAJAACoyVe1lUobt0X/Bp3EFTT1EpJkHp8oK8IN1qy/L7RKuO8tXNm5Pu1ErddtWkZL4l+8SyXxL94+lfiyj/slP/dL/AJFPiyi/slP/AHUP8js9x/xPOf8AVUf3f+//AA+a8l8S/eGS+JfvH0p8WUX9kp/7qH+Q+LKL+yU/91D/ACHuP+Jn/qqH7v8A3/4fNeS+JfvDJfEv3j6U+LKL+yU/91D/ACHxZRf2Sn/uof5D3H/Ef9VQ/d/7/wDD5ryXxL94jkviX7x9LfFlF/ZKf+6h/kPiyi/slP8A3UP8h7j/AImP+qofu/8Af/h81ZQaPVHnAr6zZOkJ5UOMauVJSCLKRExVYQXLHJvzGtHHZHWWr0uLd16o2667cAAIt4RAAAAAARDAARJIhQqUCIAABEAMBuPRnZ/jPiqXVOuUmhX0rctsXjpWH5m+o0xjvXR/ZPiPhiTGamFTVR9NO+WEW7F92HL+J0Y0N5qXxzL6GNzGPdL4Nz6oL8xrPGV5hYuG6urTks+CRSV7bdS/5+6bNGEIryOK9LF69PdKe0yY6KVfSzcfG0NMPqX8x32z0g8f4bjc5GVGH4OdfiAKFU+j8ceXwACJkIn0H0f2r4q4NoFivKdOh6eby+VuuH4cVOIcO2uN54it9v5Ris2csH5d1IdcfwwY+mpaqqwVYQgsIcoQh6jsxI90nlPaO/4Qo/1TisOs+deke6fGnGlbi3OVTwWnX3d38WY7le7gtrslZXv1wp5TTOTd6MIdUPrjyPmabMefNebMbJ5rMzN4mZsmNmVL06uf2eo2sldz9PwWyMSRQ4XrVQAEUACkSTCoBbAAAMKRAiDKK1VNylMviiqmWtEnSphZuqfKT3jaLRJ2m+tVZkvU260ytKm8WuTpU1W0ytKm6W2TpU6ovPXyZ6QuMhmMLcpuljNPppjWrpN0sSk5K+5qt1m7jRbvO3G3XadpY0O7zdLGmS5xotw6EqH0/FVyr4whFaenWVCPyRdsv8IRO9HK+hGi+D8K1dc8NdXVtFW8SrBVh+LI6obIdqqzZbXSVABNyAAAAAAAAAAAAAAAAAAApz9RqnSBa4Xbga70uPNoU7TUh5k1L+U2rt5RLUxFdGVlVlaHKMI+uAZjLWXHPD5Ps03Lkb7aZ200SfSxtPEFbb9saWoeVq8KxbH8Jttpm7Tni9Fd6o7Oi2udpU22jbKVj5TRbTN2m426bpU3RU18XnuMncaZdpO7Sb7XyslZjULpJ3GZJUSc3u0ndpNNnr6KsVu62k6FdpO40W7ymVmaG5dRzWRX2JPVAEYR5whH5YZEjlXioCgwkFwtlwJIqSAIspQKkSQZUKqUASVO09EN3hVWaotkyPOZSTMkhGPcbr/g3P7Tixs/At5jZuLKWY7Yyahvg83w4ttj9TYm2mWtiv8AFMbr4kuPq+b6P6oKcb6XrL6KspbvLhpmfsZuK96GpW+zKH1Kdk6vqMDxRZEvtgq6GOMHdMpTR7rw1LH7x3217w1eNwMj3fIjP8HzVAmUjCKPFHg0IwiyxVu6y7lKlS+i8c+fxCpQEU3qttdPt90p62ljymyJqzF82Pd97b7x9LWy4yLnbaatkdcqfLV1+s+YDqvRNxB1TLDUP1wym0+Xh7y/q+uJ14k/KWrzvtDh9SqN0e6P9HU5stJslpcxVijQ5RhH5D5x4qsj8P8AEFTRMsfRK2cho95G2/d2+6fSseUeo590k8PNeLN8Op5cWq6PJ4Qh2uneX9UPZ+c6MmveKj8Gzfdsjyl2ycVBFSRWPoKQIkjDIAAKgoVAkCJIJJAiSIpAAAAAMpGU4YukLNxDRV8W5S0fGb7DaY/45e6YkEoy1ls031RtrlXL5SfT6MrIrQjBlj1wjAu8urkcz6OeKYVsmXaax4/CKdcZTM371Ier6Yf4e8dN5Q5dpcwsjOO0Xy/KxZ41sq5pAAm0AAAjy7Inhq6yVQ0U+qqGgkqUjO8fCsF5xPd1cjkXSXxTGdMayUkzQsedS6+KHYn84+7D5TXZZxCO3LqwsSeVfGuLQK+se4XCpqpnVGbMjMaHyc20w+6WCOQKXufUK4RrhrEAASAAAAIgACJJEAKBEAAAAiAAKKsWisIK0YtpVV3MZY558vi2bgXh+N+4klQmJzpqeCzZ8Y9kcW0w95vwqx9CQWCw5Gp8D8OQ4fsMuVNWHwmdH0s2Pmj3fdh1fabdj1R+ctaIdOHk+deLZfvWTzzHt4+TGXq4yLXa6utnx5SpKRdvn5er6+w+bLjWz7lcKmtqY85s+a0xvabu+7tOldLPEEXmS7FIfwzajH8K/q+w5YcmXPzlq9D7P4fSr68u6X9AoAcr0IQYmURHmTYS5cGi7xVYQh3mbapJrnz5cebp/RBZItUVV5mQ2r8Hl5Q9e5m/Kv3jsXOGPzGB4XsyWOwUlBDlFpSftW8TtqZvvRYzvVyLaqvSGr51nZHORkSn+DmPS7d1prPTWqVH9pWPlMVfAv8Am2P2HGDZOObxG9cWVk1WykyW+DyfDjDc31tlE1s4LpbWPZeF43QxY8fV8xihSJU1LFUAiEVCLEgGAtlwtkmAAMEVACLx5QjGPqhkZRQp19LWRburHE3S0ytpqdolMzK0e8b3aZO3SdVcVHlz2bTa5O03S3Sdprdpk7Tb6CXiqsdEVDfJdrGxl4mpXSdpY2K4zNLGn3aduMyRoi1W7TtxoN5m45G33aduNVo6KN34joLbBcoVFQiN5VZtTfdyNElzT6YbPovgS2/FPBFnpIwxeFOruvmbU34mNo9ZaRYS0VVhyhCHKEC58p0vOyltLnlIAGGAAAAAAAAAAAAAAAAAAAAAB85dK9r+K+P2rIL+yr5CzersyXS35Vb3jx2mdt1HQOmy1wqeHKO6pDXRVHJm8Mt9Lfxgpy+0T9K6jTL0yX+LLq4/DpVrnbdRulum7Tndpm6VN2tc7SuonFw3xbLULnKyNXuknSxtEpvSSMTC3GTuJSctUtZOcXaTpbSaNd5GltJ026SNxot2kbtJpkuaLGpUrfs2RtytiXywy+irGXutpL5ySjrJ6GiW1akCRQqQbwABJcKQKkVDKRIiSIioADIoIwJBL5vorgS9QvvC9LVTGhGfLh6Gf7cOrL3ocm942uCwVIfMcI6K798X8RQt01sZFbDGHPshNXs+2HOH3Tu/Yv0FnVPqQ83gPEsT3XIlH8Ofi4H0m2L4o4larlpyk1qxmry7IOu6H5W95jSlPojjnh//ALQcNVEiWixqZf7WTGPjX1e9DJfePnfFlZlirKy91u6cOTDSfm9T4Ll9fH0l3RSBEkaF4qei31tRbq6RWU8eU6S8HXzeVvK233jzFRx8GuyuNkdZPpeyXemvNqp7hTR5y5q88efWsfWsfnWPUZeMYRhHmcS6MeJ/i+5xtNW/Omq2ylRi3Uk3w+9/jCHiO29UYRLWqe8fN878QxJYl8ofh+D5+464abh68tMkpjRVLM8qMOxI95Pd3L5Y+U1Q+jOJrJT8QWibQztLR1Sn9aPDsj//AHq5nz3W0dRQVs2kqUZJsqLQeHm/0nDk1aS2+l67wPxD3inpWd0VkAHKvUgRJBkAAFQUKgSBEkEgkRASSBHIkRAAAVlzZkmakyW8UmJFYwjBuUVZe8rHUuGOkiVOkrSXuKypkOpZ/Pkj/T4W/h9BywGym6VXar8/w2jNh5WcfF9NyKiVPkrNkOrpFeassecI/WX48m7Os+arfd7jaHyoa6dT8+uKo+mP0rtM/L6SuJZKwV6uVN5et5C8/wAOJ3xzI/i8tb7M5HHP5qXEou7wgeSsqZFHIafU1EuRKXdMmNBVX64nEJvSPxLPRlhVypSt/VSVg34sjX664V1ymxm1tXOnxh2RmPGPL2V7pHnMj9PCVXszfLn87LiP+7feKOkeM+W9HZYskNrVEYdcfYh/OP1eI5yzMzMzNkzbmYA4rLpWS85PU4WBRhw1riAA1u4AI5ASIgEgAIhEAKBEAAAAiAABlhE37oz4ae43ZbrPl86SkbRBodTzf9K7vaxNSstoqL5dpFBTQ1TG635aUhDdFvZ/0n0PZrZJtFukUVOsISpMIwXq1N8sY/PGPWdONTtLaTzvjviHRq6EO6X9GUjGHKBhb7eaew2afXz46Ja84Lz63burD6YmajyhA4V0k8TfHF3W3Urf7HSMytGDdTzdrN7K7fvHdbZpF5jw7EllXxh9P4tOrKydXVs2rqI85k52d4/O36TzgoVL6JCEYR1iAETKQxu/RhYPjXiSFbNXKmt6q/X2Rmtth7uqP1KaQqszKqqzM2lVXcx9E8DcPrw/wzT07qsKiZ+1nR88fV9UMV90340POfmovHMroY+ke6TZ4rDn88TVOOr78Q8LVU+W+NRN/YSPab1+6uTfUbZGEIR5nBulLiD4z4hhQSXyprfBljy7Gmt2/Zph947rp6Q83l/DcXnIyYx/Dj48tDDAjErHv0gAEVCJIiGFIlSLEiQtgAMBGJIoEQsVTaVTxMXywq+mrMe6uknGPqaL5a1s3Z5GlTfLTI0rpNXtMjbpN6tcjadcXnsmxslrk6VNnkLhJyMNbpW3SZme3o5WJtiprZbSYa5Tdxpt2nbtRslynaW1Gk3afpbUYk6qItVus3cZLogtvxhx9GtZeaUFOzq3mbSv4Wb7prt3n6WOq9CdrhTcM1dzZeT11RHk3yommH8ciEfVJ3ZUulj88OrAA3KAAAAAAAAAAAAAAAAAAAAAAAABgOKrOt94ZuFt9dRJZUj4W7Vj96ED5jtM5pbYOrKytiyt3WPrePX1fKfM/H1q+I+P66Ui4yaplqpX0Nu/FkarflstPC7PjKtm7TP26jd7XP2nNbTP26jeLXP26hw25MXQaCbkqqW7jJyVjy26btMrUL6STkTVcvTJod0kbjSbtI3aTpFykZKxpl2kZK2khJY0TcxusqMuZlCHWrZFtWgyrGG1lMxdpGStpMBTtjzlR9TdXsnLbF6HDs+l6RACBqWKoAMJLgLZcDICKkgJgAiyoVKFIBJclTJkqYs2UzI6MrKy7lZdSsfSPCXEEriKwU9bDks2MILNSEdrw3Q/n9DQPmw3zow4k+Kb61BPfGlrWVYc+yE3ux97b90348/KSm8cw+vT1I90XeY8mXl8pwTpM4a+J7/CvkJ/stazP1L1LN7y+9u+8d86uo1zimwyeJLJPoJvJWjDKVM8Dw2x/wD71Ridlte8fJ5jw3L91vjPn5fi+b1JkqmnmUlVMpqhIy5kuLI8I+qK7i2VT6FCfn6opFSgDYkrMrQirMsYaoMralO88A8UpxBZllzor8PplVJ8PF4X97/HmcFMrYb1UWG7yK+mbJk6nTLqmo26Df8A9uxNtFuklV4rgcZdPw7o/J9NdXI5v0jcH/GlN8aW+T/t0hday4dc9Id32oer7PkNys11p7vbZFfTPB5c6GUPlh8sI/PDsMtGPV1FjKMZ8avD0X2Yl2/HdF8pEjfukXg+Nvqnu9vl5Us5sp6QX900e8vzN/BvaOflTZXKuXlJ9EwsyvLpjZFIAEHYkCJIMgAAqCgAqSIgJJAiSAZEiIAkCIyIpJAiAJAiAJAjkAGQyAJIgAAAiAAKAIgAAAEQAADAURHd4JLVovFlWEFXJmZtqqUOq9G/B8ZaLebjLgrsvOmlRXZCPfj5o+rwr7RtprlOXkr/ABDOhh07cti4H4Thw1a4zqiCxuNQqtOj24w7qQ+j+MTduXPqjDqHXzhy2mHvl6pbBbJtdVtyRIaVh2u3qWHzxLWMeIcPn1tluTbtz8ZSa30hcVwsdsejpH5XCoWKoy9qL3n/AEw830HDD3XW6VV5uk+uqmymzW7IdiL3VXyqeErLrd5Pd+GYEcSjy+qXzCgBrWYQiVLlNTzquplyKdItOnPBEhD1xjtDXKfl6pN16M+Gvji+xuE9OdLRMrdfY03ur7u77p3iHKEOXrga/wAL2ORw9Y5NvlcmikMpszxvHc3/APerkbBDlziWtMNI+T574jl+9Xyn+H4Nc4sv0vh7h6qro4tN2Slj3nj2f5/Qp83vMmTJrTZrMzuzMzNuZm3Mbv0ncSfHN9+ASH50tCzL1djTe83u7fvGjHHkT85PT+C4fQo3l3SChSJU0LlUABFAAixJhItlwtgAAGFWIiIMoouypCMY91S9apDM2Ue1myPHURyjCXDvNlH6DYLTIxVdJuqirsyz6Wx2mRt0m8WuRt0mvWmRiq6TdLbIxVdJ08PPXzZy3SsVUlXzcVZT0yFwk5GIuM3cTV0fVJr10nbjSLtP3Gy3Sfu1Gj3afu1EJLSiLWbk8ydOWVKVou8VVVXvM2lT6g4ctaWTh+htiwWPwWSqRZe83LU31tkcC6PrZ8edIdDCMOcmjZqqb7u38TKfSq9vIV/c0eJWfGMFwAG1WgAAAAAAAAAAAAAAAAAAAAAAAKHH+m6zZ26hvkqGqlmeimxXwN2fY0PxHXoR6zDcRWiVfeH6+2TMYQqJTIrR7rd1vqbkxGUfPhux7elbGT5ytM/Suo3q0z9K6jmlA02kqXpp0GSfKdkeEe60GxZTdrTP26jTFe3x83SbbUaV1GzyG9LKxNFtc/bqNvt07JVN0VNbF47jI3aTTLpI3aTotbKyVmNPulNu0mJJUSc0u0jdpNMql9BVq3dbSx0q7U2WWk0e70mStpNEorzGnq8YLVPMylYx7V0sXTmX0ZbR2VBGBIikAAJLgBFQykSIkiIqAAyElZlZWgzKy6lZdyluBIJeXn8H0LwJxMvENilNNZY1snlKn8vXH1N70NX2m4dUYRPmvhHiSZw5f5NVBmjTTP2VQi95PF7S7vveI+jJFQlRJlzZbq6TFVoRX1q3ZEsaLN4vCeK4Xu1/lx28uVdK3DMYNC/0ix5aUqlVfdV/0x905WfUtTSyKmRNp5yQeXNWKurdjQj2wPnnizh2bw1fJlLqalm66ea3eX5I/PDbH3Y945smnXnaK68C8Q3h7vZ3cdv+TBAiSOV6UKlARSbjwJxe3Dtw9BUuzW6pj+1y/wCE3jh+r/4neZcxJ0tXSKxRoc4NDrhGB8rHSujvjb4HMl2a5TcZDaaWa7bI+CPl8Ph2nZjX+Xok8v434Zt/aKvn9Trc6RKqJTSpiQeW6srK3XCMI7oROFcb8HzOG6z4RTQi1unx5I3a0pvC36YnfGdUWMYxhBYQ6zhXHvGDX6v+CUMzlQSIxjzX/jPDvezD1feN+Vr0/UrvAZX+8/m+36mlEiIKx7pIAGEkgRJBkAAAAAVBQAVAAEgRASSBEASBEASBEAAAEQFAAAAAAAACIAABgIgGUW/8AcFfGk6XdbisIUMtspMpv+M0PW3zQ/F7J23nA4t0e8XwofQ2W4PypmeC081o8sGj6o/NGPZH1RO0NjBYxjHlAs8bXT0vA+N9f3nnq/L6f8nmqKqVSynqJzrLlS1ZmZo8oQhDtjE4FxnxVO4nusYy2itDIiy08uPr+V4/PH8K+8ZTpA41heamNuoJnK3Sm/azFb980P5Q/F9hohz5N/n6YrjwTwvp8de35/0CgByPSgBEkiHVOinhjk8b9Vp1xWMulhH5NrP9fZD3jS+EOHJvEt7l02LLSy8XqHXur8kPnbb96PdPoinppVNIlyZKQSXLVVVV9UIdkDqxqfPnaTzXjviGkPd6+7nueqPKHKJpnHvEn/Z6wvGTMWFbUc5UiHyR9bfVD+OJtVRUSqeRMnzXVElqzNFuyEIdsT5y4u4gmcR3ydVxZoUqaKdG7qQ730tu/wD+Tpvs0ipfCcH3q/zl2xYFmZmyizMzbmbvEWBQrnu/kqAAioRJEQwAixIkBbADAARiEVQC1UTMZWMNzaVJIylrHYpJfp6qL+rLFTdLXTbdJrlopMYLpN5tMjFV0nTGKhyZ7NgtdNt0m526RjjpMDa5G3SbdRSsVVjfFR3yXZ7ejk4msXKfirGbuM3FWNPuk/dqJSRoi167T8VbUaLdp+ltRst2n7tRpdas2srJVLIg0Zs51RIQ7zM2KmiS5oj5cOudCNn+D2euvMxddbN9FKZv6tP82i33TrnLqMRYLXLsdiobXLjDCmlLK5whyyjCHW31x5xMtz7TdHjXhQX29W2UkwASawAAAAAAAAAAAAAAAAAAAAAAAAAAfOPSrZmsvG7VspYrT3JfSry7M10vD8re8eK0z9uo6x0r2FbxwfPnyoLGpt7fCEx7WWENa/d6/dU4haKnSuo0S9Ml9iWdWj+F0+1z9rZG526ft1HNbTU6V1G52uft1EuHHfBujftZBgLjI3aTM0U7JcYlmvkZKxNxVy1k5zdKbdpNJu1Nu0nT7pTbtJpV2pNzYkJLaibm7r6CrxjtbSegv3Wk3MqnjkvnL1dsNMTlnF6HEs2jqulSgganYqADCS4C2XAyAipICYIkiLKhVSgCSp1jos4rXl8QVz9cIZUjN3odsU+rtXy8/CcnLsmdNp6iVOlTIypqRVkeDdasu1iddnTl5uPOxOMymUeX1j/gaxxbw3J4ntL0zYpOTrkTYrsf/KO2JY4K4pXie0QnPyWslRVKiUseyPih5Y9v2w7pt3Xz+YsvhPh4L87jXfbKL5Uq6WfQVk2mqZcZc6TFldI91iwdp6ROC4Xim+NbfK5XCTDWkvtnpD1e1D1fZ8hxYrbauYS8nvPDs+GXVtx3fikCJI1LEKlARSbNO44vE7hmNledkrR5NPyjnGV4G/z7y9RrQBKUpS7mmnHrp26cddkgRBFvSAAEgRJGEgkRAEgRAZSAKZAVBTIqAAAAAAAAAAAAApkBUFMioAAiBIiAGAAiAABlEBEAImzVHG14quG1skyfo5YvUc45vK7qt/OPeX6+esglGUo9rRdj03a9SO2oAUItwARJIhfpKWfX1cqmppbTJ86KqiQ7zHn3HaujrguFopoXO4SljcJ0NKzF65KR9XtR9f2fKbaquZ8+Su8Rz44lW0u78Gx8KcPSeGbOlFK5NNbk0+ZBd7976vVA2br7OXUOvn8xp/GfFMvhS0O8vFq2flCRLjHveJvKv+mBZfCHDwkY25N33Sk03pV4qg7wsVG/XDk1U0I7YdsE/nH3TlZOdNmTpzzprxmTXizO7NlFmbdFiBWWWSnLZ7zBxI4tMY8BQAi7FQCIRUAIsSYSALYAABgKCIMohYRfT1fVtXSpKc+EvT2x0wPbaqTa2JthH6nDl2ax1Z61023Sbxa6bbpMDaaTbpN1tdNt0nVwoL5s1babHHSbB+5kHioJGKqXq2birKTVMpbSYa5T92o0y6T92oz10n7tRpV2qdLaiEnbRBr12qd2oyHRTZo3vjeNwmrlT22HpfL6VtKw/M3umr3ep6m1Hd+i6wfEXCFM05OVVWx+Ezct0Mtq/UuP2xIx9UnZl2dKn+JvwAN6hAAAAAAAAAAAAAAAAAAAAAAAAAAAAAFhkVoRWMIRhHqjCPrPl/iezx4X4wrLaqstPl6Wnj4pTal+7qX3T6k7DlPTJw7Ctssq908vnPoY8puPa0po6vuti31sQsjtF2YFvTt15+po1rqduo3S21O3UcwtNXpXUbxaavJV1GuKzvrdIttTt1Gbmqs2VkadbanJV1G10U5WXFjbFT2x1kwVypslbSadcqTdpOjV8jJW0mp3Km3aTEnRRY5ddqTcuJqjr6Crxba2ljo92pN2k0m60mWTcjRZFd41usnlBZkTMlxbculi8cy8jLaOyoIwJEUguFsBJcKQKgMhIiCImAAyoVKAJM1w3fqrh28Sq6RFowXqmyufKE1PWv8Ap8x9EWu7U96t0qto5mdPNXnCPrWPrhH5IwPl427gTi5+G7n6KpZmt1Q37Ve3BvGv8/lh7Juot0lrLtUfjPhvXh1q+6P+76Ij2conGekjgppDzr5bpOhmyq5Srtj44fN4vveI69JnyqmWs2U6vLdVZWWPODLHsjAuTJauuLQVoRhyjCPrO6cIzj5cvLYmVZi27xfKIN5494Iax1D3GgSDW6bHWi//AOeMf5R9XydnhNGK2yuUZaye+xMqvJr3gkCJI1usKlARSVAAAkRHMMpAiSAEiIAkCJIwkAAASIgCuQyKAMq5DIoAK5DIoAJFMigAkRADAAAABECREAyiAEQJERzAAABgKAAACJJEAN64B4JmXyetyuEqK26W0Glo3/GjD9K/x7PEbK65SlrFy5WVXiV7zZTo34HabNk3y4SdK6qSW0N0fHH5vD97wnZIEVVUTFYcoQ7IFibPlU0l5s11SWiszM3VBYQ3RiWVcIwj5cPAZeVZl27zeO7Xemslsm11ZNgkiUvOLetvkWHyxifO/Ed9qeIbvNrp78oP1SpXPnBE9Sw/V5jK8ccWzOJLlhJi60FOzeiXnyzbxt/Lww9o1E4b7d/THteq8H8N6EOpZ3S/2CgBpXaoACKhEAMKRKgEgLYAYACgRAC1PmMq4rubSpJGUtY7IorVNVp2rpU2200m1cTC2mkxVWxN2tNJtbE6a4qHJt2kzNtptuk3C3U2OOkxNtptuk22gkYquk3xU183tRVkysjCXKp3ajK1s5VXGBqlyqcVbUSk56o7SYS5VO7UaTdqndqM9dqnFW1Gj3ar0tqNMlzRWvcK2ZuKOMKOgdWanVvS1HllLqb72lfePqFUVVgsIQhCHZCBzDob4d+AWCbeKiXjUV8f2WUOtZS7ftbJvsOqc+cTZXHWKqzrepbrx9KQAJuQAAAAAAAAAAAAAAAAAAAAAAAAAAAAADxVdJKrqWdTVCK8mejS5ix7GVoYxU9oA+ULvaJ3C3E9VapzMyyX/ZO3fRtUI/d/FkZ601e3Ubt0x8Nwr7VLv1Mn+0UOmdjuaVFv0tq+hmOW2mryVdRz66y8l/TZ16o8uo22p26jb7dP26jm1rq8lXUbjbavbqNsXFfBuTqs6Tka9cabLLSZiinqyqrFK2myVmUy4oy1k5zcqTcuJpV0pN2k6fcqTdpNQulJkraSElpRY5jUy2panOENO2Psk1bJclMtdqLJW0mCks0tmlN3dpy2RegxLfpekQANTvVABgC4WwElwAioZSJEQREwAGQFCoSdD6PuOo2ualqub86F25Sprx/ctH1N80fw+ydwV1aEIw+Q+TDpnAPHvwT0Vou05lkL1U8922eVo+H5I93s7Dqx7/pk8x4v4T5/nqPn+Lq12n0dPaqifXxlwpVltGb6Vclx9fOHr+g+aa16WbX1D0smMmnZ4tLlvHnFV9UIxNr4940fiKsaiomZbbJjpisf3zQ7zeXw/aaYa77d5eUXb4JgzxodSfdL6QAHOvEgRJBIKlAElQUKkQGQAAkRHMMpAjzJAAAAJEQEkgRBgSBEASBEASBEASIgGQAARACIEiI5gAAAwAFAKlACQAEQiAAD0UE2llXGnm1suM2mWasXlrHlFl9cD6YtU6jq7XTzqGMtqR5atKjLXFeXq5Q9R8vm58A8aRsFdChrnZrbPjub/gNHvezH1/eOjGt051UPjeDPJh1Id0fpd7eKJDKMOUFOH9IfG8bzUNarZN/2CW0fSzVb980P0w/Eenj7j34dCZZ7TN/2WHVUT0bf8yx8Pyx9fs7uadvVA2ZF30xcng/hWvlff3fhwAFDlelVAARUIgBgBFiRIC2AGAABFSIAMiLNiuUdpClktU1OcV0+r2S3NZpjrKh3txnbTRYquk21xV2Xbr6WVtdJt0m622k26TFWukxVdJuNtpMcdJ1cKG+bK26mxx0mwKqypWR5KKRiqtFSVbPxVlUmq5S2kxtxn45ajTrlU7tRmblV7tRpl0q8VbUYk7aIMLdqvdqMFZ7VO4n4mpLVLyVZz5TYr3EXraP3fxYlbtV4q2o6p0OcNQoLU9+qU/2iv0yctyyoR/U2r2VU1a7S8nbfZ0KfN02npZVHTyqeQipJlLBJaw7FWEMYKe0A6FAAAAAAAAAAAAAAAAAAAAAAAAAAAAAAAAAAADxVVNKrJE2ROWDypqsjrHsZYw5RgfMN/tE7hTieqtkzKMpY5U7t35Tdkf0t5lY+qG5dRzbpX4WjxBYY3GklZV9ugzrjDU8rvL+qHs+YhZHaLswb+lZrLt5c3tdXt1G522r2tkcttNblBdRu1rq9q5GuMlnfW6XbqnJV1GwKyzpWPeNFttXt1G2UFTkq6jbFUW16yeK4027SalcqTdpOiVUlZ0vKBrFxpMlbSZk2VTcxulFu0mmXKkaW2aaWVslOpXGkyVtJp1yoty4miUVvRa1eXMWYmXr7y+EuFibLakqYx7rbi6rZLlA5ZR1X1Vm8UipQEG9UABJcBbLgAABlIESREVAAZAUKhIJEQEkiREASABECREZBJIESQSCpQERUFCoAAAOY5gBk5kiIAkCI5gSBHmOYEgR5jmBIEeYAkR5gAOY5gAAAGAAoBUoAAAIkhIiMgEQABEBEEgBEAACgRVAARUAIhgKRKgkABbDAAABQAIhbmOstMvX3YfKSZsVyiWpEtqupyx0rtJxjs0XW6Req20jTGzbUzamN0tdFt0mOttFtXE3G3UmKrpOqMVDfayFtpNuk2+3U23SY+20mKrpNlpZSyZeUTdFUWzXGZZMrHvGv3Gp0tqMlX1OKtqNRuVXu1GZNdNe0mMuVXubI0q6Ve7UZe6Ve5cjSbtV4q2o0ykuKK3rsFkm8WcT0tuWDQkM2dQ69yUu5ve2r5mPp2mp5dJIlSJKwSVKWCosOxVhDlCBofRXwq3D3D/w+qk419xxmPlDrlp3V/VH2vKdFhy6/mNlcdYqrOv6tmse3hcABNyAAAAAAAAAAAAAAAAAAAAAAAAAAAAAAAAAAAFCoA+aukLhePC3EzTaZOVvrWabIxXqRu8nu5ZL5W8p5bXW7WyO7cZ8NyOKeGqi3vis2P7SRMjDZNhtj+mPljE+b6Vqi31k2jqUaVOkOyTUjuVl0saJR8pLzEu61Wsu6Lpttq8lXUbjbavJV1HL7XW7dRuNtq9uolw031OiUs1Z0vGJ5a2myVtJ4qCr26jN6Z8rzE1dL0yaLcaTdpNRuVFkraTptfSbtJqVyot2kxJ20WuWXSgyVtJgpTRlP6J/qj/I6BcqDdpNPulBuZV1GiyOy5xr9VgFqRNZoMsd67vMXTmXcZRlHaKoKFSKQAAkuAtlwAACLKQIkgKgAMqFSgCSpIiAJEi2SCSQIkgAyAIpJAjkMgJAiSAAAJKgoCIqCgAqChUAAAAAAAFAKgoAKgoAAAJAARAkCOQyCJkAAABEkikRAAEQAiFAAKgAIqAEQwAAAAWyQAAMABQIgBanTmXFYbm2+UkjKUYx2ktzGjNf0Sdnr/wAjO2ugxVdJ47XQbWZdRuNtoNuk6a46qTJv2e620WKrpNwttJt0ngttFljpNsoKTbpN8VNfa9lFTYquk9dVOWTLxUuaZErzGCr6vHLUZcUfVJ4rlV4q2o0+5VeKtqMlcavdqNOulbllqISWNFTFXSt3Nkero74Z/wC1PEi1NSnO2UTLNm816nbup/Dm3lXzGuT/AIRcq6VRUiNNqJzqkpId5mPpDgzhyRwtw5Jt8vFpi6503xvHtb9MPKqmIx85N2Xd0atY90m0FQDcowAAAAAAAAAAAAAAAAAAAAAAAAAAAAAAAAAAAAAAAETjPS/wgzf95qBIZylglZBV3LtV/q2t5eXhOz9p46iTKqZTyJyQeU6xRlbrVlj1RWJGXG3DbRdKme8XzBa63JV1G5W2tyx1Gs8Y8MzeDuI2kSlZqCazPSu3h7ys3iX8uMSdtr9rZGmK9lxG6PUi6nbavauRtVFV5Kuo5nbq3JV1G3W6ryx1G2KsvqbVUSVmy8lNcuNFllpM/Sz1mLixCtplZcoGXLXLWTm9xoty4moXKg3aTqFxosstJqtxoMstJCSyotcor6RpU7NNLKRlzVmrkumPrh4TarlQblxNUqpD0k3OC6e8viNFkF3jX6roIo8HhCMOyJI51oqChUwkAAJLgLZcAAAMhIiCImAAyoVyKAJKgoVyAkCICSRIiAJAiSAFOZUEQyAASSBHIZASBHIASBEASAAAAAARAEgRGQEgRyGQAZAAU5lQAiAESQkRAAAiAAGRQIqlAAKgAIqEQAwApzKkgALYAABgAKBEAIs8EhGMewkijMmrKhk2qPqh8pcoKRps7N9TMWqWQ9XOzivsr4Ta7bQbVxN9daryb9npttBljpNvt1FtXE8tuoMcdJttuosVXSb+FJfa9NupMcdJsdPJWVLyYsUdMqrlFSVZPWWuKk1bZLaSxW1eOWo1O41e7Uey41eKtqNTuVbirajEpOqip4LpW4qy5GmXStxVtR77lXbmyK8E8MTeMeI4S5qstvpcXqHXvL3Uh87fl5mqS0jxGqvqSbt0P8HtLWPEtfK/aTVitHCK9id5/e7IeXn4js0DyypMqnlLKlpBJaKqqq9UIQhthA9ZujxrFQ32yunvJUAEmoAAAAAAAAAAAAAAAAAAAAAAAAAAAAAAAAAAAAAAAAAAGq8Z8NSOKOH59umRRJv7yRNZf3UyHY30d2PlY+cpa1FpuM2grEZKiQ7JFG7rL+k+s4tDnA5d0p8DteqX47tsjlcaZNaKuqoSHq9pfV4uzwmqyP1O/ByenLSfby0W21+OOo3C3Vu3UcptdfliuRuNtr9uTEYyWN9Tp1BV5Y6jYpE5ZsvGJzy3V+OOo2miq8sdRtiqbYPdW0mWWk1a40G7SburLPTHvGKraTLLSEIWauZXKgyVtJqNyt2WS4nVLjQbmxNVuNBllpNUorSi1y+bKelmxjCDRVt0C7BoNBYwjlBjPXK35ZaTWnRqSa2mMZcdy/IaLK11jZP0yekEYRhGEIwjzhEkaVmqChUwAACS4C2XAAADISIgiJgiSDIAAI5EigCSoI5EsgJAiAkkCJLICQIgCQIkgAGQAAAAAAAAAAAAAMgABECQIgCREZEQJAiAAGRHIIpEcioAqAAiAEQKkQAwEciQJAAWwwAAAAUCIARjGEIRjGPKEDIRaCwaMW5QgWpUp6ubCMYYrDapFEarmw6mgi9imy223Y46TfXWrMnJ+mKduoMcVxNuttBiq6S3bqDHHSbVbqDbpN0YqW+1dt1Bt0m00VJjjpLNFSbdJlGZZCY942qudmyM+asmXjA16vq8VbUX62r3ajVrjW5ZajMk6oPLca3c2Rp9yr8stR7blX7tRp10r9ywY0yktqKiXT1l7usi30KNNqJ8z0aw/m3lXczH0dwfw1T8K8PyrdIxaZCOc6Z63ePa36YfMsDUui3gV7JRfG9xkcrlVQ0q3bJlR7vtR3R+qHynUecOslCP1cq/OyepLpw7eEwAbVeAAAAAAAAAAAAAAAAAAAAAAAAAAAAAAAAAAAAAAAAAAAAAAAA4D0o8DvZ6xuIbXL50U1udVKVeqU7d6HzNH7G9o1K21+SrqPp2fSSaulmU8+WsyTNWKurdcGWPbA+cuN+EJ/Bt5g9PBmtdRFvg81uvBvA0fEvd8S+8abI6+pb4OTvHpT+bYLbX5YrkbXbq/bqOV26vyx1G326vyVdRiMm22p06iq9uoyjKs+X5jSLdX7VyNmoqvLHUbVXOvVYraLdpNZr6DdpN/eWs+Xku4wlbRbtISqnq5jcbfllpNRuNvyy0nVq+g3aTVrjb8lbSapRWVFrmLy3pXbTGKR3L8hfg0GgsYRygxnbjbcstJrs2U9JMjGC81bcponWucbJ+mS+CKPB4c4R5wJGlYqgoVMJAACQXC2ALgADICORICQIgiJgAMgAAjkSyKAJKgoUyAkBkMgJAiAkkCIAkCIAkCIAkCIAkCIAkCIAkCIAADIIgI5FQK5EcioAqAAiAACgIgMABHIkK8yoAAtgBgAAAAoEQAi7wSHOMeUDKJFoLBoxblCBYSW9XMh1Mqd2BKVKeqmQjGGKrtU2O3W7HHSb661dk5P0xRt1uxx0m1223Y46Stut+OOSm0UFBt0m6MVNbalQUG3SbNRUW3SRoqLHHqM0irIl5NuNqttnsKqyJfmMXW1e7UTravHLUazcK/diwRrhss3Gv3ajVLlX45LkXrjX4q2o1C41+OTZGqUlpRUsXKuxVtRtvRbwVG61acQ3STGFJKbnSyor1TXh3m8qt2fLH2TA8EcH1PGl6zqFZbTTxX4RNXTm3gXzN3vCvun0bIpZNJTJTU8pZcmWqoiL1KsIdkIGa47epqzsnSPSh83vABuVAAAAAAAAAAAAAAAAAAAAAAAAAAAAAAAAAAAAAAAAAAAAAAAAAAAKGFvVkob7a5tvr5SzJE5eUYcutW9TLH1ND1RM1CPUU5c+wycc88fHh8scQcP1/B96jSVMWeQ2qRUY4wmr/AKl7ynst1ftZWO78UcOUHFlme3VkOW6MqbBebSnh2Mv+XrgfOdwt9dwzeZttrk5OnWsxdrr3WXysc0o6rzGyeL46y7nQ7dX5Kuo2igr9uo5bbrjtxY2y3V+WOonGSFtTpdFV5Y6j3PLWfLyU06gr9uo2OjrcsdRNWzr1eStoN2k1uvoN2k395az5eS7jDVtBu0hOu3VzKvtuWWk1WvtuWSsp1Stt+7SazX23LLSapRWNV7ltRTTaSazJ7y/KVlPB4ZQ7V3L4Taq+27uamr1lA8mZmmllNVla3oydUgWpU/JsYri/h8RdNC0jKMo7RCpQEUlQAALhbASXAWy4GUciQAAEciQEgRBETBEkGQAAAUyKgUKZFQElMiWRQAVyGRQAVyGRQAVyGRQAVyGRQAVyI5FQBTIqABUABEAAAAiBUEQGAAjkSEiORIAAC2BcLYAYAAEQoAAALU2fi3JVybw+EkjKUYx2krNeCLlHtbaviKU9JNq5qs/ur8hdo6B50zN9TMbNQW3auJvrrVd+TssUFtxx5KbVQW/HHSXKC2446TZqK3bdJtjFUW3oUFBt0myUVBt0kqKg26TMrLWRLybcbVdZbsiktZEvJtx4a2rxy1CsrcctRrlfX7tQQhXst19fuXI1m41+OWoXGvxy1Gp3G4bubEJSWVFSNxr9zZHi4f4dreMr0tHIZkkJqqKjHJUX/U3dU89uttfxReEt9uTnFtUyY22UveZm8J9F8L8OUHCdmS3UfXHqjNmsuqa/rZv8vVAxGPnJPJyeKIax7nts1lorFapVuoZay5EleUIctTfKzR9bR9cTMcoQEOqA+c3qP5/HlIAGAAAAAAAAAAAAAAAAAAAAAAAAAAAAAAAAAAAAAAAAAAAAAAAAAAAAAARNS4y4OpeL7ZGmnYyqqVk1PUKuqW381j64G3eooPmzGXMOfPh8l1NLXcOXabbblKaVUSm1eFl7sVb1qxnrdcdvJjtHGfBlJxhbfRzMZNbKVo01TBecUj4Y/KsfXA+e6mmruHrpNt9wltJqJTbe6y92Kt61b5TnlHVe4+Rxkx8ue50eguGWOo2agr8sdRy23XHbixtVBccsdROMmq2p0ujrcsdRkmVZ6+Y0eiuO1cjY6Ov26iaunXqpWUGWWk16tt+WWk3ZWSevXuPFWUWWWkMQs1czrbfllpNZrbbjlpOoVtuyy0mvVtu3c1IarCq9yevte5lU8KzIymxme63+o6DW23dpNarbXllpNUq9lpRk6sSrZLkpIsPKm0jdUMofIXJc2Dr1N1+uDdsDnlHVbV2xmmUyKgi3qgjkSMAAAkFwtgC4C2AylkV5lQAAI5ERIFOZUkJAiCImCIDKQIkgABTICoKZDICoKZDICoKZFQAIgCQIgCoIgMABTmSFQRyJERTmUyJAkALYAuFsAMAAAAFAipkVAMgRZsVyiRebBF626+6q94hLkTapuuGMPCSjHZostjBFprTWxk9neYyFBa9rMp7aK1446TZaK27dJ0Rr1VN+Ts8tFbcsdJstFb8cdJ6qK3beSmx0Vvxx0m2MVXbe81FbtvNTY6Og26S7S0GOOk97MshdO4mr52bCqshfMY2srd2ohWV+7Ua5W3DdiwZrhsrW1+7UazX3DHLUK+445ajU7jcN2TEJSWNVSVxuG7UYSkpK/iO7Srbb5TTJrtu7qL3mZvUqikpLhxFdUt9tRpk193hRfWzN3VU+hODeDKPhC2+ilYzaydjGoqGXlF28MPCsPVAjGOzbkZHGNx5cdy7whwjRcKWn4NT/ALWc+MZ9Qycmdv5LD1L3TavUAb1FzLmXPnyqAAwAAAAAAAAAAAAAAAAAAAAAAAAAAAAAAAAAAAAAAAAAAAAAAAAAAAAAAAAAACMYdRqXGHBtDxdbvg9Svo6iVBmkVCrqRv5rH1wNuKcgzGXMOfOL5PuNtuPDN0jQXKVg8NSvDrWaviWPeUytBctrQY7vxNwvb+K7ZGlrpXNt0qbDfKb5Vj/LsifPfEHD9z4NuvwetXOQ7N6Goguiav6W8SmiUZcLvGyY38ay7m7UFyyVdRslFcNuo5XQXLLHUbTQXLLHUIyLaHTaOv26jNSp6zVxY55RXHHHUbDR1+WOo27K2ypm6qkVlyVTB1lDllpM/T1azFxYuTZCzVyUNUZSi5zW23HLSa/W23LLSdNqqDdpMBWW3dipjV21XuXVtt3c1NerLa0tskyVl7ynUqy25ZaTAVtr3aTVKKxqvaAs9kbGcuPzl9WVlyVsjLVtrVstJhptJNpmjFNvhbaaJVrarL+5dBaSerNjHS3hYumt2xlGXapkSKAwkqCORIwAACQAALgLYAuAtlwMhHIkAKcyoAAAEQAAAAAAAAAAAAACnMqCQjkMiQAAFsC4C2AwAAAAAABHIIpEcioMgAWnnqrYw1N4VMoylGPcmzKq5MWGns7YyVy+cuSqSbUtr2/Iu0zNFa8cdJsjBxW5f2sdR21pjZRyZm7zGw0Vt28lMlRWvLHSZ+jtuOOKm+MVTbe8NFbccdJsVHbduk91HbdukztLQY46Tbqrrb3lo6HHHqM5S0iquTKX5UhZS5MW6irWWuKmXFKUpLk2espcVMNWV+7Ueasr8ctRr1bcMstQ2ba6l+tuG7Ua3X3LHLUWK+5Y5ajVq+5Y5ajVKSyqoX6+5bubGJt9vuHE91hQW9M4x1PMbbKXvMzd1T08P8P3TjO6RpqNcJCMvp6iK6JS/qbwqfQfC/C1u4TtsKShlcm5c5s+O+a3iaP8uyAjHYycmFHGse5b4R4RoeFLZCRTLnPfFp1Qycmmt/JfkXum1Q7ByBvUkpcy58+VQAGAAAAAAAAAAAAAAAAAAAAAAAAAAAAAAAAAAAAAAAAAAAAAAAAAAAAAAAAAAAAAAAAFDDXqx0d9tr0NxkLOp3h1rGHXBvUyx7rQ+UzMI9RTlz7DJxzzx8eHzLxfwPc+DKtpywaptLtoqILqTyv4W821vwngoLlljqPpypppNZSvIqEWbJmLFXlzF5qyx9UYHEONei2otDzLpw8jz6OGp6RcovK9nxL826HmNEq/LtW+NncWei35rNFctuo2WiuO3UcpoLplisWNmorljjqMRk6baHUaO4K2OoztLX5Y6jmlFcssdRsVHctuTGzZXW0N40T18x4Kqgyy0njpa/bqMvIqVmrixlyy2g1istuWWkwVZbd2k6JNpFnLlDUYiqt27SNW+u1zSsteWWk1+ste7SdRqrbllpMHVW3dzUhq7a73Lay05ZYqYxpdRTRx3Q8LHR6q17tJhaq17tJqlWsasnVqiT0fT2R+Ri6X6q07mVTwtLqJDYtqXwsapV/asK8uMu5fBaSejNyjpbwsXTW7IyjLtUyJcygMJKgoUyMCQGQAAAJAAAADIAXC2ALgLYAuAtgC4C2ALgLYAuAtgABkAAAAAAAAMgiAjkVArzI5FQZAAtPPRW5L1t4VMoylGPculp56Jp7Y/IpFZdTP8q+FT30tp2symyNf3OOzLjHteBZdRUxx2w8KmTo7TjjkpmqW17cVM5S2vbpNsa1bbkykw1Ha9uk2CjtarjpMrS23bpM5S23HHSbdXBO9jKO27dJn6W2446T3Utuxx0mXkUyyVyjpJ6uKdryUtBjjpPfokL5i3PqVlLiph6qv3ag0ayk9tVX45ajAVlwxy1HjrLlu1Gv1tyxy1GJSdVVD21tx3ajWK25btR5q25Zc9RrNfctywY1yksaqHqr7ljlqMjwdwTc+M6uE5otTWlI8ptRj1v5U8Tebav4TP8E9FdTdHlXTiFHk0sYwZKRocnm/PM8MPm7Y+U7bS00iipUkU8tJUmXDFERcYLD5IQMxr27nNk5sYeir5vJZbNRWK2yqC2yFlU6Q0qsNzetmb1tH5TL8oQEOqA+c3qj5/HlIAGAAAAAAAAAAAAAAAAAAAAAAAAAAAAAAAAAAAAAAAAAAAAAAAAAAAAAAAAAAAAAAAAAAAAAAAAByrjnotp75Cdc7PjTXPdMlw6pVRHzeFvn+98px12rLRXvRV8ibJqJUcYpNXFl/1L5j6zWHV1xNZ4p4OtHFVHGTcJH7VV/ZVEvqmyo+WPyfNHqNUq/tWGNnSr9Fnxi4ZRXLbyY2OiumWOo1niThC98Hz2mTpbTbczYpVSl6voZe634fDE8VFdMsdRDZY8xjZHat1OjuW3UZ+luStjqOX0V0xx1Gfo7krY6iezktodLpa/LHUe9WlT11Gi0dy26jNUtwyx1E9nDOqUWVqKBW2qYiqtuWWkzMitVlxZj0tLlTl0hCMpRaLVW3dpMLVW3dkp0WooFbumLqrZu0mNXVXe5nVWvdpMLVWvdpOn1Fr3aTDVVr3aSOrsrvcvqrPllpMc1JUyOyLcvCx0mqteWWkxFRa92k1au2vJ1aVCfj1TEivzr1wL0Ggy84RWMPKZiotKtlpMXPtbKzMuSt5TVKp315n3Ig87LUye3UvmKrUrtdWVvMQlGTqjfXJfBGEYRh1RWPskiLapkMioCSoKACoKFMjAkCOQyAkCORLIABkMgAGQyAAZEcgJAjkMgJAjkVAqCgMimQyKgAARjGEI9cVh7QRSBYapXaiszeUKtTO26V8pKMZSapX1xXWjBV5xiqw8xYjOy6paRb546YHrkWlmbm2TN5jKU9p26ScanLZmfawi0tRP3xbHww6jI0tn26TY6W17dJlaW1446TbGLgnk7MDS2vbpM1S2vxKZyltflMzT23bpNurinewtLbNukzVLbduky9Lbce6ZWRQKvdJauGd7G0tvxx0mVp6BVXJlPWsuVJXUeafWqq4qxlzylKT0s0qUunceCqr8ctRjqq4btRhaq5btQ2ThVKTI1Vyxy1GArLnllqMbWXLHLUYCtum7UQ2d1VDI1tyxy1GuVty3c2MfW3THLUezhng288YVKzZUppNtVsXqZi9X0Kveb8PiiQ2dmsao7WMZKSvvNalHbqebUVE1tKyl5t7XlXzMdh4G6L6axRl3O7RhU3Pcix60p4+XxN8/3flNs4a4QtPCtB8Gt1Pydv3s9485k2Pmj/AC7DY2hHlyhE2xh+1W5OdKz0V/CK4ACavAAAAAAAAAAAAAAAAAAAAAAAAAAAAAAAAAAAAAAAAAAAAAAAAAAAAAAAAAAAAAAAAAAAAAAAAAAAAAAAAeSfTy6iTMlTZavJdcWVlyg0Pk5HIuL+iGEWev4Zj6NtzUTtyWPsM232W0/Op2cjyI8x4k2VXzqltB8krVVVvqnpayTNkzkji8qarKyt7JmqK6beTHduJuDrPxTSejuFJBpqwxlVEvTNT2W/lHqOJ8T9Hl84VjMqpKtXW5euE2UupF86936V5r7JqlGUVzTl1X+mXpky1HdNuTGepbltxY5bR3bLHUZ+jum3UIyTtodPpblt1GYp7h5jmlLdFbHUZyluW3UbNnDOh0SVWqy4tqLzSpU5dJp1LcssdRlqe5bdRnZySqlF7p9Ard0xlRbfKZiVXqy4sx6MZU5QjGUotIqLXu0mMqLXu0nQ5tArbVMfPtvlMat9d7m9RaV1aTFT7T5TpM+2q3dMZPte7SR1dVd7m1Rad2kxc+zrq0nTJ9r8pjZ9rXwkdXVXe5pNs7K2Sri3lPO0iolQ6o5L4WOhzbT5THTbT5SEq3VDL1aT6Wau+V90nCplNuZl9pTZZtn8pj5tnXVpIdJ1V5kmOg0G7GWPssSJvaMW0wLDUM9Ox2X3iPSbo5cVwFmKVUv5G9pSnpZ69spW9liOkm2OTBfB5vhMV7ZTQJfCU9asvukdZNnVh9y+C18JleP8I9NL8cDOsmepFdBb9JL8cPtHpJfjh9phLeK4C36SX44faPSS/HD7QbxXAWvTS/HAfCZfy8/oUzrJHqRXQWPhKepWb3SPp4t2Smb2hrJjqw+56Qeb0s5uyUq+0xKEuqbwr7KmdJNcsmtfIxZV7WVfaYitBPftdm94vyrPluUl02qWXF541Mpexmb2VLfpZrbJX3mMxKs/lMhKs/lJdJpszZNbWRUP2xZV+bqPRKs7M2TLl7Rtkq0+U98m0+UnGty2ZcpNVkWddOkylPafKbNIta+EyUi1+Unq5Z5LWpFp8plae1r4TY5Fr8pkZFtx7pLVyzvYCnte3SZOnte3SbBItvlPfKoFVdSktXLK9h6e27dJk5FAq909uMqSpYn16quljLRKUpL6pKkrqLM+tVVxUxVRct2oxNVc92obJRqlJlqi4btRh6q5btRhqq5btRhaq6KuWoxs666GXqrluyYwNZdN2LGIrLpu1GArLtjlqNcpO6uhlq26bubGH9NVXKqSkopM2oqHjySVKXKLGx8MdHt94q9HUToRobc0ecZ81dTr5F3N9Lcl9o7XwvwfZ+FKP0VBSwWa0OU2omapk32o/wAodRmMZSa7suqn0x9UmgcIdEEFaXX8S/tH3LRJHmkPbiu72YafnY69JkSqeSsuUipLRcVVVxVYfQejkVNnEeIqi2+d0tpqgAk1AAAAAAAAAAAAAAAAAAAAAAAAAAAAAAAAAAAAAAAAAAAAAAAAAAAAAAAAAAAAAAAAAAAAAAAAAAAAAAAAAAAAAAUKgDmnFHRRaL+8yqoFhba1tWUpf2UxvMv815fWcfvXD984TqMbnSMspo4pPTVKf2W7vstix9Twhp64nlqaaVUyXkVEpJsqZDFkdYMrQ+SMI9pCVcZOyjOsq9MvjF8wUt2VsdRm6W6bdRvPEvQ7b630lTYpnwCojq9A3OMlm/Mv1c18pyu6Wa9cMVMJV0onkrFsYTd0p/Ziun3dxqlxKKzrvpv+Td6W6Lp1GYpblt5McwpbsrY6jN0t026jOzM6HS6e6bdRl5Fy8xzWlum3UZenum3US2cM6HRJFxVu8etZ8qavXiaLT3TzGTkXJW7xPZzyqbO0hJm3E8k+3K3dPLIuXmPdKr1bcwatZRYybbfKeGfa/KbQs2VM3BpEqZtxGqUbZRaPNtflPDPtflN/m0CttU8c22+Uatsb2gTbX5TwzbT5ToU22+U8c21r4TGrdG9zybZ/KeV7Pq2nQntflPO9r8pHVtjkudPZ/KeZ7P5Tor2vVtPM1r8pHVtjkudvZ18JZaz+U6G1p8paa0+UatsclzxrP5SDWfynQWtPlLbWfymNUveWgNZ/KW/ifynQWs/lKNZ/KNT3lz9bP5S4tn8pvi2nylfinyjU95aItn8pNbP5TeltPlLi2nyjU95aMtn8pfWz+U3dbT5S6tp8pnVH3lpSWfynpSz7dJua2vynpW1+UatXvLTpVn8p6pVn8puCWvynoS1+Ulq1SyWqSrT5T3SrX5TaJVr8p7JVt8pLVqle1eRa/Ke6Ra/KbNKtuPdPWlAq90atMr2vSLb5T2yLbj3TNrIlS+1lDTZUvaZ1apWyk8ki3KvdPWsiVL3YlibXqu1jwzbl5gjrKTKtPlSl04nin3FV7xhZ9yXxGKqLp5hs2xoZ6fcvMYqoum7UYOoum7UYequm7FjGzohQztVct2ow9VdFXLUYGqum7UYWquy6tRr2d1dDOVV03ajB1l0VctRS1We+cTVPorVRPNWDYxmt1Sk9qLafd3HWOG+h63UCLU3yb8YVW70UOayFb6O1ve0+UxHaTFt9NHw5crs/D984sqMLZTM0pWxeom6ZSe03eb5lyY7Hwr0WWqwtLq6yWtfcIavSzV0S28q/qbm30G909PKpZMJUmTCVJSHJURYQVYfJCED0x29vI2xrjFWX51lvwj6YplQCbjAAAAAAAAAAAAAAAAAAAAAAAAAAAAAAAAAAAAAAAAAAAAAAAAAAAAAAAAAAAAAAAAAAAAAAAAAAAAAAAAAAAAAAAAAAAAAAAADxVVLIrKZ6eqkJPkOuLS5qwZWh5oMe0Aco4h6G7VWM0+yzGts7d6LreUzfRuX3Y/UcwvPC3EfCzM1fRtGnXsqJWuU31rt97E+ooLzh2kGRWWKtCDLHqjzISri7Kc+2v0y9UXynS3hdOozFLdNuLHWr/wBFXDt7ymyqaNvqd3paXksGbzL2R/gczvXRVxPZmmTaCCXOnX+q0zcfMjbvqaJDWXCxry6bf8K/T3bbqMvT3RdOo5n8PqKWfGnqpU2TNhpaVNVlZfaVjJU92XxEdm2VHHLpsi6eYyUi6eY5rIu3mMnIu3mJ7OaWM6NIui+IyEq5eY53Iui+IyEq6eYls55UOgSriviPStWjbsTRJV08x7pV08xnZolQ3DKVMKNTym7GU1yVdPMepLl5gh05Mq1ArdmJYa2r4S0ly8xfW4q3eM+lH1PM1t8pYa2+Uyq1qt24lxaiU3dUwbSa+1r+Yg1r+Y2XKUxTGUwS60mrNa/KW2tflNs9DKbvD4PK8SjVnqyam1r8pH4r8pt3waV4lHwSV8qjU67T1tflLnxX5TbPgifKo+DSvEo1Ou1NbX5S4tr8ptHweV4lHoZS95RqdWTXFtflLq2vymfxlKVylKNWOrJhFtvlL623ymSaolL3VLbVqr4QjtJYS3L4S+tAq91S01wVe8WHuXmB6pMgsiUu5lJZSpZhHufmPLNui+IbJdOTYWq0XbieabcV8Rrc26eY8M26eYbJxobJNuXmPDPui+I1ubdPMY+fdF8RjZvjQ2WfdPMYufdN2o1yfdvnMVUXbzEdnRGhs8+6L4jEVF23ajXKi8Lq1GN+G1FZPhT00qbOmxjyhKlQaLN7qkNnVGjybBVXTdqMNVXjdqNps/RVxNeWlza+KWynb+t1TYr7C7fraB0mwdFfDtkgk2ZTxr6iGr0tXyaCt5V2w/iZ1lJpsy6av8TjVm4W4i4oZY0FE60rN/8AUz9Er7W3e7kdQ4f6G7VRPLqbzNa4zoavRbJSt7O5vej9R1BYQVYQXqVeqEIFzt7O02cQirrs+2z4R9Ly0tNIpKZaelkJIkIvJZcpYKqw8sFPaATcYAAAAAAAAAAAAAAAAAAAAAAAAAAAAAAAAAAAAAAAAAAAAAAAAAAAAAAAAAAAAAAAACkW5FuLgXOcCvMsRcpmBeygM4FjMpmB6MymcDz5jMD0ekgPSQPPmMwPR6SA9JA8+YzA9HpID0kDz5jMD0ekgM4HnzGYHpzGcDzQcrmB6M4DOB58xmB6MxmWMxmBfygMizkMgL2RXIs5FYMBd5lS3CJKEQJAcwAAAAAAYO88P2m+SPR3K3SamHdaaupfZbcv1HOrt0JUU3KbZ7hNo39Uqd+1T2efUy/xOvQ+kkR5jxy3VZFtXZJ8yXPgHi2yM8Y29quTD/iUjelh93cv3TAyro0lmR8lZWxZWXFl90+tuXPt6zC3Thmz3pI/Glup6qMFx5vLhkvst2w+0hp9rur8T5/7kXzlIvC+IyUi7eY6JdOhCyT8ntdZV0EyO1Yt6WWv1Nq/EaTc+ifiy2s3wT0FwlLt9E+D/dbH+DRI6yi645OPZ+Oqsq7eY98q7eY0SsprzaY8rhbaymgvemymVfvbSki8Zd4xs2dGEu10qVdF8R6kunmOcyrwviPZKvHmM7ISxnRpV08x6UunmOdyrt5j1Srx5iWzRLGdDW6eYurdPMaAt48xfW7eYbISob+t0+curdPnNEW7L4ia3bzEtmv3dvi3LzE1uXmNGW7eYmt28w2Y6DeFuXmHxn5jR1u3mJfGkPENkeg3hrl5i38Zr4jTGuvmIfG3mGx0G6tcvMRa6eY0xrt5iDXbzDZLoNya6L4i0108xpjXZfEQa7L4hsz0G3tdPMWmunmNMa7eYsPdvMR2bI0Nxe6eY8r3TzGoveOrceObePMNk44zcZt08x4pt0X5TUJt48x45148xHZtjjNum3bzHgm3bzGpTbx5idHT3m8R5W+21lTBu9KlMy/e2mNm3oxj3M3Pu3mMbPvC+I2G1dE3Flyxat+D2+W270r+kmfdX9TG62roTscjGZc6yruDw3Lz9Eje6ur8RnWUmuWTj1fjs4y90adMVEVmdmxVVXJm90z9r6P+Lr5GDQoGpJDf8Wrb0UPu7vwnfrXwzZrKn+67dTUsYrjzSXDJvabtj9pmuXLs6iXT+5yWeJ8/9uLkdn6EaKRFZl4uE2tfnzikr9kn0c+to/wOjWfh+02On9FbrfIpYd70S9be03a31mYKR+k2RjxFwW32298kwAZagAAAAAAAAAAAAAAAAAAAAAAAAAAAAAAAAAAAAAAAAAAAAAAAAAAAAAAAAAAAU5wgUzX5QJAhGZCBCM0C7zhAZQPNGb85GMwD0xmQIxmnljMIxmAehpnMtxcsxmEIuBfi5TMsRcjFwL+YzPPFymYHozGZ58ymYHozGZ58xmB6MxmefMZgejMZnnzGYHpzGZ58xmB6MyuZ5oOVzA9GZXM8+YzA9GZXM8+ZKDgX8iUGPPBiUGAvwYlBixBiUGAvwiShEswYnCIF6ESZZhEmsQJgAAAAAAAAAAAALTIrLFYwhGEe2ETWrjwHwzd1jGqsVJBm3PKl+ib7y4sbTCPOBTtDPE+ePjw5RcehGzT4M1ur6yjmN2K0YTVh9UeTfiNdrOhW+yYRjQXWjqYLthNVpUW/Mp3oEOnF1Rzb4/U+ZKvo/wCNLfkzWiNQi96nmq+Xu5ZfhMLUpdrdHlW22sp4w/rZDL+ZT6y7fWMFj3YEelw3x8Tn9UXyKl6834j1JePMfT1VZLTcP/q7ZST/APnSVb/GBhKvo14Qq4R9JYqVef8AVQaV+VoDpct0fEq+e6Lga3jzFxbx5jsM/oa4UnQj6OXVyP8Al1DfqyPBN6DrG37u5XWX9MxG/SY6cmyOfj8uZLeNW4uLePMb3P6CpLc/g/EE5fD6SmVvysp449BdbHbxFLj7VHFf1DWSfveLL8WorePMSW8eY2f+g27ctN+p/rpor+ohHoRvkOy8UTe0jqNZHvGP9zXWvHmLfxx5jZ4dCV8juu9Evso7El6Dbv3r9Tr7NNFv1DWR7xj/AHNVa8eYttePMbnDoLrIbuIpcPZo4t+o9cjoLlLy+EcQTn/5dOq/mZhrJj3vF/a54148xBrxp3HVZfQZYV/eXC5zPomJD9J75HQzwnJh+0l1c/5plQ36cR05Iyz8fhxJ7x5iw94+RvxH0XSdGvCFJCEZdjpW5f10Gm/mjEzdLY7Tb4Q+CWykkcv6mSq/4QM9Plrl4lXx2xfL9NKu1wjyorbXVEY9nopDN+VTNUnR/wAaXDFltEadW71RNVMfdyy/CfTHo1h6oDsHS4aZeJz+mLhFH0KX2dCEa660dOreqUrTYr+VTYrf0JWaRBWuVwrayYvaqxhKVvqXm34jrAJaRc8s26X1NXt/AvDFpWEaSxUeS7XeX6VvvNkxsaoiLBVWEIQ7IQLvWU+s2OaUpc/PlIAGGAAAAAAAAAAAAAAAAAAAAAAAAAAAAAAAAAAAAAAAAAAAAAAAAAAAAAAAAAAAAAAAAFmNQhBqmHqMRCp+cl8I+cDIRnfORjO+c8Hp/nHpvnA9sZvzkYzTx+l+cp6UD1xmkYzDy+k+cp6QD1RmEYzDzekKRmAeiMwjFzz+kKZgejMpmefMpmB6MymZ58xmB6MymZ58xmB6MxmefMpmB6cxmebMrmB6MxmefMZgeiDlczzZlcwPRmVzPNBysHA9OZWDnmg5WDgemDkoOeaDkoOB6YMSgx5oOTgwHpgxKDHngxODAemDE4RPOrFyEQPRCJOESwsS4sQL0Iky1CJOEQJAAAAAAAAAAAAAAAAAAAAAAAAAAAAAAAAAAAAAAAAAAAAAAAAAAAAAAAAAAAAAAAAAAAAAAAAAAAAAAAAAAAAAAAAAAAAAAAAAAAAAAAAAAAAAAAAAADSVqPnLsJ/zmJSd85eWd84GShO+cl6X5zHwm/OShNA93pfnHpTx+lK+kA9fpCnpDy+kHpAPV6Qp6Q83pPnKekA9PpCnpDz5lPSAejMpmefMZgejMpmefMZgejMZnnzKZgej0gzPPmMwPRmMzz5jMD0ZlczzZjMD05lczzZjMD0wcrBzzQcrBwPTmSg55cyUHA9UHJQc8sHJQcD1QcuQY8kHLkHA9UGLiseVWLqsB6lYuLE8ysXliB6FiXViWFiXViBfWJOBbUuKBMAAAAAAAAAAAAAAAAAAAAAAAAAAAAAAAAAAAAAAAAAAAAAAAAAAAAAAAAAAAAAAAAAAAAAAAAAAAAAAAAAAAAAAAAAAAAAAAAAAAAAAAAAAAAAAAAAAcpSb85fWaY1Jnzl9ZgGQhNJwmHhWYThMA9sJhL0h44TCUJgHr9J849IeX0hXMD0+kGZ5s/nGYHozHpDz5jMD0ZlPSHnzGYHozGZ58ymYHozGZ58xmB6MxmefMZgejMZnnzGYHozGZ58xmB6cxBzz5jMD05lczzZjMD1QclBzy5lYOB64OSg55IOTg4Hsg5NXPHBy6rgexXLyseJX6y8jge1GL6RPEjHpRgPWkS+p5kielAL6l1YFtIF4AAAAAAAAAAAAAAAAAAAAAAAAAAAAAAAAAAAAAAAAAAAAAAAAAAAAAAAAAAAAAAAAAAAAAAAAAAAAAAAAAAAAAAAAAAAAAAAAAAAAAAAAAAAAAAAAAAAOKo5eVzxI5eVwPYrlyDnjVy5BwPXByUHPLByUHA9OZXM80HK5gejMrmebMrmBfzGZYzKZgejMZnnyGYHozKZljMZgX8xmefMZgejMZnnzGYHozGZ58xmB6MxmefMrmB6MxmefMZgenMZnnzEHA9OZKDnlg5KDgeqDk4OeODk4TAPZBy4rnihMLizAPerl9HMcsw9EuYBkpbHqlsY2W/Ye2U3YBkJcT1y+s8UqJ7pIHrSHKHMkUXbAqAAAAAAAAAAAAAAAAAAAAAAAAAAAAAAAAAAAAAAAAAAAAAAAAAAAAAAAAAAAAAAAAAAAAAAAAAAAAAAAAAAAAAAAAAAAAAAAAAAAAAAAAAAAAAAAAAAAH//Z" parent="1" vertex="1">
          <mxGeometry x="835.5" y="570" width="130" height="126" as="geometry" />
        </mxCell>
        <mxCell id="ST7Q-PoKFSPQThEERPkX-19" value="&lt;font style=&quot;font-size: 18px;&quot;&gt;检查结果不一致&lt;/font&gt;" style="text;strokeColor=none;align=center;fillColor=none;html=1;verticalAlign=middle;whiteSpace=wrap;rounded=0;" parent="1" vertex="1">
          <mxGeometry x="780" y="515.5" width="110" height="40" as="geometry" />
        </mxCell>
        <mxCell id="ST7Q-PoKFSPQThEERPkX-20" value="&lt;font style=&quot;font-size: 18px;&quot;&gt;报警&lt;/font&gt;" style="text;strokeColor=none;align=center;fillColor=none;html=1;verticalAlign=middle;whiteSpace=wrap;rounded=0;" parent="1" vertex="1">
          <mxGeometry x="740.5" y="613" width="110" height="40" as="geometry" />
        </mxCell>
        <mxCell id="ST7Q-PoKFSPQThEERPkX-22" value="&lt;font style=&quot;font-size: 18px;&quot;&gt;与申请不一致，更新平台日志信息，并通知管理员&lt;/font&gt;" style="text;strokeColor=none;align=center;fillColor=none;html=1;verticalAlign=middle;whiteSpace=wrap;rounded=0;" parent="1" vertex="1">
          <mxGeometry x="770" y="760" width="210" height="50" as="geometry" />
        </mxCell>
        <mxCell id="0zrECa5kf7nCr0N9lgGi-4" value="" style="verticalLabelPosition=bottom;sketch=0;aspect=fixed;html=1;verticalAlign=top;strokeColor=none;align=center;outlineConnect=0;shape=mxgraph.citrix.security;" vertex="1" parent="1">
          <mxGeometry x="1070" y="343.5" width="69.59" height="122" as="geometry" />
        </mxCell>
        <mxCell id="0zrECa5kf7nCr0N9lgGi-5" value="&lt;font style=&quot;font-size: 18px;&quot;&gt;入库维修&lt;/font&gt;" style="text;strokeColor=none;align=center;fillColor=none;html=1;verticalAlign=middle;whiteSpace=wrap;rounded=0;" vertex="1" parent="1">
          <mxGeometry x="1049.79" y="467.75" width="110" height="40" as="geometry" />
        </mxCell>
      </root>
    </mxGraphModel>
  </diagram>
</mxfile>
